<?xml  version="1.0" encoding="UTF-8"?>
<!DOCTYPE svg PUBLIC "-//W3C//DTD SVG 1.0//EN" "http://www.w3.org/TR/2001/REC-SVG-20010904/DTD/svg10.dtd" >
<svg xmlns="http://www.w3.org/2000/svg" >
<metadata>
<version>1.0</version>
<id><![CDATA[Adobe Garamond W08]]></id>
<vendor>Monotype Imaging Inc.</vendor>
<credits>
<name>Fonts.com WebFonts</name>
<URL>http://webfonts.fonts.com</URL>
<role>Home of the Web fonts</role>
</credits>
<license>
<URL>http://webfonts.fonts.com/Legal</URL>
</license>
<copyright><![CDATA[© 1989, 1992, 1994, 1996, 1998, 1999, 2000, 2001 Adobe Systems Incorporated. All rights reserved.]]></copyright>
<trademark><![CDATA[Adobe Garamond is either a registered trademark or a trademark of Adobe Systems Incorporated in the United States and/or other countries.]]></trademark>
<licensee>
<name></name>
</licensee>
</metadata>
<defs >
<font horiz-adv-x="485" id="825d51b9-cc7d-4f4d-ba2c-47ffd291aebd">
<font-face font-family="" panose-1="2 2 5 2 6 5 6 2 4 3" ascent="917" descent="-354" units-per-em="1000" alphabetic="0">
</font-face>
<missing-glyph horiz-adv-x="500" d="M0 700H500V0H0V700ZM420 650H80L250 395L420 650ZM450 95V605L280 350L450 95ZM420 50L250 305L80 50H420ZM50 95L220 350L50 605V95Z"  />

<glyph unicode="&#xA;" />
<glyph unicode="&#xD;" horiz-adv-x="250" />
<glyph unicode=" " horiz-adv-x="250" />
<glyph unicode="!" horiz-adv-x="220" d="M110 -14Q88 -14 71 0T54 41Q54 67 70 83T110 100Q136 100 151 83T166 41Q166 17 151 2T110 -14ZM110 646Q134 646 146 641T159 617Q159 606 158 587T152 528L123 205Q118 200 110 200T97 205L68 528Q64 568 63 587T61 617Q61 636 73 641T110 646Z"  />
<glyph unicode="&quot;" horiz-adv-x="404" d="M122 700Q143 700 154 697T165 676Q165 671 164 662T160 637L134 476Q122 464 110 476L84 637Q82 653 81 662T79 676Q79 693 90 696T122 700ZM282 700Q303 700 314 697T325 676Q325 671 324 662T320 637L294 476Q282 464 270 476L244 637Q242 653 241 662T239 676Q239 693 250 696T282 700Z"  />
<glyph unicode="#" horiz-adv-x="500" d="M217 403L173 241H291L334 403H217ZM376 403L332 241H431L416 191H318L266 0H227L278 191H159L107 0H69L120 191H9L24 241H133L176 403H64L80 453H189L234 626H277L231 453H347L392 626H436L390 453H491L478 403H376Z"  />
<glyph unicode="$" horiz-adv-x="500" d="M278 611Q240 611 217 600T180 573T163 538T158 503Q158 462 185 433T251 383L278 611ZM241 31Q266 31 289 36T331 54T360 88T371 139Q371 156 368 174T355 211T325 248T272 285L241 31ZM315 639Q338 638 363 634T415 624Q418 616 421 603T428 573T433 541T436 511Q434 506 427 505T414 508Q409 519 403 534T385 563T356 590T312 608L282 366L324 344Q376 317 410 276T444 173Q444 135 430 104T389 49T324 13T237 0L226 -94Q220 -99 209 -99T193 -94L205 2Q154 5 124 16T83 34Q71 48 63 84T55 165Q58 170 65 171T77 168Q82 152 91 132T115 92T153 57T208 34L241 301L203 320Q181 331 161 347T126 383T101 427T91 480Q91 513 103 541T140 591T200 626T282 640L291 717Q295 722 307 722T325 717L315 639Z"  />
<glyph unicode="%" horiz-adv-x="844" d="M799 180Q799 150 791 116T763 53T715 5T646 -14Q605 -14 577 5T529 53T502 116T493 180Q493 210 501 244T529 307T576 355T646 374Q686 374 715 355T763 307T790 244T799 180ZM727 180Q727 199 725 227T714 282T690 327T647 346Q620 346 604 328T580 283T568 229T565 180Q565 160 568 132T579 77T604 33T647 14Q674 14 690 32T714 77T724 132T727 180ZM351 446Q351 416 343 382T315 319T267 271T198 252Q157 252 129 271T81 319T54 382T45 446Q45 476 53 510T81 573T128 621T198 640Q238 640 267 621T315 573T342 510T351 446ZM279 446Q279 465 277 493T266 548T242 593T199 612Q172 612 156 594T132 549T120 495T117 446Q117 426 120 398T131 343T156 299T199 280Q226 280 242 298T266 343T276 398T279 446ZM229 -40Q217 -40 208 -34T199 -18L603 652Q611 653 620 649T636 635L229 -40Z"  />
<glyph unicode="&amp;" horiz-adv-x="818" d="M657 478Q714 478 746 479T798 482Q803 478 803 471T800 458L756 451Q735 448 719 438T690 412T665 379T641 342Q616 302 587 261T525 175Q538 155 544 146T558 125Q578 95 597 77T635 50T670 38T703 35Q726 35 751 44T793 71Q799 70 802 65T804 53Q774 15 733 1T645 -14Q611 -14 582 -6T538 15Q532 20 524 32T506 58T489 86T477 107Q456 83 432 61T380 23T323 -4T259 -14Q206 -14 169 3T109 46T74 104T63 166Q63 205 76 236T111 294T162 342T225 384Q211 393 198 405T173 432T155 465T148 505Q148 535 159 559T190 602T235 630T288 640Q345 640 381 607T417 521Q417 496 408 478T385 447T353 422T316 401Q358 375 407 327T507 205Q516 217 529 237T557 282T586 332T611 380Q624 406 628 418T633 435Q633 447 607 450L573 454Q568 459 568 466T575 478H657ZM251 363Q232 354 212 338T176 301T149 253T138 196Q138 163 149 135T179 87T226 56T287 45Q338 45 381 71T459 137Q441 168 418 200T367 261T311 317T251 363ZM284 611Q251 611 232 586T212 529Q212 467 294 420Q320 437 337 462T354 524Q354 557 337 584T284 611Z"  />
<glyph unicode="&apos;" horiz-adv-x="235" d="M118 700Q139 700 150 697T161 676Q161 671 160 662T156 637L130 476Q118 464 106 476L80 637Q78 653 77 662T75 676Q75 693 86 696T118 700Z"  />
<glyph unicode="(" horiz-adv-x="320" d="M146 270Q146 134 185 32T300 -148Q300 -162 286 -163Q240 -133 202 -88T137 14T95 135T80 270Q80 340 95 405T137 526T202 627T286 703Q300 702 300 688Q225 610 186 508T146 270Z"  />
<glyph unicode=")" horiz-adv-x="320" d="M174 270Q174 406 135 508T20 688Q20 702 34 703Q80 673 118 628T183 526T225 405T240 270Q240 200 225 135T183 14T118 -87T34 -163Q20 -162 20 -148Q95 -70 134 32T174 270Z"  />
<glyph unicode="*" horiz-adv-x="394" d="M220 546L345 609Q352 608 355 602T357 588L242 508L356 429Q358 422 355 415T344 407L220 472L210 342Q205 338 198 338T186 342L175 472L51 407Q44 408 41 415T39 429L153 508L38 588Q36 595 39 601T50 609L175 546L186 676Q191 680 198 680T210 676L220 546Z"  />
<glyph unicode="+" horiz-adv-x="500" d="M221 0V181H58V230H221V394H280V230H443V181H280V0H221Z"  />
<glyph unicode="&#x2c;" horiz-adv-x="250" d="M113 122Q126 122 140 116T165 98T184 68T192 24Q192 -6 182 -29T153 -70T112 -100T62 -121Q55 -119 53 -110T56 -97Q68 -93 82 -87T108 -70T129 -45T138 -10Q138 6 131 16T113 32T94 42T81 48Q71 53 68 60T64 77Q64 94 76 108T113 122Z"  />
<glyph unicode="-" horiz-adv-x="320" d="M273 247Q288 237 288 215Q288 200 280 190L47 168Q39 175 36 183T32 200Q32 215 40 225L273 247Z"  />
<glyph unicode="." horiz-adv-x="250" d="M125 -14Q103 -14 86 0T69 41Q69 67 85 83T125 100Q151 100 166 83T181 41Q181 17 166 2T125 -14Z"  />
<glyph unicode="/" horiz-adv-x="327" d="M88 -16H30L239 686H297L88 -16Z"  />
<glyph unicode="0" horiz-adv-x="500" d="M250 640Q305 640 344 610T408 533T445 428T457 313Q457 254 445 196T408 91T344 15T250 -14Q195 -14 156 15T92 90T55 195T43 313Q43 370 55 428T92 533T156 610T250 640ZM250 610Q222 610 203 595T171 554T150 497T138 432T133 368T132 313Q132 290 133 259T138 194T149 129T170 72T203 32T250 16Q277 16 296 31T329 72T350 129T362 194T367 258T368 313Q368 336 367 367T362 432T351 497T330 554T297 594T250 610Z"  />
<glyph unicode="1" horiz-adv-x="500" d="M220 462Q220 487 219 504T213 533T199 549T172 556L124 560Q118 563 118 571T123 582Q186 593 227 610T288 640Q295 640 298 635Q296 621 295 587T294 510V122Q294 93 295 75T300 46T313 31T337 25L379 22Q384 17 383 8T377 -3Q348 -1 316 -1T258 0Q231 0 199 0T138 -3Q133 -1 132 8T136 22L177 25Q193 26 201 30T214 45T219 74T220 122V462Z"  />
<glyph unicode="2" horiz-adv-x="500" d="M316 62Q385 62 410 84Q424 97 430 107T442 125Q447 127 454 126T464 119Q454 81 442 47T418 -3Q356 0 289 0H144Q102 0 76 0T33 -3Q31 -2 29 1T26 10Q26 14 37 21Q54 32 70 45T103 74T141 113T190 165Q215 192 240 223T286 289T320 362T333 440Q333 509 301 547T208 586Q163 586 131 559T78 486Q71 482 63 485T54 499Q78 565 132 602T255 640Q292 640 322 628T375 595T408 543T420 477Q420 430 396 378T313 257L252 187Q221 152 203 130T176 96T164 79T161 71Q161 66 166 64T192 62H316Z"  />
<glyph unicode="3" horiz-adv-x="500" d="M140 -56Q123 -56 106 -53T74 -43T50 -24T41 6Q41 21 51 33T80 45Q98 45 109 33T128 9Q138 -5 149 -13T181 -21Q205 -21 236 -6T294 35T341 97T360 175Q360 208 352 237T328 289T288 325T231 338Q194 338 167 323T123 289Q111 291 104 300T101 324Q115 330 136 340T180 361T224 386T261 411Q278 425 296 448T314 507Q314 547 290 570T232 593Q187 593 154 568T97 505Q89 503 83 507T76 519Q88 545 106 567T149 606T200 631T257 640Q319 640 357 610T396 525Q396 510 392 495T377 464T344 432T289 397Q282 384 301 382Q329 380 355 369T402 339T434 292T446 228Q446 174 421 123T349 30Q321 6 292 -10T235 -37T183 -51T140 -56Z"  />
<glyph unicode="4" horiz-adv-x="500" d="M34 189Q20 189 20 206Q20 215 23 222T38 244L359 692Q364 699 369 702T382 706H399Q414 706 414 698Q414 694 409 687L91 247Q82 235 90 233T119 231H274Q292 231 297 235T302 257V441Q302 446 303 451T311 461Q320 467 335 472T362 478Q373 479 374 471T376 447V254Q376 240 379 236T396 231H460Q467 226 467 211T460 189H406Q387 189 382 186T376 167V122Q376 92 377 74T382 46T395 31T419 25L445 22Q450 17 449 8T443 -3Q416 -1 389 -1T339 0Q312 0 280 0T214 -3Q209 -1 208 8T212 22L257 25Q273 26 282 30T295 45T301 74T302 122V164Q302 182 298 185T273 189H34Z"  />
<glyph unicode="5" horiz-adv-x="500" d="M131 593Q135 605 140 611T157 620L398 654Q403 655 405 652T407 645Q402 628 392 611T371 583L182 556Q165 554 159 549T148 529L130 469Q124 452 144 451L165 449Q212 444 259 431T344 392T406 327T430 230Q430 165 397 111T311 18T195 -43T72 -68Q64 -65 63 -54T69 -37Q127 -34 179 -15T270 35T333 110T356 204Q356 257 331 291T266 346T179 375T87 384Q76 384 75 391T78 415L131 593Z"  />
<glyph unicode="6" horiz-adv-x="500" d="M40 236Q40 268 46 306T67 385T108 468T174 549Q213 587 254 613T333 655T405 680T461 691Q466 689 467 682T465 670Q441 662 414 652T357 627T299 592T243 542Q179 474 154 396T129 239Q129 195 137 155T161 84T204 35T268 16Q296 16 317 28T352 60T374 109T381 169Q381 201 374 231T351 284T313 322T258 336Q243 336 232 333T212 328Q202 333 209 344Q231 358 254 366T307 374Q343 374 372 361T422 323T454 266T466 195Q466 151 451 113T408 47T341 2T255 -14Q200 -14 160 6T93 60T53 139T40 236Z"  />
<glyph unicode="7" horiz-adv-x="500" d="M157 564Q136 564 121 563T93 557T71 541T50 513Q45 511 39 512T29 521Q37 541 46 570T63 629Q87 626 169 626H338Q359 626 380 626T421 626T453 627T472 629Q479 627 479 620Q458 588 436 547T385 449L130 -64Q118 -66 108 -61T96 -45L379 527Q390 550 386 557T357 564H157Z"  />
<glyph unicode="8" horiz-adv-x="500" d="M263 640Q296 640 326 631T379 603T415 558T429 494Q429 463 418 440T389 400T351 368T311 342Q337 327 361 310T403 270T432 220T443 156Q443 116 428 85T387 31T324 -2T243 -14Q210 -14 177 -5T117 24T75 75T58 153Q58 181 70 205T101 249T144 287T193 321Q171 333 151 348T115 382T89 425T79 478Q79 516 93 546T132 597T191 629T263 640ZM253 16Q307 16 338 49T369 137Q369 167 356 192T322 238T275 275T221 304Q171 270 151 232T130 162Q130 130 139 104T164 58T202 27T253 16ZM256 610Q230 610 211 601T178 577T158 541T151 499Q151 473 162 452T193 414T235 383T282 357Q317 382 339 415T362 492Q362 515 355 536T333 573T300 600T256 610Z"  />
<glyph unicode="9" horiz-adv-x="500" d="M239 610Q191 610 159 575T127 472Q127 443 134 413T156 359T191 320T242 304Q261 304 269 305T286 308Q293 304 289 296Q274 283 251 275T199 267Q169 267 142 279T93 312T60 365T47 436Q47 481 63 518T106 583T171 625T252 640Q299 640 336 621T398 568T437 487T451 385Q451 344 443 300T416 213T370 130T304 55Q276 30 245 11T183 -23T121 -46T66 -60Q60 -58 58 -50T60 -37Q149 -10 208 33Q242 58 270 91T319 167T351 266T362 393Q362 427 357 465T337 535T299 589T239 610Z"  />
<glyph unicode=":" horiz-adv-x="250" d="M125 280Q103 280 86 294T69 335Q69 361 85 377T125 394Q151 394 166 377T181 335Q181 311 166 296T125 280ZM125 -14Q103 -14 86 0T69 41Q69 67 85 83T125 100Q151 100 166 83T181 41Q181 17 166 2T125 -14Z"  />
<glyph unicode=";" horiz-adv-x="250" d="M113 122Q126 122 140 116T165 98T184 68T192 24Q192 -6 182 -29T153 -70T112 -100T62 -121Q55 -119 53 -110T56 -97Q68 -93 82 -87T108 -70T129 -45T138 -10Q138 6 131 16T113 32T94 42T81 48Q71 53 68 60T64 77Q64 94 76 108T113 122ZM125 280Q103 280 86 294T69 335Q69 361 85 377T125 394Q151 394 166 377T181 335Q181 311 166 296T125 280Z"  />
<glyph unicode="&lt;" horiz-adv-x="500" d="M445 413V355L128 207V205L445 56V-1L56 183V228L445 413Z"  />
<glyph unicode="=" horiz-adv-x="500" d="M443 256H58V305H443V256ZM443 106H58V155H443V106Z"  />
<glyph unicode="&gt;" horiz-adv-x="500" d="M444 228V183L55 -1V56L372 205V207L55 355V413L444 228Z"  />
<glyph unicode="?" horiz-adv-x="321" d="M104 646Q134 646 164 629T220 584T260 519T276 442Q276 400 263 379T238 352L159 310Q124 292 124 266Q124 254 127 239T134 208Q131 202 125 201T113 203Q108 212 102 224T90 249T81 277T77 302Q77 333 92 347T131 374L180 400Q210 416 222 434T235 473Q235 489 231 505T213 534Q192 555 164 560T97 566Q90 566 77 577T64 608Q64 623 74 634T104 646ZM126 -14Q104 -14 87 0T70 41Q70 67 86 83T126 100Q152 100 167 83T182 41Q182 17 167 2T126 -14Z"  />
<glyph unicode="@" horiz-adv-x="765" d="M452 325Q436 325 423 318T389 295Q368 278 349 252T316 198T293 142T284 94Q284 81 296 81Q301 81 320 91T376 133Q394 149 413 172T449 219T478 263T495 296Q491 307 480 316T452 325ZM543 389Q555 394 569 390T591 377Q588 370 579 350T559 302T534 244T509 185T488 134T474 100Q467 83 472 75T497 68Q537 69 572 83T634 124T676 187T692 272Q692 325 672 367T617 440T534 486T431 502Q357 502 298 474T198 397T136 286T114 154Q114 110 128 62T177 -27T269 -94T412 -121Q466 -121 504 -109T567 -86Q572 -88 574 -93T575 -105Q530 -134 477 -145T382 -156Q320 -156 260 -138T152 -81T75 16T45 153Q45 241 77 312T165 432T291 509T440 536Q512 536 567 514T659 456T716 373T735 276Q735 228 718 185T667 108T585 55T476 35Q451 35 437 37T416 43T406 50T404 57Q404 61 405 67T412 88L437 151L435 152Q412 129 386 108T333 70T284 45T246 35Q225 35 215 49T205 80Q205 87 208 101T221 136T244 182T281 234Q299 256 321 278T368 319T422 348T481 360Q491 360 502 355T518 338L543 389Z"  />
<glyph unicode="A" horiz-adv-x="623" d="M407 232Q402 249 396 253T366 257H215Q196 257 189 253T177 233L142 128Q120 62 120 45Q120 36 125 32T149 25L182 22Q187 18 187 9T180 -3Q160 -1 136 -1T76 0Q51 0 26 -1T-20 -3Q-25 0 -26 9T-22 22L11 25Q29 27 44 37T71 74Q84 108 105 160T159 297L261 567Q272 594 276 610T278 638Q296 643 309 654T330 676Q335 676 339 674T345 667Q355 634 366 600T389 533L526 131Q537 99 545 79T563 48T583 32T611 25L638 22Q643 18 643 9T638 -3Q607 -1 579 -1T517 0Q481 0 453 -1T402 -3Q396 0 396 9T400 22L429 25Q445 27 454 31T464 43Q464 51 461 64T451 96L407 232ZM209 321Q203 304 206 301T230 297H353Q375 297 378 302T375 328L321 491Q315 509 309 527T298 554H296Q294 550 287 534T272 495L209 321Z"  />
<glyph unicode="B" horiz-adv-x="605" d="M128 530Q128 558 127 576T120 605T106 620T79 627L47 630Q41 635 41 643T48 655Q89 659 141 661T263 663Q311 663 354 658T431 635Q463 619 485 589T507 510Q507 456 479 425T405 373Q405 365 410 363T424 358Q444 354 467 343T511 311T544 261T558 191Q558 104 493 51T292 -3Q270 -3 237 -2T172 0Q139 0 112 -1T57 -3Q52 -1 51 8T55 22L73 25Q93 28 104 33T120 51T127 87T128 150V530ZM210 165Q210 151 210 136T213 105T220 77T231 56Q245 39 266 34T310 28Q343 28 372 36T422 60T455 103T467 168Q467 198 459 228T428 283T367 323T268 339Q248 339 237 338T219 333T212 325T210 313V165ZM210 397Q210 386 211 381T217 372T232 369T262 369Q300 370 329 377T379 399T409 438T419 497Q419 534 407 559T373 601T325 624T270 632Q237 632 224 626Q216 624 213 619T210 600V397Z"  />
<glyph unicode="C" horiz-adv-x="696" d="M44 326Q44 410 78 478T170 591Q225 634 293 655T440 676Q460 676 483 674T531 669T577 662T617 652Q626 650 632 649T645 648Q645 639 646 624T649 589T653 547T659 501Q655 496 646 495T632 499Q626 524 614 550T579 597T518 631T427 645Q370 645 319 627T228 571T167 476T144 341Q144 262 167 202T231 100T325 37T441 15Q489 15 524 29T585 64T625 111T650 158Q655 162 664 161T676 154Q673 134 668 113T655 73T641 39T628 17Q619 15 610 13T593 7Q585 4 568 0T530 -7T484 -13T435 -16Q367 -16 304 -1T186 51Q126 92 85 160T44 326Z"  />
<glyph unicode="D" horiz-adv-x="780" d="M128 530Q128 556 127 573T120 602T106 619T81 627L59 630Q53 634 53 643T60 655Q124 659 185 661T311 663Q374 663 428 657T531 633Q582 615 620 585T683 517T721 433T734 338Q734 242 690 165T559 40Q510 14 452 3T335 -8Q287 -8 243 -4T172 0Q140 0 111 0T47 -3Q42 -1 41 8T45 22L68 25Q90 28 102 33T120 51T127 87T128 150V530ZM210 173Q210 133 213 108T230 64Q247 41 276 32T353 23Q426 23 479 45T566 109T617 208T634 336Q634 363 629 396T611 462T575 525T517 579T433 617T319 632Q274 632 250 628T220 618Q210 610 210 542V173Z"  />
<glyph unicode="E" horiz-adv-x="584" d="M128 510Q128 549 127 572T120 609T102 628T67 636L51 638Q46 641 47 651T53 663Q85 661 112 661T171 660H359Q407 660 446 660T494 663Q496 657 498 642T503 607T506 567T510 530Q507 525 498 524T485 528Q479 546 474 561T461 588T441 609T409 623Q393 627 369 628T312 629H240Q229 629 223 628T214 623T211 611T210 589V389Q210 378 211 373T215 365T225 362T243 361H301Q333 361 355 362T386 367Q395 370 400 376T410 402L418 443Q422 448 431 448T444 442Q444 424 442 397T440 341Q440 314 442 288T444 245Q441 240 432 240T418 244L409 283Q406 297 400 307T378 321Q367 324 349 325T301 326H243Q220 326 215 323T210 299V158Q210 118 213 93T229 54Q233 49 240 45T261 38T295 33T350 31Q379 31 399 32T434 34T459 39T478 46Q492 54 510 79T549 143Q554 147 562 145T574 136Q571 123 566 104T554 64T541 25T529 -3Q394 0 261 0H171Q139 0 109 -1T35 -3Q30 -1 29 8T33 22L66 25Q87 27 99 32T118 50T126 87T128 150V510Z"  />
<glyph unicode="F" horiz-adv-x="538" d="M210 378Q210 368 211 363T215 355T225 352T243 351H311Q342 351 364 352T396 357Q404 360 410 366T421 392L430 432Q434 437 443 437T456 432Q456 414 454 387T452 331Q452 304 454 278T456 234Q453 229 444 229T430 234L420 273Q416 287 409 296T388 311Q377 314 359 315T311 316H243Q220 316 215 313T210 289V150Q210 111 211 87T218 50T236 32T271 25L305 22Q310 19 309 9T303 -3Q259 -2 230 -1T170 0Q137 0 109 0T45 -3Q40 -1 39 8T43 22L68 25Q90 28 102 33T120 51T127 87T128 150V510Q128 549 127 573T120 610T102 628T68 636L52 638Q47 641 48 651T54 663Q86 661 113 661T170 660H354Q402 660 440 660T489 663Q489 628 489 594T492 531Q490 526 482 525T468 528Q462 562 449 587T398 623Q381 628 357 628T301 629H240Q229 629 223 628T214 623T211 611T210 589V378Z"  />
<glyph unicode="G" horiz-adv-x="747" d="M648 102Q648 72 653 54T672 31Q678 25 671 19Q662 19 649 17T622 10Q582 -1 533 -8T443 -16Q353 -16 275 10T138 95Q93 140 70 198T46 322Q46 386 67 447T136 559Q187 612 263 644T453 676Q496 676 531 670T580 661Q594 658 613 654T642 652Q642 627 646 590T657 507Q655 501 645 500T630 504Q619 544 600 571T555 615T496 639T425 646Q352 646 300 622T213 558T163 466T146 358Q146 286 164 224T220 115T314 42T446 15Q493 15 520 23T556 45Q560 50 563 64T566 102V142Q566 173 565 191T557 219T537 232T501 239L457 244Q451 247 451 257T457 269Q479 267 517 267T600 266Q656 266 706 269Q711 266 711 258T707 244L691 242Q675 240 667 234T654 218T649 192T648 158V102Z"  />
<glyph unicode="H" horiz-adv-x="806" d="M260 323Q242 323 232 322T217 318T211 309T210 291V150Q210 111 211 87T219 50T238 32T271 25L300 22Q305 19 304 9T298 -3Q257 -1 229 -1T171 0Q139 0 112 -1T55 -3Q50 -1 49 8T53 22L70 25Q91 29 102 34T120 52T127 88T128 150V510Q128 549 126 573T118 610T100 629T69 636L43 638Q38 641 39 651T45 663Q82 662 110 661T171 660Q200 660 227 660T287 663Q292 661 293 651T289 638L270 636Q248 634 236 629T218 610T211 573T210 510V395Q210 383 211 377T217 367T232 364T260 363H546Q564 363 574 363T589 367T595 376T596 395V510Q596 549 595 573T588 610T570 628T535 636L516 638Q511 641 512 651T518 663Q553 661 580 661T639 660Q668 660 695 660T757 663Q762 661 763 651T759 638L738 636Q716 634 704 629T686 610T679 573T678 510V150Q678 111 679 88T686 51T704 33T738 25L762 22Q767 19 766 9T760 -3Q724 -1 696 -1T639 0Q608 0 580 0T518 -3Q513 -1 512 8T516 22L535 25Q558 29 570 34T588 52T595 88T596 150V291Q596 302 595 308T589 318T574 322T546 323H260Z"  />
<glyph unicode="I" horiz-adv-x="338" d="M128 508Q128 548 127 572T120 609T102 628T67 636L42 638Q37 641 38 651T44 663Q82 661 110 661T170 660Q200 660 228 660T294 663Q299 661 300 651T296 638L271 636Q249 634 237 629T218 610T211 572T210 508V152Q210 112 211 89T218 52T236 33T271 25L296 22Q301 19 300 9T294 -3Q256 -1 228 -1T170 0Q138 0 110 0T44 -3Q39 -1 38 8T42 22L67 25Q89 28 101 33T120 51T127 88T128 152V508Z"  />
<glyph unicode="J" horiz-adv-x="345" d="M143 508Q143 550 141 574T131 612T110 629T74 636L49 638Q44 641 45 651T51 663Q95 661 124 661T185 660Q215 660 242 660T299 663Q304 661 305 651T301 638L286 636Q264 633 252 628T233 609T226 572T225 508V137Q225 77 221 28T202 -57Q190 -87 171 -113T126 -159T71 -190T5 -201Q0 -201 -7 -201T-21 -198T-33 -192T-38 -180Q-38 -167 -28 -151T-2 -134Q15 -134 35 -140Q46 -143 56 -145T77 -147Q93 -147 102 -140T117 -121Q126 -103 131 -70T138 1T142 74T143 130V508Z"  />
<glyph unicode="K" horiz-adv-x="675" d="M128 510Q128 549 127 573T120 610T102 629T68 636L43 638Q38 641 39 651T45 663Q82 661 109 661T171 660Q200 660 227 660T287 663Q292 661 293 651T289 638L270 636Q248 634 236 629T218 610T211 573T210 510V395Q210 381 212 369T223 357Q230 357 238 360T251 368Q262 377 278 392T302 416L410 523Q417 530 428 541T452 566T474 590T488 606Q495 616 495 622Q495 628 478 632L451 638Q446 643 446 651T453 663Q479 661 508 661T563 660Q617 660 662 663Q667 659 668 651T664 638Q644 636 618 629T571 610Q550 598 512 566T431 494L341 409Q330 398 324 391T318 378Q318 370 337 347Q409 265 468 197T587 66Q605 48 623 38T667 25L694 22Q699 18 698 9T692 -3Q653 0 580 0Q549 0 521 0T458 -3Q453 -1 451 8T454 22L477 26Q488 28 494 30T501 36Q501 41 497 46T487 59Q473 77 453 99T404 153L324 243Q303 267 289 283T264 309T245 323T227 327Q216 327 213 316T210 279V150Q210 111 211 87T218 50T235 32T268 25L295 22Q300 19 299 9T293 -3Q256 -1 228 -1T171 0Q140 0 113 0T55 -3Q50 -1 49 8T53 22L73 25Q93 28 104 33T120 51T127 87T128 150V510Z"  />
<glyph unicode="L" horiz-adv-x="553" d="M128 510Q128 549 127 573T119 610T100 629T63 636L38 638Q33 641 34 651T40 663Q82 661 111 661T170 660Q199 660 227 660T293 663Q298 661 299 651T295 638L271 636Q249 634 237 629T218 611T211 573T210 510V162Q210 115 213 92T231 54Q235 50 241 46T260 39T291 33T340 31Q372 31 392 32T426 34T448 38T462 44Q477 53 495 79T528 143Q533 147 543 145T553 137Q553 133 549 115T538 73T524 29T511 -3Q473 -2 406 -1T262 0H170Q154 0 140 0T110 0T78 -1T40 -3Q35 -1 34 8T38 22L68 25Q90 27 102 32T120 50T127 87T128 150V510Z"  />
<glyph unicode="M" horiz-adv-x="912" d="M389 267Q406 232 423 198T458 130H460Q480 165 499 203T537 280L631 471Q665 540 685 584T707 663Q733 661 750 661T782 660Q801 660 824 660T871 663Q876 660 876 651T872 638L851 636Q827 634 813 629T792 613T783 585T781 541Q782 501 782 449T784 338T787 220T792 106Q793 87 794 73T799 48T813 32T841 25L873 22Q878 17 877 9T871 -3Q809 0 753 0Q727 0 695 0T632 -3Q627 1 626 9T630 22L659 25Q677 27 687 31T701 45T707 70T708 110L705 527H703Q700 523 693 508T676 473T656 433T638 397L549 222Q532 189 516 156T485 92T460 37T441 -6Q438 -10 431 -10Q429 -10 427 -9T422 -6Q416 14 405 41T380 95T355 149T334 194L244 387Q228 422 213 459T180 531H178Q175 484 173 441T168 353Q166 307 164 245T161 118Q161 90 162 73T169 45T182 31T206 25L244 22Q249 17 249 8T243 -3Q217 -1 189 -1T132 0Q108 0 82 0T30 -3Q25 1 24 9T28 22L50 25Q66 27 76 30T94 42T106 65T112 107Q114 132 116 155T120 204T125 260T129 327Q133 390 135 449T140 550Q141 574 139 589T130 613T110 628T73 636L57 638Q53 643 54 651T61 663Q84 661 102 661T140 660Q157 660 177 660T223 663Q220 634 236 590T275 498L389 267Z"  />
<glyph unicode="N" horiz-adv-x="783" d="M666 170Q666 159 666 134T666 81T667 29T669 -5Q665 -16 650 -16Q645 -10 637 0T614 28T577 72T522 135L290 399Q280 411 264 430T230 470T197 508T174 534H172Q169 525 168 509T167 469V251Q167 233 167 203T169 142T175 83T185 44Q190 36 203 32T236 25L267 22Q272 16 271 9T265 -3Q231 -1 204 -1T148 0Q116 0 93 0T44 -3Q39 1 38 9T42 22L69 25Q106 30 113 45Q118 58 121 85T125 143T126 203T126 251V540Q126 561 123 578T104 612Q93 623 77 628T42 636L25 638Q20 643 20 651T27 663Q59 661 92 661T140 660Q166 660 186 663Q193 644 216 613T267 548T319 486T357 443L454 334Q506 276 545 233T619 153H621Q624 157 624 168T625 195V409Q625 427 625 457T622 518T616 577T605 616Q600 623 587 627T543 636L526 638Q521 643 521 652T528 663Q563 661 590 661T646 660Q678 660 700 660T749 663Q755 659 755 651T751 638L737 636Q688 628 681 615Q675 601 672 574T667 516T666 456T666 409V170Z"  />
<glyph unicode="O" horiz-adv-x="795" d="M402 -16Q319 -16 253 11T141 86T71 194T46 323Q46 398 72 462T146 574T259 649T402 676Q489 676 554 647T662 571T727 461T749 333Q749 257 722 193T648 83T538 10T402 -16ZM415 15Q460 15 502 32T577 84T629 174T649 302Q649 364 635 425T589 535T507 614T385 645Q346 645 304 631T227 582T169 493T146 355Q146 299 160 239T207 130T290 48T415 15Z"  />
<glyph unicode="P" horiz-adv-x="549" d="M210 150Q210 111 211 88T219 51T238 33T276 25L303 22Q308 18 307 9T301 -3Q258 -1 230 -1T171 0Q139 0 111 0T49 -3Q44 -1 43 8T47 22L68 25Q90 28 102 33T120 51T127 87T128 150V519Q128 551 127 571T122 602T108 619T81 626L45 630Q40 635 40 643T47 655Q87 660 134 661T245 663Q308 663 355 654T437 623Q472 601 494 563T517 473Q517 438 508 412T483 367T451 335T417 314Q384 298 347 291T279 284Q274 286 274 294T278 304Q359 319 392 362T425 472Q425 545 384 588T264 632Q244 632 233 631T217 626T211 615T210 596V150Z"  />
<glyph unicode="Q" horiz-adv-x="795" d="M402 676Q489 676 554 647T662 571T727 461T749 333Q749 271 731 217T681 120T604 46T507 -1Q505 -6 515 -16Q534 -34 560 -57T615 -103T676 -144T738 -173Q766 -182 790 -184T831 -187Q839 -187 853 -185T879 -178Q884 -179 885 -184T884 -193Q860 -207 829 -213T772 -219Q737 -219 696 -211T610 -182Q579 -168 552 -151T501 -115T458 -81T425 -50Q414 -39 406 -33T391 -22T376 -17T358 -13Q338 -10 313 -5T260 11Q210 30 171 61T103 132T61 221T46 323Q46 398 72 462T146 574T259 649T402 676ZM415 15Q460 15 502 32T577 84T629 174T649 302Q649 364 635 425T589 535T507 614T385 645Q346 645 304 631T227 582T169 493T146 355Q146 299 160 239T207 130T290 48T415 15Z"  />
<glyph unicode="R" horiz-adv-x="645" d="M128 509Q128 545 127 567T122 601T108 619T84 626L52 630Q47 634 47 643T53 655Q95 659 148 661T276 663Q323 663 365 658T443 633Q479 614 502 580T526 493Q526 457 514 430T482 382T442 347T401 326Q397 321 399 315T406 302Q436 254 461 214T511 142T558 84T607 36Q620 25 638 18T676 8Q680 6 680 2T677 -6Q662 -11 633 -11Q601 -11 575 -6T524 14T477 52T426 115Q416 129 404 148T379 187T353 228T328 266Q317 283 302 290T257 298Q240 298 231 298T217 295T211 289T210 276V150Q210 111 211 88T218 51T236 33T270 25L291 22Q296 18 295 9T289 -3Q255 -1 228 -1T170 0Q138 0 109 0T45 -3Q40 -1 39 8T43 22L68 25Q90 28 102 33T120 51T127 87T128 150V509ZM210 366Q210 337 213 333Q215 331 229 330T282 328Q309 328 336 332T385 354Q405 370 420 398T435 478Q435 508 426 535T397 584T347 619T275 632Q252 632 239 631T220 627T212 617T210 600V366Z"  />
<glyph unicode="S" horiz-adv-x="489" d="M437 169Q437 128 422 94T379 36T312 -2T224 -16Q192 -16 167 -12T122 -2T89 10T68 21Q63 29 59 45T51 81T45 122T41 161Q45 166 53 167T65 164Q71 145 82 120T113 71T163 31T237 15Q268 15 291 24T331 50T354 86T362 130Q362 146 360 163T349 199T324 234T280 270L185 332Q166 344 147 361T113 399T87 447T77 504Q77 540 90 571T130 625T194 662T281 676Q304 676 329 672T374 663Q384 660 393 659T409 657Q412 648 415 634T421 603T425 569T427 535Q424 530 415 529T402 532Q397 550 389 570T365 606T326 634T266 645Q229 645 206 634T170 607T152 571T147 534Q147 512 155 494T175 460T203 432T232 411L312 361Q336 346 358 328T398 286T426 234T437 169Z"  />
<glyph unicode="T" horiz-adv-x="660" d="M368 150Q368 111 369 87T376 50T394 32T428 25L460 22Q465 19 464 9T458 -3Q415 -1 386 -1T327 0Q297 0 267 0T188 -3Q183 -1 183 8T188 22L224 25Q245 27 257 32T276 50T284 87T286 150V597Q286 620 282 624T256 629H201Q185 629 167 629T133 626T102 618T78 604Q60 587 51 571T33 535Q27 530 19 533T7 542Q13 559 18 578T29 618T38 657T45 691Q47 693 54 693T64 691Q69 667 91 664T149 660H554Q574 660 586 660T607 664T621 672T632 688Q636 690 642 689T650 685Q646 670 643 649T637 605T635 564T635 533Q632 527 623 527T609 531Q608 540 606 551T601 572T594 591T584 604Q550 629 468 629H397Q386 629 380 629T372 625T369 614T368 595V150Z"  />
<glyph unicode="U" horiz-adv-x="746" d="M605 409Q605 432 605 463T602 524T596 580T586 616Q576 634 536 637L511 639Q506 644 507 652T513 663Q570 660 627 660Q659 660 682 660T732 663Q738 659 738 652T734 639L710 637Q670 634 660 613Q655 601 652 576T648 520T646 460T646 409V296Q646 263 643 230T632 166T611 107T576 57Q544 22 493 3T385 -16Q333 -16 284 -5T198 39Q158 72 139 128T120 275V511Q120 550 119 574T112 611T94 630T60 637L35 639Q30 642 31 651T37 663Q75 661 103 661T161 660Q192 660 219 660T284 663Q289 661 290 652T286 639L262 637Q240 635 228 630T210 612T203 574T202 511V295Q202 235 212 186T246 101T309 47T405 28Q459 28 497 48T559 104T594 188T605 294V409Z"  />
<glyph unicode="V" horiz-adv-x="676" d="M100 554Q83 596 67 614T19 636L1 638Q-4 643 -4 651T3 663Q25 661 50 661T107 660Q140 660 168 660T228 663Q233 660 234 652T230 638L215 636Q186 632 178 628T168 617Q170 609 182 572T218 477Q253 389 287 304T360 132Q372 157 385 187T411 247T435 306T456 354Q467 379 480 411T507 475T531 534T549 578Q555 594 556 603T558 617Q558 622 549 627T513 636L495 638Q490 643 491 651T497 663Q518 661 545 661T601 660Q648 660 698 663Q703 660 703 651T700 638L670 636Q652 634 640 626T618 601Q597 566 569 507T506 371L452 248Q437 213 422 176T392 103T366 38T348 -13Q343 -16 337 -16Q329 -16 322 -13Q314 19 302 53T276 120L100 554Z"  />
<glyph unicode="W" horiz-adv-x="960" d="M-3 639Q-8 644 -7 652T0 663Q20 661 50 661T103 660Q113 660 127 660T157 660T188 661T217 663Q224 661 224 653T219 639L196 637Q163 634 163 620Q163 611 177 576T215 486Q257 392 300 299T388 113Q406 151 425 192T465 275Q472 289 476 300T481 316Q481 323 473 342Q447 402 420 462T363 582Q352 605 339 620T299 637L275 639Q270 645 270 652T277 663Q299 661 326 661T384 660Q459 660 494 663Q499 661 500 653T496 639L470 637Q455 636 448 634T438 625T439 609T449 582Q465 545 485 500T526 408Q540 437 554 467T585 539Q598 571 604 590T610 619T603 632T584 637L554 639Q549 647 550 654T556 663Q596 660 650 660Q675 660 702 660T746 663Q751 661 752 653T748 639L719 637Q703 636 692 628T671 607T653 579T637 548Q629 534 618 513T596 468T575 424T559 389Q555 381 553 375T550 365Q550 358 557 341Q583 283 608 227T659 113Q682 166 704 218T749 324Q756 342 768 373T793 435T816 491T829 523Q839 550 849 577T859 614Q859 635 826 637L797 639Q791 646 791 653T798 663Q827 661 849 661T894 660Q923 660 945 660T987 663Q993 661 993 653T989 639L970 637Q951 635 939 627T914 600T888 548T851 463L778 294Q745 217 715 143T653 -13Q648 -16 641 -16Q633 -16 627 -13Q615 20 599 59T566 136T534 209T506 271Q492 244 475 208T441 133T408 56T381 -13Q376 -16 369 -16Q361 -16 354 -13Q348 3 338 26T318 72T299 116T285 148Q237 253 190 356T94 565Q80 596 66 615T21 637L-3 639Z"  />
<glyph unicode="X" horiz-adv-x="643" d="M666 22Q671 17 671 9T665 -3Q630 -1 600 -1T539 0Q505 0 471 0T410 -3Q405 2 405 9T408 22L437 25Q471 28 471 38Q471 43 468 52T449 82Q433 105 415 131T378 184T341 236T306 283Q296 270 279 245T241 190T200 128T165 70Q152 47 152 38Q152 28 181 25L208 22Q213 17 213 9T207 -3Q180 -1 153 -1T99 0Q73 0 47 0T-4 -3Q-11 0 -11 8T-7 22L18 25Q38 27 55 35T86 56T113 84T137 114Q141 120 155 138T189 181T230 237T273 298Q282 311 282 318Q282 324 270 341L120 556Q95 591 77 608T33 631L1 638Q-3 643 -3 652T3 663Q38 661 65 661T119 660Q148 660 179 660T232 663Q237 661 238 652T234 638L206 636Q192 635 184 632T176 623Q176 611 206 568Q218 550 234 526T268 476T303 426T334 385Q344 397 363 426T404 487T443 549T468 589Q474 599 478 608T482 622Q482 626 473 629T449 635L423 638Q418 643 418 651T425 663Q451 661 476 661T531 660Q559 660 581 660T627 663Q632 659 633 651T629 638L605 636Q582 634 556 612T498 551Q469 513 437 469T368 374Q358 359 358 355Q358 353 360 347T371 329L540 91Q566 56 587 42T631 25L666 22Z"  />
<glyph unicode="Y" horiz-adv-x="574" d="M336 152Q336 112 338 88T346 50T364 31T396 25L434 22Q439 17 438 8T432 -3Q409 -2 391 -2T356 -1T326 0T296 0Q264 0 235 0T165 -3Q160 -1 159 8T163 22L194 25Q216 27 228 32T246 50T253 88T254 152V203Q254 224 253 238T249 264T240 291T222 327L104 557Q91 582 82 596T63 617T45 628T25 633L-3 638Q-8 643 -7 651T-1 663Q23 661 51 661T115 660Q184 660 222 663Q229 661 229 652T225 638L212 636Q186 632 178 628T170 618Q170 614 174 603T183 580T194 556T201 541Q229 485 257 428T314 319Q337 359 361 401T408 488Q418 507 429 528T451 569T467 601T473 620Q473 625 461 629T431 636L413 638Q408 643 408 651T415 663Q442 661 465 661T511 660Q534 660 556 660T604 663Q610 659 610 651T606 638L578 633Q558 630 542 617T511 583T481 535T446 475L383 366Q366 337 357 319T343 285T337 251T336 204V152Z"  />
<glyph unicode="Z" horiz-adv-x="641" d="M352 452Q391 508 414 539T449 594Q454 603 457 609T461 621Q461 625 453 627T425 629H276Q216 629 181 623T127 596Q111 579 100 560T83 528Q76 525 69 527T58 535Q67 561 78 602T99 685Q107 691 116 685Q117 676 121 671T136 664T166 661T215 660H479Q533 660 559 660T594 663Q600 661 600 654Q590 645 571 621T528 567T480 502T436 440L271 202Q267 196 251 173T218 124T186 76T172 47Q172 39 179 37T200 33Q220 31 257 31T348 31Q372 31 398 31T450 34T497 41T533 54Q555 66 572 91T603 146Q610 148 618 147T628 139Q625 122 620 101T608 60T596 23T583 -3Q541 -1 498 -1T401 0H144Q104 0 77 -1T32 -3Q27 -1 27 9Q35 16 48 32T77 67T108 107T136 145L352 452Z"  />
<glyph unicode="[" horiz-adv-x="320" d="M117 686H186Q214 686 241 685T296 683Q301 680 301 673T297 661L208 651Q198 650 193 648T183 641Q179 637 177 623T173 587T171 539T170 485V51Q170 23 170 -3T172 -50T176 -86T183 -105Q188 -110 193 -112T208 -115L297 -125Q302 -130 302 -137T296 -147Q268 -148 241 -149T186 -150H117V686Z"  />
<glyph unicode="\" horiz-adv-x="309" d="M279 -16H221L30 686H88L279 -16Z"  />
<glyph unicode="]" horiz-adv-x="320" d="M203 -150H134Q106 -150 79 -149T24 -147Q19 -144 19 -137T23 -125L112 -115Q122 -114 127 -112T137 -105Q141 -101 143 -87T147 -51T149 -3T150 51V485Q150 513 150 539T148 586T144 622T137 641Q132 646 127 648T112 651L23 661Q18 666 18 673T24 683Q52 684 79 685T134 686H203V-150Z"  />
<glyph unicode="^" horiz-adv-x="500" d="M388 244L250 555L112 244H49L226 626H274L450 244H388Z"  />
<glyph unicode="_" horiz-adv-x="500" d="M500 -125H0V-75H500V-125Z"  />
<glyph unicode="`" horiz-adv-x="360" d="M218 479Q218 472 210 469T197 467L80 594Q63 612 63 624Q63 633 82 649Q103 663 116 663Q124 663 129 657T139 640L218 479Z"  />
<glyph unicode="a" horiz-adv-x="404" d="M237 207Q248 211 251 218T254 236L255 282Q255 296 253 311T242 339T220 360T182 369Q161 369 141 358T118 324Q117 312 116 304T108 290Q97 281 80 276T51 271Q37 271 37 285Q37 304 56 326T103 366T163 396T223 408Q277 408 303 378T327 291L321 117Q319 82 328 56T367 30Q375 30 381 32T392 36Q396 38 399 40T405 43Q412 43 412 30Q412 28 406 21T389 6T362 -8T328 -14Q310 -14 293 -7T263 17Q260 22 256 26T247 31Q242 31 233 25T208 11Q191 2 174 -6T136 -14Q92 -14 66 9Q52 22 44 40T35 79Q35 108 52 127T118 164L237 207ZM112 91Q112 85 114 75T124 55T143 38T175 31Q190 31 209 39T236 56Q245 65 246 76T249 103L251 162Q251 170 249 172T241 175Q236 175 225 173T200 165Q155 150 134 135T112 91Z"  />
<glyph unicode="b" horiz-adv-x="500" d="M75 564Q75 586 75 599T71 621T62 634T44 647L34 653Q30 655 30 663T34 673Q43 676 55 680T83 690T113 701T143 715Q150 715 153 709Q151 683 150 651T149 585V396Q149 383 151 379T159 375Q179 386 208 397T274 408Q317 408 352 393T412 352T451 289T465 212Q465 162 448 121T401 49T328 3T235 -14Q207 -14 186 -10T150 -1Q134 4 124 8T108 12Q102 12 97 7T87 -3Q86 -4 83 -4Q76 -4 73 2Q74 13 74 30T75 87V564ZM149 136Q149 110 155 88T174 49Q201 16 250 16Q285 16 310 30T350 67T373 120T381 182Q381 221 371 254T342 312T295 351T229 365Q206 365 189 361T161 349Q153 344 151 333T149 292V136Z"  />
<glyph unicode="c" horiz-adv-x="400" d="M278 408Q295 408 321 404T367 391Q373 386 377 375T382 351Q382 337 376 326T360 314Q352 314 346 321Q329 341 303 357T246 374Q220 374 195 364T151 333T120 283T108 213Q108 184 118 154T148 98T199 58T269 42Q313 42 338 59T380 102Q386 104 391 100T398 88Q385 60 366 41T324 9T277 -8T231 -14Q191 -14 156 -2T94 37Q68 63 52 99T36 185Q36 225 50 265T95 337T170 388T278 408Z"  />
<glyph unicode="d" horiz-adv-x="509" d="M424 146Q424 86 428 58T453 30Q461 30 473 33T496 40Q501 38 501 25T495 8Q479 6 461 2T424 -6T390 -15T363 -24Q352 -24 352 -16V1Q352 12 352 20T350 32H346Q313 9 285 -2T220 -14Q178 -14 144 1T86 42T49 104T35 178Q35 230 53 272T105 345T182 391T277 408Q303 408 319 405T344 399Q350 399 350 413V564Q350 586 350 599T346 621T337 634T319 647L309 653Q305 655 305 663T309 673Q328 679 359 690T417 715Q424 715 427 709Q426 686 425 652T424 585V146ZM350 296Q350 311 347 319T339 335Q328 351 306 364T255 377Q221 377 195 364T152 327T126 274T117 211Q117 177 126 145T154 89T201 49T266 34Q286 34 308 42T343 62Q348 67 349 77T350 99V296Z"  />
<glyph unicode="e" horiz-adv-x="396" d="M130 256Q110 256 107 252T103 229Q103 191 114 157T146 98T198 57T269 42Q294 42 316 52T361 91Q369 93 373 90T379 79Q367 53 348 36T308 7T264 -9T222 -14Q173 -14 136 4T77 52Q54 81 45 115T35 182Q35 228 49 269T90 341T154 390T236 408Q268 408 294 398T339 371T368 333T378 289Q378 278 377 272T374 263Q372 258 360 257T315 256H130ZM192 286Q247 286 268 288T296 296Q298 298 300 301T302 315Q302 325 298 336T285 357T262 372T225 378Q203 378 183 369T148 347T124 319T114 291Q114 289 115 288T121 286H192Z"  />
<glyph unicode="f" horiz-adv-x="290" d="M186 352Q173 352 171 348T169 323V112Q169 85 170 69T174 43T185 30T207 25L243 22Q248 18 247 9T241 -3Q207 -1 183 -1T132 0Q105 0 82 0T36 -3Q31 -1 30 8T34 22L57 25Q71 27 78 30T90 43T94 68T95 112V323Q95 343 93 347T75 352H40Q35 355 35 360T37 371L80 392Q86 395 90 399T95 412Q95 456 101 501T126 588Q135 609 150 631T188 672T239 703T306 715Q346 715 375 699T404 655Q404 640 392 630T366 619Q352 619 342 631Q328 648 308 661T262 675Q214 675 191 620Q184 603 180 582T174 537T170 492T169 451V422Q169 402 171 398T186 394H300Q304 390 305 384T305 371T300 359T293 352H186Z"  />
<glyph unicode="g" horiz-adv-x="446" d="M446 372Q450 370 451 364T453 350T449 338T440 331H368Q370 318 370 306T370 280Q370 254 362 226T334 175T282 136T202 121Q188 121 178 122T158 124Q153 121 146 117T132 105T119 89T114 69Q114 52 131 40T184 27Q210 27 240 28T303 30Q324 30 348 27T394 13T429 -21T443 -80Q443 -121 423 -155T368 -215T288 -255T194 -269Q148 -269 116 -258T65 -230T37 -193T28 -153Q28 -129 39 -116Q52 -102 71 -84T107 -49Q114 -42 118 -36T115 -25Q86 -17 64 5T42 54Q42 60 57 71Q70 79 83 91T110 117Q114 122 117 127T120 136Q107 143 94 153T70 179T52 213T45 257Q45 289 58 316T93 364T145 396T208 408Q237 408 262 402T304 388Q316 383 324 380T338 375T351 373T365 372H446ZM237 -32Q213 -32 188 -34T151 -43Q133 -54 118 -76T103 -127Q103 -168 136 -197T237 -226Q270 -226 297 -218T344 -194T374 -160T385 -119Q385 -73 355 -53T271 -32H237ZM217 150Q258 150 278 179T299 254Q299 279 294 302T277 342T250 369T210 379Q174 379 150 349T126 267Q126 240 133 219T153 182T182 159T217 150Z"  />
<glyph unicode="h" horiz-adv-x="515" d="M88 564Q88 586 88 599T84 621T75 634T57 647L47 653Q43 655 43 663T47 673Q66 679 97 690T155 715Q162 715 165 709Q164 686 163 652T162 585V375Q162 359 166 356Q193 377 228 392T301 408Q337 408 361 398T401 370T423 329T430 279V112Q430 85 431 69T435 43T446 30T468 25L495 22Q500 18 499 9T493 -3Q466 -1 443 -1T393 0Q340 0 300 -3Q295 -1 294 8T298 22L318 25Q332 27 339 31T351 44T355 69T356 112V255Q356 303 333 332T261 362Q235 362 216 354T183 335Q169 324 166 315T162 280V112Q162 85 163 69T167 43T178 31T200 25L221 22Q226 19 225 9T219 -3Q196 -1 174 -1T125 0Q98 0 75 0T27 -3Q22 -1 21 8T25 22L50 25Q64 26 71 30T83 43T87 68T88 112V564Z"  />
<glyph unicode="i" horiz-adv-x="257" d="M98 287Q98 302 98 311T95 326T87 337T71 349L62 355Q59 358 59 364T63 373Q72 376 85 382T114 395T143 409T166 422Q174 422 176 416Q174 390 173 357T172 292V112Q172 85 173 69T177 43T188 31T210 25L231 22Q236 18 235 9T229 -3Q206 -1 184 -1T135 0Q83 0 41 -3Q36 -1 35 8T39 22L60 25Q74 27 81 30T93 43T97 68T98 112V287ZM131 624Q154 624 167 609T181 572Q181 545 165 533T128 520Q105 520 91 535T77 570Q77 595 92 609T131 624Z"  />
<glyph unicode="j" horiz-adv-x="253" d="M100 287Q100 302 100 311T97 326T89 337T73 349L64 355Q61 358 61 364T65 373Q74 376 87 382T116 395T145 409T168 422Q176 422 178 416Q176 390 175 357T174 292V50Q174 -4 169 -42T153 -106Q130 -160 92 -198T1 -269Q-8 -267 -12 -261T-13 -246Q7 -236 21 -225T46 -201Q73 -169 86 -113T100 35V287ZM133 624Q156 624 169 609T183 572Q183 546 167 533T130 520Q107 520 93 535T79 571Q79 596 94 610T133 624Z"  />
<glyph unicode="k" horiz-adv-x="482" d="M88 564Q88 586 88 599T84 621T75 634T57 647L47 653Q43 655 43 663T47 673Q66 679 97 690T155 715Q162 715 165 709Q164 686 163 652T162 585V242Q162 232 164 230T180 227Q197 227 212 236T248 266L289 310Q310 333 317 342T324 356Q324 360 320 362T302 366L278 369Q271 371 271 381T278 394H301Q334 394 376 395T460 402Q465 400 466 391T462 377L430 371Q415 368 401 360T367 336Q338 313 314 289T276 252Q267 244 266 239T269 228Q282 211 296 194T336 148Q365 115 390 88T430 46Q441 36 454 31T482 24L496 22Q501 18 501 9T494 -3Q472 -1 448 -1T399 0Q338 0 295 -3Q289 0 289 9T293 22L311 25Q336 28 336 35Q336 40 333 46T319 63L212 187Q199 201 181 201Q167 201 165 196T162 167V112Q162 85 163 69T167 43T178 31T200 25L224 22Q229 18 228 9T222 -3Q197 -1 174 -1T125 0Q98 0 75 0T29 -3Q24 -1 23 8T28 22L50 25Q64 27 71 30T83 43T87 68T88 112V564Z"  />
<glyph unicode="l" horiz-adv-x="247" d="M162 112Q162 85 163 69T167 43T178 31T200 25L224 22Q229 18 228 9T222 -3Q197 -1 174 -1T125 0Q98 0 75 0T29 -3Q24 -1 23 8T27 22L50 25Q64 27 71 30T83 43T87 68T88 112V564Q88 586 88 599T84 621T75 634T57 647L47 653Q43 655 43 663T47 673Q66 679 97 690T155 715Q162 715 165 709Q164 686 163 652T162 585V112Z"  />
<glyph unicode="m" horiz-adv-x="787" d="M628 257Q628 360 535 360Q506 360 485 350T452 325Q443 314 440 303T437 265V112Q437 85 438 69T442 43T453 31T475 25L496 22Q501 18 500 9T494 -3Q471 -1 449 -1T400 0Q373 0 352 0T309 -3Q304 -1 303 8T307 22L325 25Q339 27 346 31T358 44T362 69T363 112V257Q363 360 271 360Q240 360 219 349T187 324Q179 315 176 303T172 267V112Q172 85 173 69T177 44T188 31T210 25L228 22Q233 18 232 9T226 -3Q185 0 135 0Q108 0 85 0T38 -3Q33 -1 32 8T36 22L60 25Q74 27 81 30T93 43T97 68T98 112V287Q98 302 98 311T95 326T87 337T71 349L62 355Q59 358 59 364T63 373Q72 376 85 382T114 395T142 409T163 422Q171 422 174 415Q172 398 172 387T172 368Q172 357 183 357Q212 377 246 392T316 408Q354 408 377 394T422 349Q429 347 434 349T447 357Q477 378 512 393T583 408Q643 408 672 372T702 284V112Q702 85 703 69T707 43T718 31T740 25L764 22Q769 18 768 9T762 -3Q737 -1 714 -1T665 0Q638 0 617 0T574 -3Q569 -1 568 8T572 22L590 25Q604 27 611 31T623 44T627 69T628 112V257Z"  />
<glyph unicode="n" horiz-adv-x="525" d="M98 287Q98 302 98 311T95 326T87 337T71 349L62 355Q59 358 59 364T63 373Q72 376 85 382T114 395T142 409T163 422Q171 422 174 415Q172 398 172 387T172 368Q172 357 183 357Q215 377 250 392T323 408Q354 408 376 398T412 371T433 332T440 284V112Q440 85 441 69T445 43T456 31T478 25L500 22Q505 18 504 9T498 -3Q475 -1 453 -1T404 0Q351 0 311 -3Q306 -1 305 8T309 22L328 25Q342 27 349 31T361 44T365 69T366 112V261Q366 304 345 332T272 360Q243 360 221 350T187 325Q177 312 175 300T172 265V112Q172 85 173 69T177 44T188 31T210 25L228 22Q233 18 232 9T226 -3Q185 0 135 0Q83 0 41 -3Q36 -1 35 8T39 22L60 25Q74 27 81 30T93 43T97 68T98 112V287Z"  />
<glyph unicode="o" horiz-adv-x="486" d="M248 408Q290 408 327 393T391 351T435 285T451 201Q451 154 436 115T393 47T326 2T240 -14Q197 -14 160 0T95 42T51 107T35 192Q35 239 51 279T97 347T165 392T248 408ZM365 185Q365 217 358 251T336 313T297 360T236 378Q186 378 154 333T121 205Q121 171 129 137T152 76T192 33T250 16Q283 16 305 31T340 71T359 126T365 185Z"  />
<glyph unicode="p" horiz-adv-x="507" d="M85 287Q85 302 85 311T82 326T74 337T58 349L49 355Q46 358 46 364T50 373Q70 381 99 397T149 427Q158 427 161 420Q159 406 158 395T157 374Q157 361 166 361Q171 363 184 370T217 386T259 401T306 408Q344 408 374 394T427 355T460 297T472 225Q472 173 454 129T404 54T326 4T228 -14Q214 -14 197 -13T173 -10Q166 -12 163 -17T159 -38V-143Q159 -170 160 -185T164 -210T175 -222T197 -228L236 -233Q241 -237 240 -246T234 -258Q198 -256 173 -256T122 -255Q70 -255 28 -258Q23 -256 22 -247T26 -233L47 -230Q61 -228 68 -225T80 -212T84 -187T85 -143V287ZM159 101Q159 77 166 65T189 41Q204 30 224 25T261 19Q292 19 316 32T356 70T382 127T391 199Q391 229 383 258T357 309T315 346T256 360Q224 360 202 351T171 332Q164 324 162 311T159 273V101Z"  />
<glyph unicode="q" horiz-adv-x="497" d="M423 -143Q423 -170 424 -186T429 -210T440 -222T461 -228L490 -233Q495 -237 494 -246T488 -258Q459 -256 436 -256T386 -255Q359 -255 335 -255T282 -258Q277 -256 276 -247T280 -233L311 -230Q325 -229 332 -225T344 -212T348 -187T349 -143V-13Q349 1 348 6T340 11Q320 0 294 -7T238 -14Q182 -14 144 5T81 54T46 118T35 182Q35 236 54 278T107 349T183 393T275 408Q300 408 323 405T358 398Q369 395 377 393T393 391Q399 391 405 395T420 408Q427 408 431 399Q426 381 425 354T423 278V-143ZM349 231Q349 307 336 331Q325 350 304 363T250 377Q221 377 197 365T156 331T129 279T119 214Q119 173 130 139T163 79T213 40T277 26Q310 26 324 31T342 42Q349 50 349 82V231Z"  />
<glyph unicode="r" horiz-adv-x="332" d="M98 287Q98 302 98 311T95 326T87 337T71 349L62 355Q59 358 59 364T63 373Q72 376 85 382T112 395T141 409T164 422Q172 420 172 415V357Q172 349 175 348Q201 370 229 389T285 408Q304 408 317 397T330 368Q330 343 315 333T287 322Q279 322 275 324T265 329Q241 345 221 345Q209 345 200 339T185 325Q177 314 175 294T172 248V112Q172 85 173 69T178 43T190 30T212 25L248 22Q253 18 252 9T246 -3Q211 -1 186 -1T135 0Q82 0 43 -3Q38 -1 37 8T41 22L60 25Q74 27 81 31T93 44T97 69T98 112V287Z"  />
<glyph unicode="s" horiz-adv-x="323" d="M186 408Q218 408 242 402T274 390Q281 373 285 351T290 309Q287 304 279 303T266 306Q253 339 231 359T178 379Q149 379 132 362T114 318Q114 303 121 291T139 269T164 251T191 235Q211 224 229 212T262 183T284 147T293 100Q293 71 281 50T249 15T203 -7T149 -14Q79 -14 42 16Q39 23 37 35T33 61T30 90T30 117Q34 122 41 122T53 118Q59 97 68 79T91 46T121 24T159 15Q186 15 206 31T226 79Q226 96 219 109T201 134T177 154T149 171Q105 196 78 224T50 294Q50 321 60 342T89 378T132 400T186 408Z"  />
<glyph unicode="t" horiz-adv-x="307" d="M180 352Q167 352 165 348T162 328V141Q162 119 164 99T173 64T195 39T235 30Q249 30 262 35Q269 37 277 43T287 49Q293 49 296 43T297 32Q283 16 257 1T192 -14Q160 -14 140 -6T108 17T92 51T88 94V323Q88 343 85 347T67 352H39Q34 355 34 361T36 373Q58 380 75 388T100 404Q110 413 122 430T142 463Q146 465 153 464T163 458V413Q163 399 165 397T181 394H292Q301 387 301 372T293 352H180Z"  />
<glyph unicode="u" horiz-adv-x="512" d="M159 147Q159 121 163 100T177 64T205 41T252 32Q272 32 294 40T333 62Q343 71 348 84T353 120V284Q353 308 352 322T346 343T335 354T316 363L303 368Q298 371 298 379T304 390Q319 390 336 391T369 395T399 401T421 408Q429 406 430 401Q427 372 427 314V146Q427 86 432 62T458 37Q474 37 497 42Q502 38 502 27T496 13Q481 10 464 7T429 -1T395 -11T365 -24Q356 -24 353 -17V24Q353 38 344 38Q333 31 318 22T286 5T248 -8T206 -14Q140 -14 113 18T85 111V278Q85 302 85 316T81 339T72 353T55 363L43 368Q38 372 39 380T45 390Q80 391 107 396T152 408Q161 407 162 401Q160 388 160 370T159 314V147Z"  />
<glyph unicode="v" horiz-adv-x="432" d="M82 295Q71 323 60 344T22 369L2 372Q-3 378 -2 386T5 397Q24 395 48 395T99 394Q119 394 136 394T180 397Q185 394 185 385T181 372L169 370Q146 366 143 360T147 330Q164 278 184 228T222 139Q235 110 238 107Q244 112 257 145Q262 158 270 179T286 221T302 262T314 292Q325 318 328 333T332 354Q332 366 314 369L291 372Q286 377 287 385T293 397Q339 394 368 394Q387 394 402 394T438 397Q443 394 444 386T440 372L425 370Q412 368 403 362T387 346T371 320T352 283Q347 273 334 244T307 182T279 117T260 70Q252 51 245 33T227 -12Q224 -16 217 -16Q208 -16 204 -12Q198 9 188 36T166 92L82 295Z"  />
<glyph unicode="w" horiz-adv-x="660" d="M75 297Q66 318 59 331T46 351T32 363T15 369L-1 373Q-5 377 -5 385T2 397Q48 394 91 394Q137 394 178 397Q184 394 184 386T180 373L157 369Q135 366 135 355Q135 350 139 337T151 303L213 150Q220 133 225 121T231 107Q235 110 254 155L303 276Q313 300 314 312T312 334Q305 351 294 358T266 369L250 373Q245 378 246 386T253 397Q272 395 294 395T336 394Q380 394 431 397Q438 395 438 386T434 373L413 369Q398 366 391 364T381 357T380 344T387 323Q391 311 402 284T425 228T448 172T463 136Q468 125 471 118T476 108Q479 111 490 136Q495 147 504 170T523 219T542 271T558 313Q564 330 566 340T568 356Q568 366 550 369L525 373Q519 377 520 386T526 397Q569 394 605 394Q619 394 636 394T670 397Q676 394 677 386T673 373L653 369Q635 365 625 352T599 306Q589 285 576 254T549 191T524 128T505 79Q494 52 486 30T471 -12Q466 -16 458 -16Q451 -16 447 -12Q445 -5 441 7T431 35T419 66T406 98L358 213Q355 220 352 228T345 245T338 258T335 264Q335 264 333 259T327 247T320 231T313 215L261 90Q247 58 237 32T221 -12Q217 -16 209 -16Q201 -16 197 -12Q192 4 183 29T167 71L75 297Z"  />
<glyph unicode="x" horiz-adv-x="432" d="M87 326Q76 343 62 354T27 369L11 372Q6 376 7 385T13 397Q42 395 61 395T100 394Q118 394 137 394T185 397Q190 394 190 385T186 372L171 369Q151 365 150 359T162 334L210 264Q213 259 217 254T223 247Q224 248 230 257T245 278T263 305T281 332Q294 352 292 358T273 369L261 372Q256 377 257 386T265 397Q282 395 301 395T338 394Q355 394 376 394T411 397Q417 394 417 385T413 372L398 369Q380 365 368 362T348 352Q335 341 310 310T254 238Q245 226 245 221T255 201L348 70Q365 46 379 36T414 23L430 22Q435 17 434 8T428 -3Q372 0 329 0Q301 0 280 0T234 -3Q228 -1 227 8T231 22L260 25Q282 27 284 34T277 55L225 130Q208 155 203 159Q201 157 196 150T185 135L143 69Q128 45 128 37T146 25L163 22Q168 18 167 9T161 -3Q123 0 87 0Q68 0 51 0T14 -3Q8 0 8 9T12 22L35 26Q49 28 60 35T85 56Q93 64 104 79T128 112T153 145T174 173Q181 181 182 186T177 199L87 326Z"  />
<glyph unicode="y" horiz-adv-x="438" d="M68 -249Q46 -249 35 -237T24 -206Q24 -186 35 -176T64 -166H83Q105 -166 116 -148Q138 -114 152 -85T174 -37Q176 -31 180 -18T184 6Q184 21 181 34T167 75L89 289Q83 307 78 320T66 343T52 358T30 367L5 372Q0 376 1 385T8 397Q56 394 103 394Q142 394 190 397Q196 395 196 386T192 372L167 367Q145 362 145 354Q145 349 148 337T157 309T167 280T174 260L206 168Q208 162 212 151T221 128T229 107T235 97Q237 99 247 119T272 171L306 250Q323 289 332 315T341 350Q341 355 336 360T317 367L286 372Q281 376 281 385T288 397Q336 394 376 394Q395 394 413 394T452 397Q458 394 458 386T454 372L437 369Q425 367 415 360T395 341T375 309T352 263L296 148Q284 123 264 81T220 -11T174 -110T132 -202Q119 -231 102 -240T68 -249Z"  />
<glyph unicode="z" horiz-adv-x="377" d="M136 0Q95 0 68 0T31 -3Q25 0 25 7Q32 16 44 33T69 70T96 112T121 154L227 334Q239 355 236 359T218 364H149Q126 364 109 361T80 349Q67 339 59 324T44 291Q40 286 32 287T21 295Q22 305 25 321T33 354T43 387T54 412Q60 416 66 412Q67 406 70 402T81 397T102 395T137 394H279Q299 394 314 394T340 397Q346 394 345 387Q314 344 271 273L150 70Q134 43 137 37T169 30H203Q218 30 234 30T266 34T296 43T321 60Q329 69 337 84T353 118Q358 121 365 120T375 112Q368 75 358 43T338 -3Q313 -1 287 -1T226 0H136Z"  />
<glyph unicode="{" horiz-adv-x="320" d="M216 375Q216 332 198 306T141 270V266Q180 256 198 230T216 161Q216 135 213 110T207 58Q204 32 201 8T197 -42Q197 -57 199 -72T211 -100T236 -123T281 -138Q285 -141 285 -147T281 -158Q263 -158 239 -155T192 -139T155 -101T139 -32Q139 -6 141 21T147 75Q150 101 152 126T154 174Q154 187 152 200T142 226T116 246T67 257Q58 268 67 279Q98 281 115 289T141 310T152 335T154 362Q154 385 152 410T147 462Q145 488 142 515T139 568Q139 612 154 637T192 675T238 691T281 694Q285 690 285 684T281 674Q253 669 237 659T211 636T200 608T197 578Q197 554 200 529T207 478Q211 452 213 427T216 375Z"  />
<glyph unicode="|" horiz-adv-x="239" d="M149 -250H90V750H149V-250Z"  />
<glyph unicode="}" horiz-adv-x="320" d="M104 375Q104 401 106 426T113 478Q117 504 120 529T123 578Q123 593 121 608T109 636T84 659T39 674Q35 678 35 684T39 694Q57 694 81 691T128 675T165 637T181 568Q181 542 178 515T173 462Q171 435 169 410T166 362Q166 349 168 336T178 310T204 290T253 279Q262 268 253 257Q222 255 205 247T179 226T168 201T166 174Q166 151 168 126T173 75Q176 48 178 21T181 -32Q181 -76 166 -101T128 -139T82 -155T39 -158Q35 -154 35 -148T39 -138Q67 -134 83 -124T109 -100T120 -72T123 -42Q123 -17 120 7T113 58Q110 84 107 109T104 161Q104 204 122 230T179 266V270Q140 280 122 306T104 375Z"  />
<glyph unicode="~" horiz-adv-x="500" d="M198 180Q178 180 166 177T144 167T126 147T109 115Q99 111 89 114T76 129Q78 135 83 145T94 167T107 190T121 209Q134 222 148 226T178 230H302Q321 230 334 233T356 243T374 263T391 295Q401 299 411 296T424 281Q422 275 418 265T407 242T394 218T378 199Q365 188 352 184T322 180H198Z"  />
<glyph unicode="&#xA0;" horiz-adv-x="250" />
<glyph unicode="&#xA1;" horiz-adv-x="220" d="M110 -266Q86 -266 74 -261T61 -237Q61 -226 62 -207T68 -148L97 175Q102 180 110 180T123 175L152 -148Q156 -188 157 -207T159 -237Q159 -256 147 -261T110 -266ZM110 280Q88 280 71 294T54 335Q54 361 70 377T110 394Q136 394 151 377T166 335Q166 311 151 296T110 280Z"  />
<glyph unicode="&#xA2;" horiz-adv-x="500" d="M274 157Q283 155 293 154T314 153Q336 153 353 158T384 171T409 189T429 209Q436 211 441 207T445 197Q414 146 370 126T268 106L256 4Q249 0 239 0T223 4L236 109Q200 113 169 128T114 169T78 228T65 305Q65 355 82 394T130 462T200 506T286 526L296 612Q303 616 312 616T329 612L319 528Q339 528 359 525T399 517Q421 498 421 466Q421 451 417 441T409 431Q403 431 395 440Q383 454 363 468T314 490L274 157ZM282 493Q251 493 224 483T177 453T146 403T134 337Q134 313 140 288T160 239T193 197T243 166L282 493Z"  />
<glyph unicode="&#xA3;" horiz-adv-x="500" d="M115 333Q126 333 128 334T129 342Q128 355 128 368T128 401Q128 453 143 496T187 572T255 622T341 640Q358 640 373 636T397 625Q408 615 408 602Q408 587 398 574T379 560Q374 560 364 567Q346 581 330 589T296 598Q279 598 262 590T232 564T210 520T202 458Q202 431 204 407T209 348Q210 338 213 336T229 333H376Q383 328 383 317T376 301H230Q217 301 213 299T209 287Q209 248 202 217T182 162T152 117T114 80L115 78Q126 80 144 81T195 77Q212 75 235 66T283 46Q308 35 331 28T375 20Q391 20 400 26T412 42T416 65T414 92Q411 110 418 118T438 127Q454 127 464 114T474 82Q474 63 462 43T428 7T379 -19T317 -30Q294 -30 270 -21T208 9Q182 23 155 34T105 46Q83 46 77 35T71 13Q71 8 67 3T56 -6T44 -12T33 -14Q15 -14 15 4Q15 19 29 36T63 69Q99 100 115 153T132 287Q132 295 130 298T116 301H34Q28 306 28 317T34 333H115Z"  />
<glyph unicode="&#xA4;" horiz-adv-x="500" d="M251 493Q219 493 190 480T140 444T105 391T92 325Q92 289 105 258T140 205T191 170T251 157Q282 157 311 170T362 205T397 258T410 325Q410 360 397 390T362 444T311 480T251 493ZM251 539Q321 539 376 499L417 550Q434 545 449 532T466 502L421 457Q443 431 455 397T467 325Q467 287 455 253T421 193L466 148Q464 132 449 119T417 100L376 151Q321 111 251 111Q181 111 126 151L85 100Q68 105 53 118T36 148L81 193Q59 219 47 253T35 325Q35 363 47 397T81 457L36 502Q38 518 53 531T85 550L126 499Q181 539 251 539Z"  />
<glyph unicode="&#xA5;" horiz-adv-x="500" d="M298 207V123Q298 94 299 76T304 46T317 30T341 24L378 20Q383 16 382 8T376 -3Q349 -1 318 -1T260 0Q237 0 206 0T148 -3Q143 -1 142 7T146 20L183 24Q199 26 207 31T220 46T225 75T226 123V207H74Q69 212 69 223T74 239H224V320H74Q69 325 69 336T74 352H210L108 525Q96 546 88 559T71 581T53 595T28 603L7 608Q3 612 3 619T10 629Q29 627 57 627T118 626Q151 626 172 626T213 629Q218 627 218 620T215 608L177 601Q157 597 157 586Q157 583 161 575T170 556T182 534T192 515L243 424Q255 402 264 385T276 368Q280 368 288 377T307 407L345 477Q354 495 363 512T380 545T392 570T397 583Q397 597 374 601L336 608Q331 612 332 619T339 629Q384 626 433 626Q470 626 508 629Q513 626 513 620T510 608L486 603Q463 598 445 573T402 505L313 352H449Q454 347 454 336T449 320H300V239H449Q454 234 454 223T449 207H298Z"  />
<glyph unicode="&#xA6;" horiz-adv-x="239" d="M149 325H90V675H149V325ZM149 -175H90V175H149V-175Z"  />
<glyph unicode="&#xA7;" horiz-adv-x="506" d="M185 -124Q150 -124 128 -110T105 -74Q105 -60 114 -49T140 -38Q149 -38 154 -40T165 -47Q192 -70 212 -76T250 -82Q261 -82 273 -78T296 -66T312 -47T319 -20Q319 2 305 27T271 77T226 126T180 172Q153 199 130 225T89 281T61 342T50 414Q50 459 71 505T129 590T214 652T316 676Q358 676 375 660T393 630Q393 619 384 609T360 598Q349 598 344 599T332 606Q309 622 288 628T250 635Q226 635 209 619T191 575Q191 556 198 539T221 500T265 452T333 388Q396 330 426 276T456 155Q456 109 436 60T380 -30T294 -97T185 -124ZM225 224Q262 186 287 157T329 102T352 51T359 -5Q389 22 398 51T407 111Q407 145 399 174T376 231T337 284T285 338Q245 376 219 405T178 459T157 509T151 565Q126 544 113 520T99 458Q99 441 102 420T117 370T154 305T225 224Z"  />
<glyph unicode="&#xA8;" horiz-adv-x="360" d="M93 512Q72 512 59 525T44 561Q43 583 57 598T93 613Q115 613 129 598T143 565Q143 542 129 527T93 512ZM268 512Q247 512 233 525T217 562Q217 583 231 598T268 613Q290 613 303 598T316 566Q316 543 303 528T268 512Z"  />
<glyph unicode="&#xA9;" horiz-adv-x="790" d="M280 334Q280 255 321 207T429 159Q473 159 503 185T552 254Q557 258 563 257T572 251Q571 241 569 228T562 202T554 176T545 155Q538 153 525 149T495 141T460 135T423 132Q367 132 326 149T258 193T218 256T205 328Q205 373 222 410T270 473T341 514T429 529Q450 529 469 527T504 521T532 516T550 513Q554 490 556 469T562 420Q559 415 552 414T541 417Q514 502 423 502Q387 502 361 489T316 453T289 399T280 334ZM395 -16Q320 -16 256 11T145 85T72 195T45 330Q45 402 71 465T144 575T255 649T395 676Q470 676 534 649T645 575T718 465T745 330Q745 258 719 195T646 85T535 11T395 -16ZM102 331Q102 266 124 210T186 113T279 47T395 23Q457 23 510 47T603 112T665 210T688 331Q688 395 666 451T604 548T511 613T395 637Q333 637 280 614T187 549T125 451T102 331Z"  />
<glyph unicode="&#xAA;" horiz-adv-x="332" d="M201 440Q201 453 200 466T193 488T177 504T148 510Q132 510 119 503T103 479Q102 474 101 466T94 453Q86 448 71 442T49 436Q35 436 35 449Q35 457 41 469T65 495Q85 511 116 525T180 540Q205 540 221 534T247 516T259 489T262 454L257 332Q256 308 262 292T291 276Q305 276 320 286Q326 286 328 282T328 272Q312 255 293 248T256 240Q245 240 234 244T210 260Q201 269 195 269Q189 269 179 263Q175 261 167 257T149 249T129 243T109 240Q69 240 51 261T33 310Q33 330 44 344T72 365Q107 379 135 388T179 403Q193 408 197 413T201 428V440ZM198 368Q199 382 191 382T163 374Q153 371 142 367T122 357T106 342T99 318Q99 306 108 291T144 275Q161 275 172 281T188 291Q196 301 196 316L198 368Z"  />
<glyph unicode="&#xAB;" horiz-adv-x="378" d="M118 218Q113 206 118 194L188 52Q184 42 171 39Q142 77 113 114T52 190Q39 206 52 221Q84 259 113 296T171 371Q184 369 188 358L118 218ZM263 218Q258 206 263 194L333 52Q329 42 316 39Q287 77 258 114T197 190Q184 206 197 221Q229 259 258 296T316 371Q329 369 333 358L263 218Z"  />
<glyph unicode="&#xAC;" horiz-adv-x="500" d="M408 256H33V305H467V50H408V256Z"  />
<glyph unicode="&#xAD;" horiz-adv-x="320" d="M273 247Q288 237 288 215Q288 200 280 190L47 168Q39 175 36 183T32 200Q32 215 40 225L273 247Z"  />
<glyph unicode="&#xAE;" horiz-adv-x="320" d="M118 578Q118 597 107 598H103Q101 601 101 604T104 609Q120 610 133 610T160 611Q168 611 177 610T193 605T205 595T210 577Q210 566 204 559T192 549Q189 548 192 542Q208 508 217 502Q224 497 226 496Q228 496 228 493T226 489Q221 488 212 488Q188 488 175 509Q171 515 168 521T161 534Q158 540 152 540Q146 540 146 535V521Q146 510 147 506T160 500L163 499Q165 498 165 494T163 489Q155 489 149 489T133 490Q125 490 118 490T104 489Q102 490 102 494T103 499L107 500Q115 502 116 505T118 521V578ZM146 559Q146 554 148 553T158 552Q170 552 174 559T178 572Q178 597 159 597Q150 597 148 596T146 589V559ZM160 676Q187 676 210 666T252 639T280 598T290 549Q290 523 280 500T252 459T211 432T160 422Q133 422 110 432T68 459T40 499T30 549Q30 575 40 598T68 638T109 666T160 676ZM160 654Q140 654 122 646T91 624T69 590T61 549Q61 527 69 508T90 475T122 452T160 444Q180 444 198 452T229 474T251 508T259 549Q259 571 251 590T230 623T198 646T160 654Z"  />
<glyph unicode="&#xAF;" horiz-adv-x="360" d="M79 524Q71 535 71 552T79 581H283Q290 570 290 553T283 524H79Z"  />
<glyph unicode="&#xB0;" horiz-adv-x="302" d="M151 640Q176 640 198 632T236 608T262 572T272 524Q272 496 263 475T237 438T198 416T151 408Q126 408 104 415T66 438T40 474T30 524Q30 550 39 571T65 608T104 631T151 640ZM151 609Q121 609 101 586T81 524Q81 486 101 463T151 439Q181 439 201 462T221 524Q221 562 201 585T151 609Z"  />
<glyph unicode="&#xB1;" horiz-adv-x="500" d="M443 0H58V49H443V0ZM221 84V254H58V303H221V466H280V303H443V254H280V84H221Z"  />
<glyph unicode="&#xB2;" horiz-adv-x="360" d="M219 363Q237 363 251 364T276 368T296 379T314 399Q327 404 333 392Q321 366 313 344T294 313Q285 313 271 313T240 314T209 315T181 315H109Q80 315 63 315T34 313Q29 318 29 320Q29 326 31 329Q55 344 77 362T135 417Q151 433 167 452T196 492T218 536T227 583Q227 622 207 644T152 667Q124 667 102 650T62 604Q56 600 50 603T43 613Q63 660 99 684T182 708Q237 708 268 679T300 605Q300 589 297 574T284 542T261 507T224 467L168 411Q149 392 142 384T134 371Q134 366 138 365T148 363H219Z"  />
<glyph unicode="&#xB3;" horiz-adv-x="360" d="M254 427Q254 443 250 459T235 488T209 508T171 516Q147 516 129 507T99 487Q91 491 87 497T86 514Q95 518 109 524T138 536T167 550T192 565Q204 573 213 587T223 621Q223 647 207 660T170 674Q146 674 124 659T85 616Q72 615 68 627Q87 665 121 686T197 708Q241 708 267 687T293 637Q293 615 279 596T220 557Q216 552 219 550T228 547Q247 547 265 541T296 522T318 492T326 452Q326 418 309 387T257 329Q217 300 178 288T113 276Q101 276 88 278T65 284T49 296T42 315Q42 329 51 338T75 347Q86 347 94 338T108 321Q119 303 140 303Q155 303 174 311T212 334T242 373T254 427Z"  />
<glyph unicode="&#xB4;" horiz-adv-x="360" d="M150 466Q145 465 140 468T133 477L219 640Q224 648 229 656T243 664Q256 664 274 649Q282 643 286 636T291 623Q291 612 275 596L150 466Z"  />
<glyph unicode="&#xB5;" horiz-adv-x="512" d="M159 145Q159 39 232 39Q261 39 286 56T328 101Q336 113 342 127T348 163V381Q348 394 358 394H414Q422 392 423 387Q423 373 423 358T422 314V97Q422 74 426 56T445 37Q454 37 466 40T492 62Q497 58 500 51T501 38Q485 6 462 -5T412 -16Q382 -16 366 7T348 63Q347 70 346 70T339 70Q323 45 308 29T277 3T244 -11T209 -15Q183 -15 166 -5T141 10Q136 11 134 8T132 -6V-23Q132 -62 138 -93T151 -148T165 -190T171 -221Q171 -230 164 -239T146 -254T123 -265T102 -269Q91 -269 86 -258T80 -207Q80 -183 81 -155T82 -97T84 -39T85 14V378Q85 384 86 389T95 394H152Q161 393 162 387Q160 374 160 346T159 280V145Z"  />
<glyph unicode="&#xB6;" horiz-adv-x="500" d="M366 -23Q366 -56 362 -90T346 -151T310 -197T248 -215Q233 -215 218 -211T190 -199T169 -176T160 -142Q160 -119 170 -107T189 -90Q205 -90 221 -99T240 -120Q236 -125 231 -132T226 -154Q226 -168 235 -176T259 -185Q267 -185 278 -180T299 -161T316 -122T323 -58V83Q323 103 318 109T302 115Q251 115 207 129T130 171T78 236T59 321Q59 376 78 417T134 485T221 526T337 540Q381 540 413 539T458 535Q463 532 463 525T458 514L419 507Q400 504 390 500T374 490T367 472T366 441V-23Z"  />
<glyph unicode="&#xB7;" horiz-adv-x="250" d="M125 148Q103 148 86 162T69 203Q69 229 85 245T125 262Q151 262 166 245T181 203Q181 179 166 164T125 148Z"  />
<glyph unicode="&#xB8;" horiz-adv-x="360" d="M235 0L201 -55Q194 -67 209 -76Q227 -88 238 -103T250 -139Q250 -156 242 -170T221 -194T192 -211T158 -217Q133 -217 120 -209T107 -186Q107 -178 112 -171T129 -163Q135 -163 141 -167T154 -176T165 -185T175 -189Q183 -189 191 -183T199 -161Q199 -144 183 -128T144 -102V-97L204 0H235Z"  />
<glyph unicode="&#xB9;" horiz-adv-x="360" d="M153 594Q153 622 149 635T122 651L91 654Q86 657 86 663T90 673Q132 680 162 690T212 708Q219 708 219 703Q217 687 217 668T217 630V401Q217 382 218 371T223 352T235 342T259 336L276 334Q280 331 280 323T275 313Q252 314 229 314T183 315Q162 315 139 315T95 313Q90 315 90 323T94 334L111 336Q126 338 134 341T147 352T152 370T153 401V594Z"  />
<glyph unicode="&#xBA;" horiz-adv-x="387" d="M197 540Q231 540 260 529T310 499T343 452T355 393Q355 360 344 332T311 284T259 252T191 240Q156 240 127 250T77 280T44 327T32 386Q32 419 44 447T79 496T131 528T197 540ZM189 514Q154 514 130 482T106 396Q106 373 111 350T128 308T156 278T198 266Q222 266 237 277T263 305T277 342T281 382Q281 402 276 425T260 468T232 501T189 514Z"  />
<glyph unicode="&#xBB;" horiz-adv-x="378" d="M45 358Q49 369 62 371Q91 333 120 296T181 221Q194 206 181 190Q149 152 120 115T62 39Q49 42 45 52L115 194Q120 206 115 218L45 358ZM190 358Q194 369 207 371Q236 333 265 296T326 221Q339 206 326 190Q294 152 265 115T207 39Q194 42 190 52L260 194Q265 206 260 218L190 358Z"  />
<glyph unicode="&#xBC;" horiz-adv-x="780" d="M138 -14Q249 154 357 320T574 654Q583 654 591 649T605 631Q493 462 384 296T165 -40Q152 -40 146 -33T138 -14ZM110 526Q110 554 106 567T79 583L48 586Q43 589 43 595T47 605Q89 612 119 622T169 640Q176 640 176 635Q174 619 174 600T174 562V333Q174 314 175 303T180 284T192 274T216 268L233 266Q237 263 237 255T232 245Q209 246 186 246T140 247Q119 247 96 247T52 245Q47 247 47 255T51 266L68 268Q83 270 91 273T104 284T109 302T110 333V526ZM565 145Q577 145 580 147T583 161V270Q583 278 589 282Q596 286 610 289T635 293Q643 293 644 288T646 274V159Q646 150 648 148T661 145H698Q704 141 704 131T698 116H665Q651 116 649 114T646 100V86Q646 65 646 53T650 34T662 25T685 21L703 19Q706 14 706 7T701 -2Q685 -1 666 -1T615 0Q587 0 562 0T526 -2Q521 0 521 7T524 19L542 21Q557 23 565 25T578 35T582 54T583 86V98Q583 109 581 112T564 116H409Q400 116 400 126Q400 134 409 146L622 420Q627 427 631 429T643 432Q652 432 658 431T665 427Q665 425 663 421L457 157Q449 148 455 147T475 145H565Z"  />
<glyph unicode="&#xBD;" horiz-adv-x="780" d="M130 -14Q241 154 349 320T566 654Q575 654 583 649T597 631Q485 462 376 296T157 -40Q144 -40 138 -33T130 -14ZM117 526Q117 554 113 567T86 583L55 586Q50 589 50 595T54 605Q96 612 126 622T176 640Q183 640 183 635Q181 619 181 600T181 562V333Q181 314 182 303T187 284T199 274T223 268L240 266Q244 263 244 255T239 245Q216 246 193 246T147 247Q126 247 103 247T59 245Q54 247 54 255T58 266L75 268Q90 270 98 273T111 284T116 302T117 333V526ZM634 48Q652 48 666 49T691 53T711 64T729 84Q742 89 748 77Q736 51 728 29T709 -2Q700 -2 686 -2T655 -1T624 0T596 0H524Q495 0 478 0T449 -2Q447 0 446 1T444 5Q444 11 446 14Q470 29 492 47T550 102Q566 118 582 137T611 177T633 221T642 268Q642 307 622 329T567 352Q539 352 517 335T477 289Q471 285 465 288T458 298Q478 345 514 369T597 393Q652 393 683 364T715 290Q715 274 712 259T699 227T676 192T639 152L583 96Q564 77 557 69T549 56Q549 51 553 50T563 48H634Z"  />
<glyph unicode="&#xBE;" horiz-adv-x="780" d="M173 -14Q284 154 392 320T609 654Q618 654 626 649T640 631Q528 462 419 296T200 -40Q187 -40 181 -33T173 -14ZM249 359Q249 375 245 391T230 420T204 440T166 448Q142 448 124 439T94 419Q86 423 82 429T81 446Q90 450 104 456T133 468T162 482T187 497Q199 505 208 519T218 553Q218 579 202 592T165 606Q141 606 119 591T80 548Q67 547 63 559Q82 597 116 618T192 640Q236 640 262 619T288 569Q288 547 274 528T215 489Q211 484 214 482T223 479Q242 479 260 473T291 454T313 424T321 384Q321 350 304 319T252 261Q212 232 173 220T108 208Q96 208 83 210T60 216T44 228T37 247Q37 261 46 270T70 279Q81 279 89 270T103 253Q114 235 135 235Q150 235 169 243T207 266T237 305T249 359ZM585 145Q597 145 600 147T603 161V270Q603 278 609 282Q616 286 630 289T655 293Q663 293 664 288T666 274V159Q666 150 668 148T681 145H718Q724 141 724 131T718 116H685Q671 116 669 114T666 100V86Q666 65 666 53T670 34T682 25T705 21L723 19Q726 14 726 7T721 -2Q705 -1 686 -1T635 0Q607 0 582 0T546 -2Q541 0 541 7T544 19L562 21Q577 23 585 25T598 35T602 54T603 86V98Q603 109 601 112T584 116H429Q420 116 420 126Q420 134 429 146L642 420Q647 427 651 429T663 432Q672 432 678 431T685 427Q685 425 683 421L477 157Q469 148 475 147T495 145H585Z"  />
<glyph unicode="&#xBF;" horiz-adv-x="321" d="M217 -266Q187 -266 157 -249T101 -204T61 -139T45 -62Q45 -20 58 1T83 28L162 70Q197 88 197 114Q197 126 194 141T187 172Q190 178 196 179T208 177Q213 168 219 156T231 131T240 103T244 78Q244 47 229 33T190 6L141 -20Q111 -36 99 -54T86 -93Q86 -109 90 -125T108 -154Q129 -175 157 -180T224 -186Q231 -186 244 -197T257 -228Q257 -243 247 -254T217 -266ZM196 280Q174 280 157 294T140 335Q140 361 156 377T196 394Q222 394 237 377T252 335Q252 311 237 296T196 280Z"  />
<glyph unicode="&#xC0;" horiz-adv-x="623" d="M407 232Q402 249 396 253T366 257H215Q196 257 189 253T177 233L142 128Q120 62 120 45Q120 36 125 32T149 25L182 22Q187 18 187 9T180 -3Q160 -1 136 -1T76 0Q51 0 26 -1T-20 -3Q-25 0 -26 9T-22 22L11 25Q29 27 44 37T71 74Q84 108 105 160T159 297L261 567Q272 594 276 610T278 638Q296 643 309 654T330 676Q335 676 339 674T345 667Q355 634 366 600T389 533L526 131Q537 99 545 79T563 48T583 32T611 25L638 22Q643 18 643 9T638 -3Q607 -1 579 -1T517 0Q481 0 453 -1T402 -3Q396 0 396 9T400 22L429 25Q445 27 454 31T464 43Q464 51 461 64T451 96L407 232ZM209 321Q203 304 206 301T230 297H353Q375 297 378 302T375 328L321 491Q315 509 309 527T298 554H296Q294 550 287 534T272 495L209 321ZM192 778Q171 787 167 794Q164 800 165 810T175 834Q191 858 201 858Q208 858 228 845L369 730Q371 722 368 715T359 706L192 778Z"  />
<glyph unicode="&#xC1;" horiz-adv-x="623" d="M407 232Q402 249 396 253T366 257H215Q196 257 189 253T177 233L142 128Q120 62 120 45Q120 36 125 32T149 25L182 22Q187 18 187 9T180 -3Q160 -1 136 -1T76 0Q51 0 26 -1T-20 -3Q-25 0 -26 9T-22 22L11 25Q29 27 44 37T71 74Q84 108 105 160T159 297L261 567Q272 594 276 610T278 638Q296 643 309 654T330 676Q335 676 339 674T345 667Q355 634 366 600T389 533L526 131Q537 99 545 79T563 48T583 32T611 25L638 22Q643 18 643 9T638 -3Q607 -1 579 -1T517 0Q481 0 453 -1T402 -3Q396 0 396 9T400 22L429 25Q445 27 454 31T464 43Q464 51 461 64T451 96L407 232ZM209 321Q203 304 206 301T230 297H353Q375 297 378 302T375 328L321 491Q315 509 309 527T298 554H296Q294 550 287 534T272 495L209 321ZM266 701Q261 703 258 710T256 725L397 840Q416 853 424 853Q429 853 437 848T452 830Q460 816 460 806T459 789Q456 785 450 782T433 773L266 701Z"  />
<glyph unicode="&#xC2;" horiz-adv-x="623" d="M407 232Q402 249 396 253T366 257H215Q196 257 189 253T177 233L142 128Q120 62 120 45Q120 36 125 32T149 25L182 22Q187 18 187 9T180 -3Q160 -1 136 -1T76 0Q51 0 26 -1T-20 -3Q-25 0 -26 9T-22 22L11 25Q29 27 44 37T71 74Q84 108 105 160T159 297L261 567Q272 594 276 610T278 638Q296 643 309 654T330 676Q335 676 339 674T345 667Q355 634 366 600T389 533L526 131Q537 99 545 79T563 48T583 32T611 25L638 22Q643 18 643 9T638 -3Q607 -1 579 -1T517 0Q481 0 453 -1T402 -3Q396 0 396 9T400 22L429 25Q445 27 454 31T464 43Q464 51 461 64T451 96L407 232ZM209 321Q203 304 206 301T230 297H353Q375 297 378 302T375 328L321 491Q315 509 309 527T298 554H296Q294 550 287 534T272 495L209 321ZM304 832Q324 852 346 832L468 717Q468 710 465 704T456 697L340 756Q329 761 324 761T308 756L195 697Q188 697 185 703T182 717L304 832Z"  />
<glyph unicode="&#xC3;" horiz-adv-x="623" d="M407 232Q402 249 396 253T366 257H215Q196 257 189 253T177 233L142 128Q120 62 120 45Q120 36 125 32T149 25L182 22Q187 18 187 9T180 -3Q160 -1 136 -1T76 0Q51 0 26 -1T-20 -3Q-25 0 -26 9T-22 22L11 25Q29 27 44 37T71 74Q84 108 105 160T159 297L261 567Q272 594 276 610T278 638Q296 643 309 654T330 676Q335 676 339 674T345 667Q355 634 366 600T389 533L526 131Q537 99 545 79T563 48T583 32T611 25L638 22Q643 18 643 9T638 -3Q607 -1 579 -1T517 0Q481 0 453 -1T402 -3Q396 0 396 9T400 22L429 25Q445 27 454 31T464 43Q464 51 461 64T451 96L407 232ZM209 321Q203 304 206 301T230 297H353Q375 297 378 302T375 328L321 491Q315 509 309 527T298 554H296Q294 550 287 534T272 495L209 321ZM344 788Q360 788 371 789T390 795T407 808T424 829Q429 832 434 831T441 824Q436 804 425 781T402 746Q391 735 380 733T351 730H295Q260 730 243 718T211 677Q206 674 200 675T191 681Q192 687 196 699T205 723T217 747T230 765Q242 779 254 783T283 788H344Z"  />
<glyph unicode="&#xC4;" horiz-adv-x="623" d="M407 232Q402 249 396 253T366 257H215Q196 257 189 253T177 233L142 128Q120 62 120 45Q120 36 125 32T149 25L182 22Q187 18 187 9T180 -3Q160 -1 136 -1T76 0Q51 0 26 -1T-20 -3Q-25 0 -26 9T-22 22L11 25Q29 27 44 37T71 74Q84 108 105 160T159 297L261 567Q272 594 276 610T278 638Q296 643 309 654T330 676Q335 676 339 674T345 667Q355 634 366 600T389 533L526 131Q537 99 545 79T563 48T583 32T611 25L638 22Q643 18 643 9T638 -3Q607 -1 579 -1T517 0Q481 0 453 -1T402 -3Q396 0 396 9T400 22L429 25Q445 27 454 31T464 43Q464 51 461 64T451 96L407 232ZM209 321Q203 304 206 301T230 297H353Q375 297 378 302T375 328L321 491Q315 509 309 527T298 554H296Q294 550 287 534T272 495L209 321ZM224 695Q175 695 175 746Q173 768 187 785T224 802Q247 802 261 785T275 748Q275 726 261 711T224 695ZM420 695Q397 695 383 707T368 746Q368 768 382 785T420 802Q443 802 455 785T468 748Q468 726 456 711T420 695Z"  />
<glyph unicode="&#xC5;" horiz-adv-x="623" d="M407 232Q402 249 396 253T366 257H215Q196 257 189 253T177 233L142 128Q120 62 120 45Q120 36 125 32T149 25L182 22Q187 18 187 9T180 -3Q160 -1 136 -1T76 0Q51 0 26 -1T-20 -3Q-25 0 -26 9T-22 22L11 25Q29 27 44 37T71 74Q84 108 105 160T159 297L261 567Q272 594 276 610T278 638Q296 643 309 654T330 676Q335 676 339 674T345 667Q355 634 366 600T389 533L526 131Q537 99 545 79T563 48T583 32T611 25L638 22Q643 18 643 9T638 -3Q607 -1 579 -1T517 0Q481 0 453 -1T402 -3Q396 0 396 9T400 22L429 25Q445 27 454 31T464 43Q464 51 461 64T451 96L407 232ZM209 321Q203 304 206 301T230 297H353Q375 297 378 302T375 328L321 491Q315 509 309 527T298 554H296Q294 550 287 534T272 495L209 321ZM316 868Q354 868 377 844T401 787Q401 755 377 731T316 706Q297 706 282 712T255 730T237 756T231 787Q231 819 254 843T316 868ZM271 787Q271 764 284 749T316 734Q336 734 348 749T361 787Q361 810 349 824T316 839Q297 839 284 825T271 787Z"  />
<glyph unicode="&#xC6;" horiz-adv-x="850" d="M625 660Q673 660 712 660T760 663Q762 657 764 642T769 607T772 568T776 531Q773 526 764 525T751 528Q745 546 740 561T727 589T707 610T675 624Q659 628 635 628T578 629H506Q495 629 489 628T481 623T478 611T477 589V389Q477 378 478 373T482 365T492 362T510 361H568Q600 361 622 362T653 367Q662 370 667 376T677 402L685 443Q689 448 698 448T711 442Q711 424 709 397T707 341Q707 314 709 288T711 245Q708 240 699 240T685 244L676 283Q673 297 667 307T645 321Q634 324 616 325T568 326H510Q487 326 482 323T477 299V158Q477 117 480 92T495 54Q499 49 506 45T527 38T562 33T617 31Q645 31 665 31T700 34T725 38T744 46Q758 54 776 79T815 143Q820 147 828 145T840 136Q837 122 832 103T820 63T807 25T795 -3Q660 0 527 0H435Q405 0 376 -1T302 -3Q297 -1 296 8T300 22L334 25Q355 27 367 32T385 50T393 87T395 150V297Q395 308 394 314T389 322T376 325T351 326H269Q253 326 244 325T229 320T218 307T204 282Q138 159 103 70Q95 49 97 41T118 30L172 22Q177 17 177 9T171 -3Q111 0 61 0Q32 0 10 -1T-42 -3Q-48 0 -49 9T-43 22L-12 27Q6 30 20 43T58 99Q93 163 127 228T193 353T252 467T301 560Q312 581 318 595T325 617Q325 623 320 625T303 629L243 638Q238 643 239 652T246 663Q281 661 305 661T363 660H625ZM351 361Q367 361 376 361T389 365T394 374T395 393V588Q395 597 394 609T389 624H384Q378 621 372 611T361 593Q343 559 327 526T296 466T272 417T255 383Q247 367 251 364T284 361H351Z"  />
<glyph unicode="&#xC7;" horiz-adv-x="696" d="M418 -15Q355 -14 297 1T186 51Q126 92 85 160T44 326Q44 410 78 478T170 591Q225 634 293 655T440 676Q460 676 483 674T531 669T577 662T617 652Q626 650 632 649T645 648Q645 639 646 624T649 589T653 547T659 501Q655 496 646 495T632 499Q626 524 614 550T579 597T518 631T427 645Q370 645 319 627T228 571T167 476T144 341Q144 262 167 202T231 100T325 37T441 15Q489 15 524 29T585 64T625 111T650 158Q655 162 664 161T676 154Q673 134 668 113T655 73T641 39T628 17Q619 15 610 13T593 7Q585 4 571 1T537 -6T496 -12T451 -15L424 -58Q417 -69 432 -80Q451 -93 463 -109T475 -146Q475 -164 467 -179T445 -205T414 -222T379 -228Q353 -228 339 -219T325 -195Q325 -187 331 -179T348 -171Q355 -171 361 -175T374 -184T386 -194T397 -198Q405 -198 413 -192T422 -169Q422 -151 406 -134T364 -107V-102L418 -15Z"  />
<glyph unicode="&#xC8;" horiz-adv-x="584" d="M128 510Q128 549 127 572T120 609T102 628T67 636L51 638Q46 641 47 651T53 663Q85 661 112 661T171 660H359Q407 660 446 660T494 663Q496 657 498 642T503 607T506 567T510 530Q507 525 498 524T485 528Q479 546 474 561T461 588T441 609T409 623Q393 627 369 628T312 629H240Q229 629 223 628T214 623T211 611T210 589V389Q210 378 211 373T215 365T225 362T243 361H301Q333 361 355 362T386 367Q395 370 400 376T410 402L418 443Q422 448 431 448T444 442Q444 424 442 397T440 341Q440 314 442 288T444 245Q441 240 432 240T418 244L409 283Q406 297 400 307T378 321Q367 324 349 325T301 326H243Q220 326 215 323T210 299V158Q210 118 213 93T229 54Q233 49 240 45T261 38T295 33T350 31Q379 31 399 32T434 34T459 39T478 46Q492 54 510 79T549 143Q554 147 562 145T574 136Q571 123 566 104T554 64T541 25T529 -3Q394 0 261 0H171Q139 0 109 -1T35 -3Q30 -1 29 8T33 22L66 25Q87 27 99 32T118 50T126 87T128 150V510ZM167 777Q146 786 142 793Q139 799 139 809T148 834Q154 846 162 851T176 857Q183 857 203 844L344 729Q346 721 343 714T334 705L167 777Z"  />
<glyph unicode="&#xC9;" horiz-adv-x="584" d="M128 510Q128 549 127 572T120 609T102 628T67 636L51 638Q46 641 47 651T53 663Q85 661 112 661T171 660H359Q407 660 446 660T494 663Q496 657 498 642T503 607T506 567T510 530Q507 525 498 524T485 528Q479 546 474 561T461 588T441 609T409 623Q393 627 369 628T312 629H240Q229 629 223 628T214 623T211 611T210 589V389Q210 378 211 373T215 365T225 362T243 361H301Q333 361 355 362T386 367Q395 370 400 376T410 402L418 443Q422 448 431 448T444 442Q444 424 442 397T440 341Q440 314 442 288T444 245Q441 240 432 240T418 244L409 283Q406 297 400 307T378 321Q367 324 349 325T301 326H243Q220 326 215 323T210 299V158Q210 118 213 93T229 54Q233 49 240 45T261 38T295 33T350 31Q379 31 399 32T434 34T459 39T478 46Q492 54 510 79T549 143Q554 147 562 145T574 136Q571 123 566 104T554 64T541 25T529 -3Q394 0 261 0H171Q139 0 109 -1T35 -3Q30 -1 29 8T33 22L66 25Q87 27 99 32T118 50T126 87T128 150V510ZM256 706Q251 708 248 715T246 730L387 845Q406 858 414 858Q419 858 427 853T442 835Q450 821 450 811T449 794Q446 790 440 787T423 778L256 706Z"  />
<glyph unicode="&#xCA;" horiz-adv-x="584" d="M128 510Q128 549 127 572T120 609T102 628T67 636L51 638Q46 641 47 651T53 663Q85 661 112 661T171 660H359Q407 660 446 660T494 663Q496 657 498 642T503 607T506 567T510 530Q507 525 498 524T485 528Q479 546 474 561T461 588T441 609T409 623Q393 627 369 628T312 629H240Q229 629 223 628T214 623T211 611T210 589V389Q210 378 211 373T215 365T225 362T243 361H301Q333 361 355 362T386 367Q395 370 400 376T410 402L418 443Q422 448 431 448T444 442Q444 424 442 397T440 341Q440 314 442 288T444 245Q441 240 432 240T418 244L409 283Q406 297 400 307T378 321Q367 324 349 325T301 326H243Q220 326 215 323T210 299V158Q210 118 213 93T229 54Q233 49 240 45T261 38T295 33T350 31Q379 31 399 32T434 34T459 39T478 46Q492 54 510 79T549 143Q554 147 562 145T574 136Q571 123 566 104T554 64T541 25T529 -3Q394 0 261 0H171Q139 0 109 -1T35 -3Q30 -1 29 8T33 22L66 25Q87 27 99 32T118 50T126 87T128 150V510ZM278 842Q298 862 320 842L442 727Q442 720 439 714T430 707L314 766Q303 771 298 771T282 766L169 707Q162 707 159 713T156 727L278 842Z"  />
<glyph unicode="&#xCB;" horiz-adv-x="584" d="M128 510Q128 549 127 572T120 609T102 628T67 636L51 638Q46 641 47 651T53 663Q85 661 112 661T171 660H359Q407 660 446 660T494 663Q496 657 498 642T503 607T506 567T510 530Q507 525 498 524T485 528Q479 546 474 561T461 588T441 609T409 623Q393 627 369 628T312 629H240Q229 629 223 628T214 623T211 611T210 589V389Q210 378 211 373T215 365T225 362T243 361H301Q333 361 355 362T386 367Q395 370 400 376T410 402L418 443Q422 448 431 448T444 442Q444 424 442 397T440 341Q440 314 442 288T444 245Q441 240 432 240T418 244L409 283Q406 297 400 307T378 321Q367 324 349 325T301 326H243Q220 326 215 323T210 299V158Q210 118 213 93T229 54Q233 49 240 45T261 38T295 33T350 31Q379 31 399 32T434 34T459 39T478 46Q492 54 510 79T549 143Q554 147 562 145T574 136Q571 123 566 104T554 64T541 25T529 -3Q394 0 261 0H171Q139 0 109 -1T35 -3Q30 -1 29 8T33 22L66 25Q87 27 99 32T118 50T126 87T128 150V510ZM196 709Q147 709 147 760Q145 782 159 799T196 816Q219 816 233 799T247 762Q247 740 233 725T196 709ZM394 709Q371 709 357 721T342 760Q342 782 356 799T394 816Q417 816 429 799T442 762Q442 740 430 725T394 709Z"  />
<glyph unicode="&#xCC;" horiz-adv-x="338" d="M128 508Q128 548 127 572T120 609T102 628T67 636L42 638Q37 641 38 651T44 663Q82 661 110 661T170 660Q200 660 228 660T294 663Q299 661 300 651T296 638L271 636Q249 634 237 629T218 610T211 572T210 508V152Q210 112 211 89T218 52T236 33T271 25L296 22Q301 19 300 9T294 -3Q256 -1 228 -1T170 0Q138 0 110 0T44 -3Q39 -1 38 8T42 22L67 25Q89 28 101 33T120 51T127 88T128 152V508ZM39 778Q28 783 22 786T13 794Q11 800 11 810T20 835Q26 847 34 852T48 858Q55 858 75 845L216 730Q218 722 215 715T206 706L39 778Z"  />
<glyph unicode="&#xCD;" horiz-adv-x="338" d="M128 508Q128 548 127 572T120 609T102 628T67 636L42 638Q37 641 38 651T44 663Q82 661 110 661T170 660Q200 660 228 660T294 663Q299 661 300 651T296 638L271 636Q249 634 237 629T218 610T211 572T210 508V152Q210 112 211 89T218 52T236 33T271 25L296 22Q301 19 300 9T294 -3Q256 -1 228 -1T170 0Q138 0 110 0T44 -3Q39 -1 38 8T42 22L67 25Q89 28 101 33T120 51T127 88T128 152V508ZM133 706Q128 708 125 715T123 730L264 844Q283 858 291 858Q296 858 304 853T319 835Q327 821 327 811T326 794Q323 790 317 787T300 778L133 706Z"  />
<glyph unicode="&#xCE;" horiz-adv-x="338" d="M128 508Q128 548 127 572T120 609T102 628T67 636L42 638Q37 641 38 651T44 663Q82 661 110 661T170 660Q200 660 228 660T294 663Q299 661 300 651T296 638L271 636Q249 634 237 629T218 610T211 572T210 508V152Q210 112 211 89T218 52T236 33T271 25L296 22Q301 19 300 9T294 -3Q256 -1 228 -1T170 0Q138 0 110 0T44 -3Q39 -1 38 8T42 22L67 25Q89 28 101 33T120 51T127 88T128 152V508ZM154 842Q174 862 196 842L318 727Q318 720 315 714T306 707L190 766Q179 771 174 771T158 766L45 707Q38 707 35 713T32 727L154 842Z"  />
<glyph unicode="&#xCF;" horiz-adv-x="338" d="M128 508Q128 548 127 572T120 609T102 628T67 636L42 638Q37 641 38 651T44 663Q82 661 110 661T170 660Q200 660 228 660T294 663Q299 661 300 651T296 638L271 636Q249 634 237 629T218 610T211 572T210 508V152Q210 112 211 89T218 52T236 33T271 25L296 22Q301 19 300 9T294 -3Q256 -1 228 -1T170 0Q138 0 110 0T44 -3Q39 -1 38 8T42 22L67 25Q89 28 101 33T120 51T127 88T128 152V508ZM84 705Q35 705 35 756Q33 778 47 795T84 812Q107 812 121 795T135 758Q135 736 121 721T84 705ZM270 705Q247 705 233 717T218 756Q218 778 232 795T270 812Q293 812 305 795T318 758Q318 736 306 721T270 705Z"  />
<glyph unicode="&#xD0;" horiz-adv-x="786" d="M128 326H38Q31 331 31 343T38 361H128V505Q128 539 127 562T121 599T105 621T76 631L59 633Q53 636 53 645T60 657Q124 659 187 661T315 663Q378 663 430 658T531 634Q582 616 620 586T683 518T721 434T734 340Q734 243 690 165T559 40Q510 14 452 3T335 -8Q287 -8 243 -4T172 0Q140 0 111 0T47 -3Q42 -1 41 8T45 22L68 25Q90 28 102 33T120 51T127 87T128 150V326ZM210 361H394Q401 356 401 344T394 326H210V173Q210 133 213 108T230 64Q247 41 276 32T353 23Q426 23 479 45T566 109T617 208T634 336Q634 363 629 395T611 461T575 524T517 579T433 617T319 632Q274 632 250 628T220 618Q210 610 210 542V361Z"  />
<glyph unicode="&#xD1;" horiz-adv-x="783" d="M666 170Q666 159 666 134T666 81T667 29T669 -5Q665 -16 650 -16Q645 -10 637 0T614 28T577 72T522 135L290 399Q280 411 264 430T230 470T197 508T174 534H172Q169 525 168 509T167 469V251Q167 233 167 203T169 142T175 83T185 44Q190 36 203 32T236 25L267 22Q272 16 271 9T265 -3Q231 -1 204 -1T148 0Q116 0 93 0T44 -3Q39 1 38 9T42 22L69 25Q106 30 113 45Q118 58 121 85T125 143T126 203T126 251V540Q126 561 123 578T104 612Q93 623 77 628T42 636L25 638Q20 643 20 651T27 663Q59 661 92 661T140 660Q166 660 186 663Q193 644 216 613T267 548T319 486T357 443L454 334Q506 276 545 233T619 153H621Q624 157 624 168T625 195V409Q625 427 625 457T622 518T616 577T605 616Q600 623 587 627T543 636L526 638Q521 643 521 652T528 663Q563 661 590 661T646 660Q678 660 700 660T749 663Q755 659 755 651T751 638L737 636Q688 628 681 615Q675 601 672 574T667 516T666 456T666 409V170ZM437 798Q454 798 465 799T486 805T502 817T520 838Q525 841 530 840T538 833Q535 823 531 812T520 790T508 770T497 756Q486 745 474 743T444 740H386Q350 740 333 728T299 688Q294 684 288 685T278 692Q279 698 283 710T293 734T305 758T319 775Q331 789 343 793T374 798H437Z"  />
<glyph unicode="&#xD2;" horiz-adv-x="795" d="M402 -16Q319 -16 253 11T141 86T71 194T46 323Q46 398 72 462T146 574T259 649T402 676Q489 676 554 647T662 571T727 461T749 333Q749 257 722 193T648 83T538 10T402 -16ZM415 15Q460 15 502 32T577 84T629 174T649 302Q649 364 635 425T589 535T507 614T385 645Q346 645 304 631T227 582T169 493T146 355Q146 299 160 239T207 130T290 48T415 15ZM285 778Q264 787 260 794Q257 800 257 810T266 835Q282 858 294 858Q301 858 321 845L462 730Q464 722 461 715T452 706L285 778Z"  />
<glyph unicode="&#xD3;" horiz-adv-x="795" d="M402 -16Q319 -16 253 11T141 86T71 194T46 323Q46 398 72 462T146 574T259 649T402 676Q489 676 554 647T662 571T727 461T749 333Q749 257 722 193T648 83T538 10T402 -16ZM415 15Q460 15 502 32T577 84T629 174T649 302Q649 364 635 425T589 535T507 614T385 645Q346 645 304 631T227 582T169 493T146 355Q146 299 160 239T207 130T290 48T415 15ZM362 711Q357 713 354 720T352 735L493 850Q512 863 520 863Q525 863 533 858T548 840Q556 826 556 816T555 799Q552 795 546 792T529 783L362 711Z"  />
<glyph unicode="&#xD4;" horiz-adv-x="795" d="M402 -16Q319 -16 253 11T141 86T71 194T46 323Q46 398 72 462T146 574T259 649T402 676Q489 676 554 647T662 571T727 461T749 333Q749 257 722 193T648 83T538 10T402 -16ZM415 15Q460 15 502 32T577 84T629 174T649 302Q649 364 635 425T589 535T507 614T385 645Q346 645 304 631T227 582T169 493T146 355Q146 299 160 239T207 130T290 48T415 15ZM383 838Q405 857 425 838L547 727Q547 720 544 714T535 707L419 765Q408 770 403 770T387 765L274 707Q267 707 264 713T261 727L383 838Z"  />
<glyph unicode="&#xD5;" horiz-adv-x="795" d="M402 -16Q319 -16 253 11T141 86T71 194T46 323Q46 398 72 462T146 574T259 649T402 676Q489 676 554 647T662 571T727 461T749 333Q749 257 722 193T648 83T538 10T402 -16ZM415 15Q460 15 502 32T577 84T629 174T649 302Q649 364 635 425T589 535T507 614T385 645Q346 645 304 631T227 582T169 493T146 355Q146 299 160 239T207 130T290 48T415 15ZM431 806Q448 806 459 807T480 813T496 825T514 847Q519 851 524 850T532 843Q527 821 515 797T491 762Q480 751 468 748T438 745H380Q344 745 327 732T293 690Q288 687 282 688T272 694Q273 701 277 713T287 738T299 763T313 781Q325 795 337 800T368 806H431Z"  />
<glyph unicode="&#xD6;" horiz-adv-x="795" d="M402 -16Q319 -16 253 11T141 86T71 194T46 323Q46 398 72 462T146 574T259 649T402 676Q489 676 554 647T662 571T727 461T749 333Q749 257 722 193T648 83T538 10T402 -16ZM415 15Q460 15 502 32T577 84T629 174T649 302Q649 364 635 425T589 535T507 614T385 645Q346 645 304 631T227 582T169 493T146 355Q146 299 160 239T207 130T290 48T415 15ZM305 715Q256 715 256 766Q254 788 268 805T305 822Q328 822 342 805T356 768Q356 746 342 731T305 715ZM496 715Q473 715 459 727T444 766Q444 788 458 805T496 822Q519 822 531 805T544 768Q544 746 532 731T496 715Z"  />
<glyph unicode="&#xD7;" horiz-adv-x="500" d="M288 199L436 50L399 11L250 161L102 11L65 50L212 199L65 346L102 385L250 237L399 387L436 349L288 199Z"  />
<glyph unicode="&#xD8;" horiz-adv-x="795" d="M635 598Q692 549 720 479T749 330Q749 255 722 192T648 83T538 10T402 -16Q342 -16 290 -1T195 43L128 -40Q117 -40 109 -33T99 -15L164 66Q107 113 77 180T46 323Q46 398 72 462T146 574T259 649T402 676Q462 676 512 662T603 621L660 693Q671 692 680 685T690 668L635 598ZM235 94Q267 58 311 37T415 15Q460 15 502 32T577 84T629 174T649 302Q649 365 634 426T586 537L235 94ZM562 569Q530 604 486 624T385 645Q346 645 304 631T227 582T169 493T146 355Q146 298 161 237T211 125L562 569Z"  />
<glyph unicode="&#xD9;" horiz-adv-x="746" d="M605 409Q605 432 605 463T602 524T596 580T586 616Q576 634 536 637L511 639Q506 644 507 652T513 663Q570 660 627 660Q659 660 682 660T732 663Q738 659 738 652T734 639L710 637Q670 634 660 613Q655 601 652 576T648 520T646 460T646 409V296Q646 263 643 230T632 166T611 107T576 57Q544 22 493 3T385 -16Q333 -16 284 -5T198 39Q158 72 139 128T120 275V511Q120 550 119 574T112 611T94 630T60 637L35 639Q30 642 31 651T37 663Q75 661 103 661T161 660Q192 660 219 660T284 663Q289 661 290 652T286 639L262 637Q240 635 228 630T210 612T203 574T202 511V295Q202 235 212 186T246 101T309 47T405 28Q459 28 497 48T559 104T594 188T605 294V409ZM268 778Q247 787 243 794Q240 800 240 810T249 835Q255 847 263 852T277 858Q284 858 304 845L445 730Q447 722 444 715T435 706L268 778Z"  />
<glyph unicode="&#xDA;" horiz-adv-x="746" d="M605 409Q605 432 605 463T602 524T596 580T586 616Q576 634 536 637L511 639Q506 644 507 652T513 663Q570 660 627 660Q659 660 682 660T732 663Q738 659 738 652T734 639L710 637Q670 634 660 613Q655 601 652 576T648 520T646 460T646 409V296Q646 263 643 230T632 166T611 107T576 57Q544 22 493 3T385 -16Q333 -16 284 -5T198 39Q158 72 139 128T120 275V511Q120 550 119 574T112 611T94 630T60 637L35 639Q30 642 31 651T37 663Q75 661 103 661T161 660Q192 660 219 660T284 663Q289 661 290 652T286 639L262 637Q240 635 228 630T210 612T203 574T202 511V295Q202 235 212 186T246 101T309 47T405 28Q459 28 497 48T559 104T594 188T605 294V409ZM353 706Q348 708 345 715T343 730L484 845Q503 858 511 858Q516 858 524 853T539 835Q547 821 547 811T546 794Q543 790 537 787T520 778L353 706Z"  />
<glyph unicode="&#xDB;" horiz-adv-x="746" d="M605 409Q605 432 605 463T602 524T596 580T586 616Q576 634 536 637L511 639Q506 644 507 652T513 663Q570 660 627 660Q659 660 682 660T732 663Q738 659 738 652T734 639L710 637Q670 634 660 613Q655 601 652 576T648 520T646 460T646 409V296Q646 263 643 230T632 166T611 107T576 57Q544 22 493 3T385 -16Q333 -16 284 -5T198 39Q158 72 139 128T120 275V511Q120 550 119 574T112 611T94 630T60 637L35 639Q30 642 31 651T37 663Q75 661 103 661T161 660Q192 660 219 660T284 663Q289 661 290 652T286 639L262 637Q240 635 228 630T210 612T203 574T202 511V295Q202 235 212 186T246 101T309 47T405 28Q459 28 497 48T559 104T594 188T605 294V409ZM383 838Q405 857 425 838L547 727Q547 720 544 714T535 707L419 765Q408 770 403 770T387 765L274 707Q267 707 264 713T261 727L383 838Z"  />
<glyph unicode="&#xDC;" horiz-adv-x="746" d="M605 409Q605 432 605 463T602 524T596 580T586 616Q576 634 536 637L511 639Q506 644 507 652T513 663Q570 660 627 660Q659 660 682 660T732 663Q738 659 738 652T734 639L710 637Q670 634 660 613Q655 601 652 576T648 520T646 460T646 409V296Q646 263 643 230T632 166T611 107T576 57Q544 22 493 3T385 -16Q333 -16 284 -5T198 39Q158 72 139 128T120 275V511Q120 550 119 574T112 611T94 630T60 637L35 639Q30 642 31 651T37 663Q75 661 103 661T161 660Q192 660 219 660T284 663Q289 661 290 652T286 639L262 637Q240 635 228 630T210 612T203 574T202 511V295Q202 235 212 186T246 101T309 47T405 28Q459 28 497 48T559 104T594 188T605 294V409ZM300 705Q251 705 251 756Q249 778 263 795T300 812Q323 812 337 795T351 758Q351 736 337 721T300 705ZM496 705Q473 705 459 717T444 756Q444 778 458 795T496 812Q519 812 531 795T544 758Q544 736 532 721T496 705Z"  />
<glyph unicode="&#xDD;" horiz-adv-x="574" d="M336 152Q336 112 338 88T346 50T364 31T396 25L434 22Q439 17 438 8T432 -3Q409 -2 391 -2T356 -1T326 0T296 0Q264 0 235 0T165 -3Q160 -1 159 8T163 22L194 25Q216 27 228 32T246 50T253 88T254 152V203Q254 224 253 238T249 264T240 291T222 327L104 557Q91 582 82 596T63 617T45 628T25 633L-3 638Q-8 643 -7 651T-1 663Q23 661 51 661T115 660Q184 660 222 663Q229 661 229 652T225 638L212 636Q186 632 178 628T170 618Q170 614 174 603T183 580T194 556T201 541Q229 485 257 428T314 319Q337 359 361 401T408 488Q418 507 429 528T451 569T467 601T473 620Q473 625 461 629T431 636L413 638Q408 643 408 651T415 663Q442 661 465 661T511 660Q534 660 556 660T604 663Q610 659 610 651T606 638L578 633Q558 630 542 617T511 583T481 535T446 475L383 366Q366 337 357 319T343 285T337 251T336 204V152ZM266 706Q261 708 258 715T256 730L397 845Q416 858 424 858Q429 858 437 853T452 835Q460 821 460 811T459 794Q456 790 450 787T433 778L266 706Z"  />
<glyph unicode="&#xDE;" horiz-adv-x="561" d="M128 510Q128 551 126 575T118 612T99 629T65 636L43 638Q38 641 39 651T45 663Q83 661 111 661T171 660Q205 660 231 660T292 663Q297 659 297 651T294 638L278 636Q254 633 241 627T221 609T212 575T210 521H291Q338 521 379 511T451 480T500 424T518 342Q518 312 510 288T488 246T459 215T428 195Q392 177 351 171T282 166Q277 168 277 176T281 186Q427 207 427 338Q427 408 387 449T267 490Q247 490 236 489T219 484T212 474T210 455V150Q210 111 211 87T218 50T236 32T270 25L307 22Q312 19 311 9T305 -3Q260 -1 231 -1T171 0Q139 0 111 0T48 -3Q43 -1 42 8T46 22L68 25Q90 28 102 33T120 51T127 87T128 150V510Z"  />
<glyph unicode="&#xDF;" horiz-adv-x="523" d="M169 112Q169 85 169 69T173 43T181 30T197 25L221 22Q226 18 225 9T219 -3Q194 -1 176 -1T132 0Q105 0 82 0T36 -3Q31 -1 30 8T34 22L57 25Q71 27 78 30T90 43T94 68T95 112V323Q95 343 93 347T75 352H40Q35 355 35 360T37 371L80 392Q86 395 90 399T95 412Q95 451 102 496T130 583Q142 607 159 631T200 673T255 703T325 715Q366 715 394 703T441 672T467 630T475 582Q475 560 469 544T453 516T431 492T405 468L381 445Q359 425 347 406T335 366Q335 336 355 313T410 262Q425 250 440 236T468 205T488 168T496 121Q496 89 483 64T449 22T401 -4T347 -14Q316 -14 297 -9T269 5Q259 15 257 31T263 62Q266 67 272 68T284 64Q289 59 297 51T316 36T337 22T357 16Q383 16 405 35T428 97Q428 132 405 160T351 212Q316 238 293 269T270 339Q270 371 290 396T341 451Q365 474 385 503T405 568Q405 590 398 610T376 646T342 671T297 680Q266 680 242 660T202 604T178 519T169 411V112Z"  />
<glyph unicode="&#xE0;" horiz-adv-x="404" d="M237 207Q248 211 251 218T254 236L255 282Q255 296 253 311T242 339T220 360T182 369Q161 369 141 358T118 324Q117 312 116 304T108 290Q97 281 80 276T51 271Q37 271 37 285Q37 304 56 326T103 366T163 396T223 408Q277 408 303 378T327 291L321 117Q319 82 328 56T367 30Q375 30 381 32T392 36Q396 38 399 40T405 43Q412 43 412 30Q412 28 406 21T389 6T362 -8T328 -14Q310 -14 293 -7T263 17Q260 22 256 26T247 31Q242 31 233 25T208 11Q191 2 174 -6T136 -14Q92 -14 66 9Q52 22 44 40T35 79Q35 108 52 127T118 164L237 207ZM112 91Q112 85 114 75T124 55T143 38T175 31Q190 31 209 39T236 56Q245 65 246 76T249 103L251 162Q251 170 249 172T241 175Q236 175 225 173T200 165Q155 150 134 135T112 91ZM237 469Q237 462 229 459T215 457L93 590Q75 609 75 621Q75 632 95 647Q106 656 115 659T130 663Q138 663 144 656T155 639L237 469Z"  />
<glyph unicode="&#xE1;" horiz-adv-x="404" d="M237 207Q248 211 251 218T254 236L255 282Q255 296 253 311T242 339T220 360T182 369Q161 369 141 358T118 324Q117 312 116 304T108 290Q97 281 80 276T51 271Q37 271 37 285Q37 304 56 326T103 366T163 396T223 408Q277 408 303 378T327 291L321 117Q319 82 328 56T367 30Q375 30 381 32T392 36Q396 38 399 40T405 43Q412 43 412 30Q412 28 406 21T389 6T362 -8T328 -14Q310 -14 293 -7T263 17Q260 22 256 26T247 31Q242 31 233 25T208 11Q191 2 174 -6T136 -14Q92 -14 66 9Q52 22 44 40T35 79Q35 108 52 127T118 164L237 207ZM112 91Q112 85 114 75T124 55T143 38T175 31Q190 31 209 39T236 56Q245 65 246 76T249 103L251 162Q251 170 249 172T241 175Q236 175 225 173T200 165Q155 150 134 135T112 91ZM192 461Q187 460 182 463T175 472L261 635Q266 643 271 651T285 659Q298 659 316 644Q324 638 328 631T333 618Q333 607 317 591L192 461Z"  />
<glyph unicode="&#xE2;" horiz-adv-x="404" d="M237 207Q248 211 251 218T254 236L255 282Q255 296 253 311T242 339T220 360T182 369Q161 369 141 358T118 324Q117 312 116 304T108 290Q97 281 80 276T51 271Q37 271 37 285Q37 304 56 326T103 366T163 396T223 408Q277 408 303 378T327 291L321 117Q319 82 328 56T367 30Q375 30 381 32T392 36Q396 38 399 40T405 43Q412 43 412 30Q412 28 406 21T389 6T362 -8T328 -14Q310 -14 293 -7T263 17Q260 22 256 26T247 31Q242 31 233 25T208 11Q191 2 174 -6T136 -14Q92 -14 66 9Q52 22 44 40T35 79Q35 108 52 127T118 164L237 207ZM112 91Q112 85 114 75T124 55T143 38T175 31Q190 31 209 39T236 56Q245 65 246 76T249 103L251 162Q251 170 249 172T241 175Q236 175 225 173T200 165Q155 150 134 135T112 91ZM209 548Q200 559 196 559T182 548L108 455Q103 453 96 456T88 464L178 636Q195 668 213 636L304 464Q303 459 295 456T282 455L209 548Z"  />
<glyph unicode="&#xE3;" horiz-adv-x="404" d="M237 207Q248 211 251 218T254 236L255 282Q255 296 253 311T242 339T220 360T182 369Q161 369 141 358T118 324Q117 312 116 304T108 290Q97 281 80 276T51 271Q37 271 37 285Q37 304 56 326T103 366T163 396T223 408Q277 408 303 378T327 291L321 117Q319 82 328 56T367 30Q375 30 381 32T392 36Q396 38 399 40T405 43Q412 43 412 30Q412 28 406 21T389 6T362 -8T328 -14Q310 -14 293 -7T263 17Q260 22 256 26T247 31Q242 31 233 25T208 11Q191 2 174 -6T136 -14Q92 -14 66 9Q52 22 44 40T35 79Q35 108 52 127T118 164L237 207ZM112 91Q112 85 114 75T124 55T143 38T175 31Q190 31 209 39T236 56Q245 65 246 76T249 103L251 162Q251 170 249 172T241 175Q236 175 225 173T200 165Q155 150 134 135T112 91ZM230 567Q245 567 255 568T274 573T289 584T305 605Q310 607 315 606T322 599Q317 580 306 560T285 528Q274 518 264 515T236 512H184Q151 512 134 500T103 461Q99 458 94 459T86 465Q87 471 90 482T99 505T111 527T123 544Q134 557 146 562T177 567H230Z"  />
<glyph unicode="&#xE4;" horiz-adv-x="404" d="M237 207Q248 211 251 218T254 236L255 282Q255 296 253 311T242 339T220 360T182 369Q161 369 141 358T118 324Q117 312 116 304T108 290Q97 281 80 276T51 271Q37 271 37 285Q37 304 56 326T103 366T163 396T223 408Q277 408 303 378T327 291L321 117Q319 82 328 56T367 30Q375 30 381 32T392 36Q396 38 399 40T405 43Q412 43 412 30Q412 28 406 21T389 6T362 -8T328 -14Q310 -14 293 -7T263 17Q260 22 256 26T247 31Q242 31 233 25T208 11Q191 2 174 -6T136 -14Q92 -14 66 9Q52 22 44 40T35 79Q35 108 52 127T118 164L237 207ZM112 91Q112 85 114 75T124 55T143 38T175 31Q190 31 209 39T236 56Q245 65 246 76T249 103L251 162Q251 170 249 172T241 175Q236 175 225 173T200 165Q155 150 134 135T112 91ZM108 502Q87 502 74 515T59 551Q58 573 72 588T108 603Q130 603 144 588T158 555Q158 532 144 517T108 502ZM283 502Q262 502 248 515T232 552Q232 573 246 588T283 603Q305 603 318 588T331 556Q331 533 318 518T283 502Z"  />
<glyph unicode="&#xE5;" horiz-adv-x="404" d="M237 207Q248 211 251 218T254 236L255 282Q255 296 253 311T242 339T220 360T182 369Q161 369 141 358T118 324Q117 312 116 304T108 290Q97 281 80 276T51 271Q37 271 37 285Q37 304 56 326T103 366T163 396T223 408Q277 408 303 378T327 291L321 117Q319 82 328 56T367 30Q375 30 381 32T392 36Q396 38 399 40T405 43Q412 43 412 30Q412 28 406 21T389 6T362 -8T328 -14Q310 -14 293 -7T263 17Q260 22 256 26T247 31Q242 31 233 25T208 11Q191 2 174 -6T136 -14Q92 -14 66 9Q52 22 44 40T35 79Q35 108 52 127T118 164L237 207ZM112 91Q112 85 114 75T124 55T143 38T175 31Q190 31 209 39T236 56Q245 65 246 76T249 103L251 162Q251 170 249 172T241 175Q236 175 225 173T200 165Q155 150 134 135T112 91ZM202 638Q240 638 263 614T287 557Q287 525 263 501T202 476Q183 476 168 482T141 500T123 526T117 557Q117 589 140 613T202 638ZM157 557Q157 534 170 519T202 504Q222 504 234 519T247 557Q247 580 235 594T202 609Q183 609 170 595T157 557Z"  />
<glyph unicode="&#xE6;" horiz-adv-x="585" d="M243 163Q243 175 238 177T221 175L177 160Q111 137 111 86Q111 61 126 46T165 31Q186 31 202 41T226 59Q243 77 243 110V163ZM243 272Q243 290 242 308T234 341T214 365T175 374Q144 374 131 358T116 326Q115 317 113 309T105 295Q97 289 80 283T49 276Q37 276 37 290Q37 307 52 327T90 363Q110 377 140 392T214 408Q248 408 269 393T301 352Q324 374 357 391T438 408Q463 408 486 401T528 380T557 347T568 306Q568 286 550 280L329 209Q318 205 315 201T311 186V162Q311 101 345 70T435 39Q466 39 492 51T551 102Q557 105 563 100T568 90Q537 33 496 10T398 -14Q348 -14 315 5T264 51L223 23Q194 3 172 -5T121 -14Q86 -14 61 10T35 74Q35 109 59 132T114 166L220 206Q235 211 239 215T243 231V272ZM442 278Q466 286 476 292T486 315Q486 342 464 360T413 378Q390 378 371 367T339 339T318 299T311 254Q311 243 314 240T329 241L442 278Z"  />
<glyph unicode="&#xE7;" horiz-adv-x="401" d="M236 -13Q235 -14 231 -14Q191 -14 156 -2T94 37Q68 63 52 99T36 185Q36 225 50 265T95 337T170 388T278 408Q295 408 321 404T367 391Q373 386 377 375T382 351Q382 337 376 326T360 314Q352 314 346 321Q329 341 303 357T246 374Q220 374 195 364T151 333T120 283T108 213Q108 184 118 154T148 98T199 58T269 42Q313 42 338 59T380 102Q386 104 391 100T398 88Q378 43 343 21T270 -8L241 -55Q234 -67 249 -76Q267 -88 278 -103T290 -139Q290 -156 282 -170T261 -194T232 -211T198 -217Q173 -217 160 -209T147 -186Q147 -178 152 -171T169 -163Q175 -163 181 -167T194 -176T205 -185T215 -189Q223 -189 231 -183T239 -161Q239 -144 223 -128T184 -102V-97L236 -13Z"  />
<glyph unicode="&#xE8;" horiz-adv-x="396" d="M130 256Q110 256 107 252T103 229Q103 191 114 157T146 98T198 57T269 42Q294 42 316 52T361 91Q369 93 373 90T379 79Q367 53 348 36T308 7T264 -9T222 -14Q173 -14 136 4T77 52Q54 81 45 115T35 182Q35 228 49 269T90 341T154 390T236 408Q268 408 294 398T339 371T368 333T378 289Q378 278 377 272T374 263Q372 258 360 257T315 256H130ZM192 286Q247 286 268 288T296 296Q298 298 300 301T302 315Q302 325 298 336T285 357T262 372T225 378Q203 378 183 369T148 347T124 319T114 291Q114 289 115 288T121 286H192ZM268 474Q268 467 260 464T247 462L130 589Q113 607 113 619Q113 628 132 644Q153 658 166 658Q174 658 179 652T189 635L268 474Z"  />
<glyph unicode="&#xE9;" horiz-adv-x="396" d="M130 256Q110 256 107 252T103 229Q103 191 114 157T146 98T198 57T269 42Q294 42 316 52T361 91Q369 93 373 90T379 79Q367 53 348 36T308 7T264 -9T222 -14Q173 -14 136 4T77 52Q54 81 45 115T35 182Q35 228 49 269T90 341T154 390T236 408Q268 408 294 398T339 371T368 333T378 289Q378 278 377 272T374 263Q372 258 360 257T315 256H130ZM192 286Q247 286 268 288T296 296Q298 298 300 301T302 315Q302 325 298 336T285 357T262 372T225 378Q203 378 183 369T148 347T124 319T114 291Q114 289 115 288T121 286H192ZM195 454Q190 453 185 456T178 465L264 628Q269 636 274 644T288 652Q301 652 319 637Q327 631 331 624T336 611Q336 600 320 584L195 454Z"  />
<glyph unicode="&#xEA;" horiz-adv-x="396" d="M130 256Q110 256 107 252T103 229Q103 191 114 157T146 98T198 57T269 42Q294 42 316 52T361 91Q369 93 373 90T379 79Q367 53 348 36T308 7T264 -9T222 -14Q173 -14 136 4T77 52Q54 81 45 115T35 182Q35 228 49 269T90 341T154 390T236 408Q268 408 294 398T339 371T368 333T378 289Q378 278 377 272T374 263Q372 258 360 257T315 256H130ZM192 286Q247 286 268 288T296 296Q298 298 300 301T302 315Q302 325 298 336T285 357T262 372T225 378Q203 378 183 369T148 347T124 319T114 291Q114 289 115 288T121 286H192ZM243 548Q234 559 230 559T216 548L142 456Q137 454 130 457T122 465L212 642Q229 675 247 642L338 465Q337 460 329 457T316 456L243 548Z"  />
<glyph unicode="&#xEB;" horiz-adv-x="396" d="M130 256Q110 256 107 252T103 229Q103 191 114 157T146 98T198 57T269 42Q294 42 316 52T361 91Q369 93 373 90T379 79Q367 53 348 36T308 7T264 -9T222 -14Q173 -14 136 4T77 52Q54 81 45 115T35 182Q35 228 49 269T90 341T154 390T236 408Q268 408 294 398T339 371T368 333T378 289Q378 278 377 272T374 263Q372 258 360 257T315 256H130ZM192 286Q247 286 268 288T296 296Q298 298 300 301T302 315Q302 325 298 336T285 357T262 372T225 378Q203 378 183 369T148 347T124 319T114 291Q114 289 115 288T121 286H192ZM145 502Q125 502 112 514T98 549Q97 569 110 583T145 598Q166 598 179 584T193 552Q193 530 180 516T145 502ZM310 502Q290 502 276 514T261 550Q261 570 275 584T310 598Q331 598 343 584T356 553Q356 531 344 517T310 502Z"  />
<glyph unicode="&#xEC;" horiz-adv-x="257" d="M98 287Q98 302 98 311T95 326T87 337T71 349L62 355Q59 358 59 364T63 373Q72 376 85 382T114 395T143 409T166 422Q174 422 176 416Q174 390 173 357T172 292V112Q172 85 173 69T177 43T188 31T210 25L231 22Q236 18 235 9T229 -3Q206 -1 184 -1T135 0Q83 0 41 -3Q36 -1 35 8T39 22L60 25Q74 27 81 30T93 43T97 68T98 112V287ZM165 474Q165 467 157 464T144 462L27 589Q10 607 10 619Q10 628 29 644Q50 658 63 658Q71 658 76 652T86 635L165 474Z"  />
<glyph unicode="&#xED;" horiz-adv-x="257" d="M98 287Q98 302 98 311T95 326T87 337T71 349L62 355Q59 358 59 364T63 373Q72 376 85 382T114 395T143 409T166 422Q174 422 176 416Q174 390 173 357T172 292V112Q172 85 173 69T177 43T188 31T210 25L231 22Q236 18 235 9T229 -3Q206 -1 184 -1T135 0Q83 0 41 -3Q36 -1 35 8T39 22L60 25Q74 27 81 30T93 43T97 68T98 112V287ZM115 468Q110 467 105 470T98 479L184 642Q189 650 194 658T208 666Q221 666 239 651Q247 645 251 638T256 625Q256 614 240 598L115 468Z"  />
<glyph unicode="&#xEE;" horiz-adv-x="257" d="M98 287Q98 302 98 311T95 326T87 337T71 349L62 355Q59 358 59 364T63 373Q72 376 85 382T114 395T143 409T166 422Q174 422 176 416Q174 390 173 357T172 292V112Q172 85 173 69T177 43T188 31T210 25L231 22Q236 18 235 9T229 -3Q206 -1 184 -1T135 0Q83 0 41 -3Q36 -1 35 8T39 22L60 25Q74 27 81 30T93 43T97 68T98 112V287ZM145 547Q136 558 132 558T118 547L44 455Q39 453 32 456T24 464L114 641Q131 674 149 641L240 464Q239 459 231 456T218 455L145 547Z"  />
<glyph unicode="&#xEF;" horiz-adv-x="257" d="M98 287Q98 302 98 311T95 326T87 337T71 349L62 355Q59 358 59 364T63 373Q72 376 85 382T114 395T143 409T166 422Q174 422 176 416Q174 390 173 357T172 292V112Q172 85 173 69T177 43T188 31T210 25L231 22Q236 18 235 9T229 -3Q206 -1 184 -1T135 0Q83 0 41 -3Q36 -1 35 8T39 22L60 25Q74 27 81 30T93 43T97 68T98 112V287ZM43 502Q22 502 9 515T-6 551Q-7 573 7 588T43 603Q65 603 79 588T93 555Q93 532 79 517T43 502ZM218 502Q197 502 183 515T167 552Q167 573 181 588T218 603Q240 603 253 588T266 556Q266 533 253 518T218 502Z"  />
<glyph unicode="&#xF0;" horiz-adv-x="484" d="M121 204Q121 172 128 139T151 78T189 34T246 16Q280 16 304 32T342 76T362 137T369 206Q369 255 363 285T346 336Q333 360 306 369T250 378Q222 378 199 366T158 330T131 275T121 204ZM332 578Q363 545 385 506T421 424T442 339T449 255Q449 130 394 58T234 -14Q192 -14 156 -1T93 39T51 104T35 190Q35 235 53 275T101 344T170 391T254 408Q271 408 298 405T351 387Q343 425 325 469T277 549L146 481Q137 485 133 494T132 514L256 579Q239 598 218 617T172 652T121 678T67 692Q63 697 64 704T70 715Q135 712 198 682T308 606L420 664Q431 662 435 653T436 632L332 578Z"  />
<glyph unicode="&#xF1;" horiz-adv-x="525" d="M98 287Q98 302 98 311T95 326T87 337T71 349L62 355Q59 358 59 364T63 373Q72 376 85 382T114 395T142 409T163 422Q171 422 174 415Q172 398 172 387T172 368Q172 357 183 357Q215 377 250 392T323 408Q354 408 376 398T412 371T433 332T440 284V112Q440 85 441 69T445 43T456 31T478 25L500 22Q505 18 504 9T498 -3Q475 -1 453 -1T404 0Q351 0 311 -3Q306 -1 305 8T309 22L328 25Q342 27 349 31T361 44T365 69T366 112V261Q366 304 345 332T272 360Q243 360 221 350T187 325Q177 312 175 300T172 265V112Q172 85 173 69T177 44T188 31T210 25L228 22Q233 18 232 9T226 -3Q185 0 135 0Q83 0 41 -3Q36 -1 35 8T39 22L60 25Q74 27 81 30T93 43T97 68T98 112V287ZM297 578Q312 578 323 579T342 584T357 596T374 617Q379 619 384 618T391 611Q386 591 375 570T353 538Q342 528 332 525T304 522H251Q217 522 200 510T168 470Q164 467 159 468T151 474Q152 480 155 491T164 514T176 538T188 555Q200 568 212 573T243 578H297Z"  />
<glyph unicode="&#xF2;" horiz-adv-x="486" d="M248 408Q290 408 327 393T391 351T435 285T451 201Q451 154 436 115T393 47T326 2T240 -14Q197 -14 160 0T95 42T51 107T35 192Q35 239 51 279T97 347T165 392T248 408ZM365 185Q365 217 358 251T336 313T297 360T236 378Q186 378 154 333T121 205Q121 171 129 137T152 76T192 33T250 16Q283 16 305 31T340 71T359 126T365 185ZM278 471Q278 464 270 461T257 459L140 586Q123 604 123 616Q123 625 142 641Q163 655 176 655Q184 655 189 649T199 632L278 471Z"  />
<glyph unicode="&#xF3;" horiz-adv-x="486" d="M248 408Q290 408 327 393T391 351T435 285T451 201Q451 154 436 115T393 47T326 2T240 -14Q197 -14 160 0T95 42T51 107T35 192Q35 239 51 279T97 347T165 392T248 408ZM365 185Q365 217 358 251T336 313T297 360T236 378Q186 378 154 333T121 205Q121 171 129 137T152 76T192 33T250 16Q283 16 305 31T340 71T359 126T365 185ZM219 458Q214 457 209 460T202 469L288 632Q293 640 298 648T312 656Q325 656 343 641Q351 635 355 628T360 615Q360 604 344 588L219 458Z"  />
<glyph unicode="&#xF4;" horiz-adv-x="486" d="M248 408Q290 408 327 393T391 351T435 285T451 201Q451 154 436 115T393 47T326 2T240 -14Q197 -14 160 0T95 42T51 107T35 192Q35 239 51 279T97 347T165 392T248 408ZM365 185Q365 217 358 251T336 313T297 360T236 378Q186 378 154 333T121 205Q121 171 129 137T152 76T192 33T250 16Q283 16 305 31T340 71T359 126T365 185ZM253 547Q244 558 240 558T226 547L152 455Q147 453 140 456T132 464L222 641Q239 674 257 641L348 464Q347 459 339 456T326 455L253 547Z"  />
<glyph unicode="&#xF5;" horiz-adv-x="486" d="M248 408Q290 408 327 393T391 351T435 285T451 201Q451 154 436 115T393 47T326 2T240 -14Q197 -14 160 0T95 42T51 107T35 192Q35 239 51 279T97 347T165 392T248 408ZM365 185Q365 217 358 251T336 313T297 360T236 378Q186 378 154 333T121 205Q121 171 129 137T152 76T192 33T250 16Q283 16 305 31T340 71T359 126T365 185ZM271 570Q286 570 296 571T315 576T330 587T346 608Q351 610 356 609T363 602Q358 583 347 563T326 531Q315 521 305 518T277 515H225Q192 515 175 503T144 464Q140 461 135 462T127 468Q128 474 131 485T140 508T152 530T164 547Q175 560 187 565T218 570H271Z"  />
<glyph unicode="&#xF6;" horiz-adv-x="486" d="M248 408Q290 408 327 393T391 351T435 285T451 201Q451 154 436 115T393 47T326 2T240 -14Q197 -14 160 0T95 42T51 107T35 192Q35 239 51 279T97 347T165 392T248 408ZM365 185Q365 217 358 251T336 313T297 360T236 378Q186 378 154 333T121 205Q121 171 129 137T152 76T192 33T250 16Q283 16 305 31T340 71T359 126T365 185ZM150 502Q129 502 116 515T101 551Q100 573 114 588T150 603Q172 603 186 588T200 555Q200 532 186 517T150 502ZM325 502Q304 502 290 515T274 552Q274 573 288 588T325 603Q347 603 360 588T373 556Q373 533 360 518T325 502Z"  />
<glyph unicode="&#xF7;" horiz-adv-x="500" d="M248 128Q265 128 278 115T292 84Q292 65 279 52T248 39Q229 39 216 52T203 84Q203 102 216 115T248 128ZM248 283Q229 283 216 296T203 328Q203 346 216 359T248 372Q265 372 278 359T292 328Q292 309 279 296T248 283ZM443 181H58V230H443V181Z"  />
<glyph unicode="&#xF8;" horiz-adv-x="486" d="M319 341Q303 358 283 368T236 378Q184 378 151 333T118 205Q118 174 124 144T144 88L319 341ZM163 58Q180 38 201 27T250 16Q284 16 307 31T343 71T362 126T368 185Q368 217 362 250T340 312L163 58ZM376 364Q411 337 431 296T451 201Q451 154 436 115T393 47T326 2T240 -14Q179 -14 133 14L96 -41Q86 -42 79 -36T70 -19L106 33Q73 59 54 99T35 192Q35 239 51 279T97 347T165 392T248 408Q303 408 348 383L382 432Q391 433 400 427T410 413L376 364Z"  />
<glyph unicode="&#xF9;" horiz-adv-x="512" d="M159 147Q159 121 163 100T177 64T205 41T252 32Q272 32 294 40T333 62Q343 71 348 84T353 120V284Q353 308 352 322T346 343T335 354T316 363L303 368Q298 371 298 379T304 390Q319 390 336 391T369 395T399 401T421 408Q429 406 430 401Q427 372 427 314V146Q427 86 432 62T458 37Q474 37 497 42Q502 38 502 27T496 13Q481 10 464 7T429 -1T395 -11T365 -24Q356 -24 353 -17V24Q353 38 344 38Q333 31 318 22T286 5T248 -8T206 -14Q140 -14 113 18T85 111V278Q85 302 85 316T81 339T72 353T55 363L43 368Q38 372 39 380T45 390Q80 391 107 396T152 408Q161 407 162 401Q160 388 160 370T159 314V147ZM276 474Q276 467 268 464T255 462L138 589Q121 607 121 619Q121 628 140 644Q161 658 174 658Q182 658 187 652T197 635L276 474Z"  />
<glyph unicode="&#xFA;" horiz-adv-x="512" d="M159 147Q159 121 163 100T177 64T205 41T252 32Q272 32 294 40T333 62Q343 71 348 84T353 120V284Q353 308 352 322T346 343T335 354T316 363L303 368Q298 371 298 379T304 390Q319 390 336 391T369 395T399 401T421 408Q429 406 430 401Q427 372 427 314V146Q427 86 432 62T458 37Q474 37 497 42Q502 38 502 27T496 13Q481 10 464 7T429 -1T395 -11T365 -24Q356 -24 353 -17V24Q353 38 344 38Q333 31 318 22T286 5T248 -8T206 -14Q140 -14 113 18T85 111V278Q85 302 85 316T81 339T72 353T55 363L43 368Q38 372 39 380T45 390Q80 391 107 396T152 408Q161 407 162 401Q160 388 160 370T159 314V147ZM230 466Q225 465 220 468T213 477L299 640Q304 648 309 656T323 664Q336 664 354 649Q362 643 366 636T371 623Q371 612 355 596L230 466Z"  />
<glyph unicode="&#xFB;" horiz-adv-x="512" d="M159 147Q159 121 163 100T177 64T205 41T252 32Q272 32 294 40T333 62Q343 71 348 84T353 120V284Q353 308 352 322T346 343T335 354T316 363L303 368Q298 371 298 379T304 390Q319 390 336 391T369 395T399 401T421 408Q429 406 430 401Q427 372 427 314V146Q427 86 432 62T458 37Q474 37 497 42Q502 38 502 27T496 13Q481 10 464 7T429 -1T395 -11T365 -24Q356 -24 353 -17V24Q353 38 344 38Q333 31 318 22T286 5T248 -8T206 -14Q140 -14 113 18T85 111V278Q85 302 85 316T81 339T72 353T55 363L43 368Q38 372 39 380T45 390Q80 391 107 396T152 408Q161 407 162 401Q160 388 160 370T159 314V147ZM261 557Q252 568 248 568T234 557L160 465Q155 463 148 466T140 474L230 651Q247 684 265 651L356 474Q355 469 347 466T334 465L261 557Z"  />
<glyph unicode="&#xFC;" horiz-adv-x="512" d="M159 147Q159 121 163 100T177 64T205 41T252 32Q272 32 294 40T333 62Q343 71 348 84T353 120V284Q353 308 352 322T346 343T335 354T316 363L303 368Q298 371 298 379T304 390Q319 390 336 391T369 395T399 401T421 408Q429 406 430 401Q427 372 427 314V146Q427 86 432 62T458 37Q474 37 497 42Q502 38 502 27T496 13Q481 10 464 7T429 -1T395 -11T365 -24Q356 -24 353 -17V24Q353 38 344 38Q333 31 318 22T286 5T248 -8T206 -14Q140 -14 113 18T85 111V278Q85 302 85 316T81 339T72 353T55 363L43 368Q38 372 39 380T45 390Q80 391 107 396T152 408Q161 407 162 401Q160 388 160 370T159 314V147ZM161 502Q140 502 127 515T112 551Q111 573 125 588T161 603Q183 603 197 588T211 555Q211 532 197 517T161 502ZM336 502Q315 502 301 515T285 552Q285 573 299 588T336 603Q358 603 371 588T384 556Q384 533 371 518T336 502Z"  />
<glyph unicode="&#xFD;" horiz-adv-x="438" d="M68 -249Q46 -249 35 -237T24 -206Q24 -186 35 -176T64 -166H83Q105 -166 116 -148Q138 -114 152 -85T174 -37Q176 -31 180 -18T184 6Q184 21 181 34T167 75L89 289Q83 307 78 320T66 343T52 358T30 367L5 372Q0 376 1 385T8 397Q56 394 103 394Q142 394 190 397Q196 395 196 386T192 372L167 367Q145 362 145 354Q145 349 148 337T157 309T167 280T174 260L206 168Q208 162 212 151T221 128T229 107T235 97Q237 99 247 119T272 171L306 250Q323 289 332 315T341 350Q341 355 336 360T317 367L286 372Q281 376 281 385T288 397Q336 394 376 394Q395 394 413 394T452 397Q458 394 458 386T454 372L437 369Q425 367 415 360T395 341T375 309T352 263L296 148Q284 123 264 81T220 -11T174 -110T132 -202Q119 -231 102 -240T68 -249ZM229 458Q224 457 219 460T212 469L298 632Q303 640 308 648T322 656Q335 656 353 641Q361 635 365 628T370 615Q370 604 354 588L229 458Z"  />
<glyph unicode="&#xFE;" horiz-adv-x="499" d="M151 -143Q151 -170 152 -186T156 -210T167 -222T189 -228L228 -233Q233 -237 232 -246T226 -258Q190 -256 165 -256T114 -255Q62 -255 20 -258Q15 -256 14 -247T18 -233L39 -230Q53 -228 60 -225T72 -212T76 -187T77 -143V544Q77 566 77 579T73 601T64 614T46 627L36 633Q32 635 32 643T36 653Q45 656 57 660T85 670T115 681T145 695Q152 695 155 689Q153 663 152 631T151 565V374Q151 361 158 361Q163 363 176 370T209 386T251 401T298 408Q336 408 366 394T419 355T452 298T464 228Q464 175 446 131T396 54T319 4T223 -14Q207 -14 190 -13T165 -10Q158 -12 155 -17T151 -38V-143ZM151 101Q151 78 158 67T182 43Q197 31 217 25T257 19Q286 19 309 32T349 69T374 124T383 192Q383 225 375 255T349 308T307 346T248 360Q216 360 194 351T163 332Q156 324 154 311T151 273V101Z"  />
<glyph unicode="&#xFF;" horiz-adv-x="438" d="M68 -249Q46 -249 35 -237T24 -206Q24 -186 35 -176T64 -166H83Q105 -166 116 -148Q138 -114 152 -85T174 -37Q176 -31 180 -18T184 6Q184 21 181 34T167 75L89 289Q83 307 78 320T66 343T52 358T30 367L5 372Q0 376 1 385T8 397Q56 394 103 394Q142 394 190 397Q196 395 196 386T192 372L167 367Q145 362 145 354Q145 349 148 337T157 309T167 280T174 260L206 168Q208 162 212 151T221 128T229 107T235 97Q237 99 247 119T272 171L306 250Q323 289 332 315T341 350Q341 355 336 360T317 367L286 372Q281 376 281 385T288 397Q336 394 376 394Q395 394 413 394T452 397Q458 394 458 386T454 372L437 369Q425 367 415 360T395 341T375 309T352 263L296 148Q284 123 264 81T220 -11T174 -110T132 -202Q119 -231 102 -240T68 -249ZM153 502Q132 502 119 515T104 551Q103 573 117 588T153 603Q175 603 189 588T203 555Q203 532 189 517T153 502ZM328 502Q307 502 293 515T277 552Q277 573 291 588T328 603Q350 603 363 588T376 556Q376 533 363 518T328 502Z"  />
<glyph unicode="&#x100;" horiz-adv-x="623" d="M407 232Q402 249 396 253T366 257H215Q196 257 189 253T177 233L142 128Q120 62 120 45Q120 36 125 32T149 25L182 22Q187 18 187 9T180 -3Q160 -1 136 -1T76 0Q51 0 26 -1T-20 -3Q-25 0 -26 9T-22 22L11 25Q29 27 44 37T71 74Q84 108 105 160T159 297L261 567Q272 594 276 610T278 638Q296 643 309 654T330 676Q335 676 339 674T345 667Q355 634 366 600T389 533L526 131Q537 99 545 79T563 48T583 32T611 25L638 22Q643 18 643 9T638 -3Q607 -1 579 -1T517 0Q481 0 453 -1T402 -3Q396 0 396 9T400 22L429 25Q445 27 454 31T464 43Q464 51 461 64T451 96L407 232ZM209 321Q203 304 206 301T230 297H353Q375 297 378 302T375 328L321 491Q315 509 309 527T298 554H296Q294 550 287 534T272 495L209 321ZM205 722Q197 732 197 750T205 779H425Q434 769 434 751T425 722H205Z"  />
<glyph unicode="&#x101;" horiz-adv-x="404" d="M237 207Q248 211 251 218T254 236L255 282Q255 296 253 311T242 339T220 360T182 369Q161 369 141 358T118 324Q117 312 116 304T108 290Q97 281 80 276T51 271Q37 271 37 285Q37 304 56 326T103 366T163 396T223 408Q277 408 303 378T327 291L321 117Q319 82 328 56T367 30Q375 30 381 32T392 36Q396 38 399 40T405 43Q412 43 412 30Q412 28 406 21T389 6T362 -8T328 -14Q310 -14 293 -7T263 17Q260 22 256 26T247 31Q242 31 233 25T208 11Q191 2 174 -6T136 -14Q92 -14 66 9Q52 22 44 40T35 79Q35 108 52 127T118 164L237 207ZM112 91Q112 85 114 75T124 55T143 38T175 31Q190 31 209 39T236 56Q245 65 246 76T249 103L251 162Q251 170 249 172T241 175Q236 175 225 173T200 165Q155 150 134 135T112 91ZM97 519Q89 530 89 547T97 576H301Q308 565 308 548T301 519H97Z"  />
<glyph unicode="&#x102;" horiz-adv-x="623" d="M407 232Q402 249 396 253T366 257H215Q196 257 189 253T177 233L142 128Q120 62 120 45Q120 36 125 32T149 25L182 22Q187 18 187 9T180 -3Q160 -1 136 -1T76 0Q51 0 26 -1T-20 -3Q-25 0 -26 9T-22 22L11 25Q29 27 44 37T71 74Q84 108 105 160T159 297L261 567Q272 594 276 610T278 638Q296 643 309 654T330 676Q335 676 339 674T345 667Q355 634 366 600T389 533L526 131Q537 99 545 79T563 48T583 32T611 25L638 22Q643 18 643 9T638 -3Q607 -1 579 -1T517 0Q481 0 453 -1T402 -3Q396 0 396 9T400 22L429 25Q445 27 454 31T464 43Q464 51 461 64T451 96L407 232ZM209 321Q203 304 206 301T230 297H353Q375 297 378 302T375 328L321 491Q315 509 309 527T298 554H296Q294 550 287 534T272 495L209 321ZM322 715Q263 715 232 746T203 843Q207 847 217 847T231 843Q239 811 261 794T322 777Q360 777 383 795T414 843Q418 847 427 847T441 843Q443 778 412 747T322 715Z"  />
<glyph unicode="&#x103;" horiz-adv-x="404" d="M237 207Q248 211 251 218T254 236L255 282Q255 296 253 311T242 339T220 360T182 369Q161 369 141 358T118 324Q117 312 116 304T108 290Q97 281 80 276T51 271Q37 271 37 285Q37 304 56 326T103 366T163 396T223 408Q277 408 303 378T327 291L321 117Q319 82 328 56T367 30Q375 30 381 32T392 36Q396 38 399 40T405 43Q412 43 412 30Q412 28 406 21T389 6T362 -8T328 -14Q310 -14 293 -7T263 17Q260 22 256 26T247 31Q242 31 233 25T208 11Q191 2 174 -6T136 -14Q92 -14 66 9Q52 22 44 40T35 79Q35 108 52 127T118 164L237 207ZM112 91Q112 85 114 75T124 55T143 38T175 31Q190 31 209 39T236 56Q245 65 246 76T249 103L251 162Q251 170 249 172T241 175Q236 175 225 173T200 165Q155 150 134 135T112 91ZM200 496Q148 496 120 528T96 627Q100 630 107 630T118 627Q127 587 151 570T200 553Q224 553 248 570T283 627Q286 630 293 630T305 627Q308 560 280 528T200 496Z"  />
<glyph unicode="&#x104;" horiz-adv-x="623" d="M353 297Q375 297 378 302T375 328L321 491Q315 509 309 527T298 554H296Q294 550 287 534T272 495L209 321Q203 304 206 301T230 297H353ZM215 257Q196 257 189 253T177 233L142 128Q120 62 120 45Q120 36 125 32T149 25L182 22Q187 18 187 9T180 -3Q160 -1 136 -1T76 0Q51 0 26 -1T-20 -3Q-25 0 -26 9T-22 22L11 25Q29 27 44 37T71 74Q84 108 105 160T159 297L261 567Q272 594 276 610T278 638Q296 643 309 654T330 676Q335 676 339 674T345 667Q355 634 366 600T389 533L526 131Q537 99 545 79T563 48T583 32T611 25L638 22Q643 18 643 9T638 -3Q624 -2 605 -1T581 0H570Q532 -26 513 -57T494 -114Q494 -147 513 -160T560 -174Q569 -174 582 -171T605 -162Q613 -167 613 -179Q594 -202 566 -212T511 -223Q471 -223 447 -199T422 -137Q422 -123 429 -106T449 -70T483 -34T531 -1Q518 -1 499 -1T461 -1T426 -2T402 -3Q396 0 396 9T400 22L429 25Q445 27 454 31T464 43Q464 51 461 64T451 96L407 232Q402 249 396 253T366 257H215Z"  />
<glyph unicode="&#x105;" horiz-adv-x="404" d="M112 91Q112 85 114 75T124 55T143 38T175 31Q190 31 209 39T236 56Q245 65 246 76T249 103L251 162Q251 170 249 172T241 175Q236 175 225 173T200 165Q155 150 134 135T112 91ZM237 207Q248 211 251 218T254 236L255 282Q255 296 253 311T242 339T220 360T182 369Q161 369 141 358T118 324Q117 312 116 304T108 290Q97 281 80 276T51 271Q37 271 37 285Q37 304 56 326T103 366T163 396T223 408Q277 408 303 378T327 291L321 117Q319 82 328 56T367 30Q375 30 381 32T392 36Q396 38 399 40T405 43Q412 43 412 30Q412 28 405 20T385 1Q358 -22 341 -50T324 -111Q324 -136 337 -149T369 -162Q386 -162 397 -159T418 -148Q427 -151 427 -163Q409 -187 384 -198T336 -209Q314 -209 299 -202T273 -185T259 -161T254 -137Q254 -107 273 -78T339 -13Q334 -14 332 -14T328 -14Q310 -14 293 -7T263 17Q260 22 256 26T247 31Q242 31 233 25T208 11Q191 2 174 -6T136 -14Q92 -14 66 9Q52 22 44 40T35 79Q35 108 52 127T118 164L237 207Z"  />
<glyph unicode="&#x106;" horiz-adv-x="696" d="M44 326Q44 410 78 478T170 591Q225 634 293 655T440 676Q460 676 483 674T531 669T577 662T617 652Q626 650 632 649T645 648Q645 639 646 624T649 589T653 547T659 501Q655 496 646 495T632 499Q626 524 614 550T579 597T518 631T427 645Q370 645 319 627T228 571T167 476T144 341Q144 262 167 202T231 100T325 37T441 15Q489 15 524 29T585 64T625 111T650 158Q655 162 664 161T676 154Q673 134 668 113T655 73T641 39T628 17Q619 15 610 13T593 7Q585 4 568 0T530 -7T484 -13T435 -16Q367 -16 304 -1T186 51Q126 92 85 160T44 326ZM372 706Q367 708 364 715T362 730L503 844Q522 858 530 858Q535 858 543 853T558 835Q566 821 566 811T565 794Q562 790 556 787T539 778L372 706Z"  />
<glyph unicode="&#x107;" horiz-adv-x="400" d="M278 408Q295 408 321 404T367 391Q373 386 377 375T382 351Q382 337 376 326T360 314Q352 314 346 321Q329 341 303 357T246 374Q220 374 195 364T151 333T120 283T108 213Q108 184 118 154T148 98T199 58T269 42Q313 42 338 59T380 102Q386 104 391 100T398 88Q385 60 366 41T324 9T277 -8T231 -14Q191 -14 156 -2T94 37Q68 63 52 99T36 185Q36 225 50 265T95 337T170 388T278 408ZM200 451Q195 450 190 453T183 462L269 625Q274 633 279 641T293 649Q306 649 324 634Q332 628 336 621T341 608Q341 597 325 581L200 451Z"  />
<glyph unicode="&#x10C;" horiz-adv-x="696" d="M44 326Q44 410 78 478T170 591Q225 634 293 655T440 676Q460 676 483 674T531 669T577 662T617 652Q626 650 632 649T645 648Q645 639 646 624T649 589T653 547T659 501Q655 496 646 495T632 499Q626 524 614 550T579 597T518 631T427 645Q370 645 319 627T228 571T167 476T144 341Q144 262 167 202T231 100T325 37T441 15Q489 15 524 29T585 64T625 111T650 158Q655 162 664 161T676 154Q673 134 668 113T655 73T641 39T628 17Q619 15 610 13T593 7Q585 4 568 0T530 -7T484 -13T435 -16Q367 -16 304 -1T186 51Q126 92 85 160T44 326ZM274 821Q274 827 278 833T289 840L403 785Q413 779 418 779T435 785L550 840Q555 839 558 833T561 821L439 713Q418 695 398 713L274 821Z"  />
<glyph unicode="&#x10D;" horiz-adv-x="400" d="M278 408Q295 408 321 404T367 391Q373 386 377 375T382 351Q382 337 376 326T360 314Q352 314 346 321Q329 341 303 357T246 374Q220 374 195 364T151 333T120 283T108 213Q108 184 118 154T148 98T199 58T269 42Q313 42 338 59T380 102Q386 104 391 100T398 88Q385 60 366 41T324 9T277 -8T231 -14Q191 -14 156 -2T94 37Q68 63 52 99T36 185Q36 225 50 265T95 337T170 388T278 408ZM228 572Q236 562 241 562T255 572L330 665Q335 666 341 663T348 652L258 475Q250 460 242 460T225 475L133 652Q134 660 141 662T153 665L228 572Z"  />
<glyph unicode="&#x10E;" horiz-adv-x="780" d="M128 530Q128 556 127 573T120 602T106 619T81 627L59 630Q53 634 53 643T60 655Q124 659 185 661T311 663Q374 663 428 657T531 633Q582 615 620 585T683 517T721 433T734 338Q734 242 690 165T559 40Q510 14 452 3T335 -8Q287 -8 243 -4T172 0Q140 0 111 0T47 -3Q42 -1 41 8T45 22L68 25Q90 28 102 33T120 51T127 87T128 150V530ZM210 173Q210 133 213 108T230 64Q247 41 276 32T353 23Q426 23 479 45T566 109T617 208T634 336Q634 363 629 396T611 462T575 525T517 579T433 617T319 632Q274 632 250 628T220 618Q210 610 210 542V173ZM201 821Q201 827 205 833T216 840L330 785Q340 779 345 779T362 785L477 840Q482 839 485 833T488 821L366 713Q345 695 325 713L201 821Z"  />
<glyph unicode="&#x10F;" horiz-adv-x="509" d="M424 146Q424 86 428 58T453 30Q461 30 473 33T496 40Q501 38 501 25T495 8Q479 6 461 2T424 -6T390 -15T363 -24Q352 -24 352 -16V1Q352 12 352 20T350 32H346Q313 9 285 -2T220 -14Q178 -14 144 1T86 42T49 104T35 178Q35 230 53 272T105 345T182 391T277 408Q303 408 319 405T344 399Q350 399 350 413V564Q350 586 350 599T346 621T337 634T319 647L309 653Q305 655 305 663T309 673Q328 679 359 690T417 715Q424 715 427 709Q426 686 425 652T424 585V146ZM350 296Q350 311 347 319T339 335Q328 351 306 364T255 377Q221 377 195 364T152 327T126 274T117 211Q117 177 126 145T154 89T201 49T266 34Q286 34 308 42T343 62Q348 67 349 77T350 99V296ZM537 715Q544 715 551 706T559 663Q559 637 552 612T535 565T510 524T483 496Q474 493 469 499T467 513Q477 530 488 557T500 609Q500 615 495 627T485 646Q482 651 479 657T476 669Q476 674 481 681T495 696T515 709T537 715Z"  />
<glyph unicode="&#x110;" horiz-adv-x="786" d="M128 326H38Q31 331 31 343T38 361H128V505Q128 539 127 562T121 599T105 621T76 631L59 633Q53 636 53 645T60 657Q124 659 187 661T315 663Q378 663 430 658T531 634Q582 616 620 586T683 518T721 434T734 340Q734 243 690 165T559 40Q510 14 452 3T335 -8Q287 -8 243 -4T172 0Q140 0 111 0T47 -3Q42 -1 41 8T45 22L68 25Q90 28 102 33T120 51T127 87T128 150V326ZM210 361H354Q361 356 361 344T354 326H210V173Q210 133 213 108T230 64Q247 41 276 32T353 23Q426 23 479 45T566 109T617 208T634 336Q634 363 629 395T611 461T575 524T517 579T433 617T319 632Q274 632 250 628T220 618Q210 610 210 542V361Z"  />
<glyph unicode="&#x111;" horiz-adv-x="509" d="M350 296Q350 311 347 319T339 335Q328 351 306 364T255 377Q221 377 195 364T152 327T126 274T117 211Q117 177 126 145T154 89T201 49T266 34Q286 34 308 42T343 62Q348 67 349 77T350 99V296ZM495 525H424V146Q424 86 428 58T453 30Q461 30 473 33T496 40Q501 38 501 25T495 8Q479 6 461 2T424 -6T390 -15T363 -24Q352 -24 352 -16V1Q352 12 352 20T350 32H346Q313 9 285 -2T220 -14Q178 -14 144 1T86 42T49 104T35 178Q35 230 53 272T105 345T182 391T277 408Q303 408 319 405T344 399Q350 399 350 413V525H235V564H350Q350 586 349 599T345 621T336 635T319 647L309 653Q305 655 305 663T309 673Q328 679 359 690T417 715Q424 715 427 709Q426 686 425 652T424 585V564H495V525Z"  />
<glyph unicode="&#x112;" horiz-adv-x="584" d="M128 510Q128 549 127 572T120 609T102 628T67 636L51 638Q46 641 47 651T53 663Q85 661 112 661T171 660H359Q407 660 446 660T494 663Q496 657 498 642T503 607T506 567T510 530Q507 525 498 524T485 528Q479 546 474 561T461 588T441 609T409 623Q393 627 369 628T312 629H240Q229 629 223 628T214 623T211 611T210 589V389Q210 378 211 373T215 365T225 362T243 361H301Q333 361 355 362T386 367Q395 370 400 376T410 402L418 443Q422 448 431 448T444 442Q444 424 442 397T440 341Q440 314 442 288T444 245Q441 240 432 240T418 244L409 283Q406 297 400 307T378 321Q367 324 349 325T301 326H243Q220 326 215 323T210 299V158Q210 118 213 93T229 54Q233 49 240 45T261 38T295 33T350 31Q379 31 399 32T434 34T459 39T478 46Q492 54 510 79T549 143Q554 147 562 145T574 136Q571 123 566 104T554 64T541 25T529 -3Q394 0 261 0H171Q139 0 109 -1T35 -3Q30 -1 29 8T33 22L66 25Q87 27 99 32T118 50T126 87T128 150V510ZM190 722Q182 732 182 750T190 779H410Q419 769 419 751T410 722H190Z"  />
<glyph unicode="&#x113;" horiz-adv-x="396" d="M130 256Q110 256 107 252T103 229Q103 191 114 157T146 98T198 57T269 42Q294 42 316 52T361 91Q369 93 373 90T379 79Q367 53 348 36T308 7T264 -9T222 -14Q173 -14 136 4T77 52Q54 81 45 115T35 182Q35 228 49 269T90 341T154 390T236 408Q268 408 294 398T339 371T368 333T378 289Q378 278 377 272T374 263Q372 258 360 257T315 256H130ZM192 286Q247 286 268 288T296 296Q298 298 300 301T302 315Q302 325 298 336T285 357T262 372T225 378Q203 378 183 369T148 347T124 319T114 291Q114 289 115 288T121 286H192ZM128 509Q120 518 120 536T128 563H323Q330 554 330 536T323 509H128Z"  />
<glyph unicode="&#x116;" horiz-adv-x="584" d="M128 510Q128 549 127 572T120 609T102 628T67 636L51 638Q46 641 47 651T53 663Q85 661 112 661T171 660H359Q407 660 446 660T494 663Q496 657 498 642T503 607T506 567T510 530Q507 525 498 524T485 528Q479 546 474 561T461 588T441 609T409 623Q393 627 369 628T312 629H240Q229 629 223 628T214 623T211 611T210 589V389Q210 378 211 373T215 365T225 362T243 361H301Q333 361 355 362T386 367Q395 370 400 376T410 402L418 443Q422 448 431 448T444 442Q444 424 442 397T440 341Q440 314 442 288T444 245Q441 240 432 240T418 244L409 283Q406 297 400 307T378 321Q367 324 349 325T301 326H243Q220 326 215 323T210 299V158Q210 118 213 93T229 54Q233 49 240 45T261 38T295 33T350 31Q379 31 399 32T434 34T459 39T478 46Q492 54 510 79T549 143Q554 147 562 145T574 136Q571 123 566 104T554 64T541 25T529 -3Q394 0 261 0H171Q139 0 109 -1T35 -3Q30 -1 29 8T33 22L66 25Q87 27 99 32T118 50T126 87T128 150V510ZM308 707Q285 707 270 720T254 760Q253 783 268 798T308 814Q331 814 346 798T361 763Q361 738 346 723T308 707Z"  />
<glyph unicode="&#x117;" horiz-adv-x="396" d="M130 256Q110 256 107 252T103 229Q103 191 114 157T146 98T198 57T269 42Q294 42 316 52T361 91Q369 93 373 90T379 79Q367 53 348 36T308 7T264 -9T222 -14Q173 -14 136 4T77 52Q54 81 45 115T35 182Q35 228 49 269T90 341T154 390T236 408Q268 408 294 398T339 371T368 333T378 289Q378 278 377 272T374 263Q372 258 360 257T315 256H130ZM192 286Q247 286 268 288T296 296Q298 298 300 301T302 315Q302 325 298 336T285 357T262 372T225 378Q203 378 183 369T148 347T124 319T114 291Q114 289 115 288T121 286H192ZM232 604Q255 604 267 589T280 552Q280 526 265 514T229 502Q206 502 193 516T179 551Q179 576 194 590T232 604Z"  />
<glyph unicode="&#x118;" horiz-adv-x="584" d="M128 510Q128 549 127 572T120 609T102 628T67 636L51 638Q46 641 47 651T53 663Q85 661 112 661T171 660H359Q407 660 446 660T494 663Q496 657 498 642T503 607T506 567T510 530Q507 525 498 524T485 528Q479 546 474 561T461 588T441 609T409 623Q393 627 369 628T312 629H240Q229 629 223 628T214 623T211 611T210 589V389Q210 378 211 373T215 365T225 362T243 361H301Q333 361 355 362T386 367Q395 370 400 376T410 402L418 443Q422 448 431 448T444 442Q444 424 442 397T440 341Q440 314 442 288T444 245Q441 240 432 240T418 244L409 283Q406 297 400 307T378 321Q367 324 349 325T301 326H243Q220 326 215 323T210 299V158Q210 118 213 93T229 54Q233 49 240 45T261 38T295 33T350 31Q379 31 399 32T434 34T459 39T478 46Q492 54 510 79T549 143Q554 147 562 145T574 136Q571 123 566 104T554 64T541 25T529 -3Q519 -3 514 -3T498 -2Q461 -28 445 -57T428 -108Q428 -141 446 -154T493 -168Q502 -168 514 -166T537 -158Q545 -163 545 -175Q526 -198 498 -207T442 -217Q405 -217 380 -194T354 -134Q354 -103 379 -68T464 -2Q413 -1 363 -1T261 0H171Q139 0 109 -1T35 -3Q30 -1 29 8T33 22L66 25Q87 27 99 32T118 50T126 87T128 150V510Z"  />
<glyph unicode="&#x119;" horiz-adv-x="396" d="M192 286Q247 286 268 288T296 296Q298 298 300 301T302 315Q302 325 298 336T285 357T262 372T225 378Q203 378 183 369T148 347T124 319T114 291Q114 289 115 288T121 286H192ZM236 408Q268 408 294 398T339 371T368 333T378 289Q378 278 377 272T374 263Q372 258 360 257T315 256H130Q110 256 107 252T103 229Q103 191 114 157T146 98T198 57T269 42Q294 42 316 52T361 91Q369 93 373 90T379 79Q368 61 354 46T322 14Q282 -24 264 -57T245 -119Q245 -139 257 -150T287 -162Q304 -162 315 -159T336 -148Q345 -151 345 -163Q327 -187 301 -198T252 -209Q219 -209 198 -188T176 -140Q176 -126 180 -112T195 -82T225 -48T275 -6Q264 -11 252 -12T225 -14Q174 -14 137 4T77 52Q54 81 45 115T35 182Q35 228 49 269T90 341T154 390T236 408Z"  />
<glyph unicode="&#x11A;" horiz-adv-x="584" d="M128 510Q128 549 127 572T120 609T102 628T67 636L51 638Q46 641 47 651T53 663Q85 661 112 661T171 660H359Q407 660 446 660T494 663Q496 657 498 642T503 607T506 567T510 530Q507 525 498 524T485 528Q479 546 474 561T461 588T441 609T409 623Q393 627 369 628T312 629H240Q229 629 223 628T214 623T211 611T210 589V389Q210 378 211 373T215 365T225 362T243 361H301Q333 361 355 362T386 367Q395 370 400 376T410 402L418 443Q422 448 431 448T444 442Q444 424 442 397T440 341Q440 314 442 288T444 245Q441 240 432 240T418 244L409 283Q406 297 400 307T378 321Q367 324 349 325T301 326H243Q220 326 215 323T210 299V158Q210 118 213 93T229 54Q233 49 240 45T261 38T295 33T350 31Q379 31 399 32T434 34T459 39T478 46Q492 54 510 79T549 143Q554 147 562 145T574 136Q571 123 566 104T554 64T541 25T529 -3Q394 0 261 0H171Q139 0 109 -1T35 -3Q30 -1 29 8T33 22L66 25Q87 27 99 32T118 50T126 87T128 150V510ZM161 826Q161 833 165 839T175 846L289 789Q299 783 304 783T321 789L437 846Q442 845 445 839T448 826L326 713Q306 694 284 713L161 826Z"  />
<glyph unicode="&#x11B;" horiz-adv-x="396" d="M130 256Q110 256 107 252T103 229Q103 191 114 157T146 98T198 57T269 42Q294 42 316 52T361 91Q369 93 373 90T379 79Q367 53 348 36T308 7T264 -9T222 -14Q173 -14 136 4T77 52Q54 81 45 115T35 182Q35 228 49 269T90 341T154 390T236 408Q268 408 294 398T339 371T368 333T378 289Q378 278 377 272T374 263Q372 258 360 257T315 256H130ZM192 286Q247 286 268 288T296 296Q298 298 300 301T302 315Q302 325 298 336T285 357T262 372T225 378Q203 378 183 369T148 347T124 319T114 291Q114 289 115 288T121 286H192ZM213 570Q221 560 226 560T240 570L315 663Q320 664 326 661T333 650L243 473Q235 458 227 458T210 473L118 650Q119 658 126 660T138 663L213 570Z"  />
<glyph unicode="&#x11E;" horiz-adv-x="747" d="M648 102Q648 72 653 54T672 31Q678 25 671 19Q662 19 649 17T622 10Q582 -1 533 -8T443 -16Q353 -16 275 10T138 95Q93 140 70 198T46 322Q46 386 67 447T136 559Q187 612 263 644T453 676Q496 676 531 670T580 661Q594 658 613 654T642 652Q642 627 646 590T657 507Q655 501 645 500T630 504Q619 544 600 571T555 615T496 639T425 646Q352 646 300 622T213 558T163 466T146 358Q146 286 164 224T220 115T314 42T446 15Q493 15 520 23T556 45Q560 50 563 64T566 102V142Q566 173 565 191T557 219T537 232T501 239L457 244Q451 247 451 257T457 269Q479 267 517 267T600 266Q656 266 706 269Q711 266 711 258T707 244L691 242Q675 240 667 234T654 218T649 192T648 158V102ZM404 725Q345 725 314 756T285 853Q289 857 299 857T313 853Q321 822 343 805T404 788Q479 788 496 853Q500 857 509 857T523 853Q525 788 494 757T404 725Z"  />
<glyph unicode="&#x11F;" horiz-adv-x="446" d="M446 372Q450 370 451 364T453 350T449 338T440 331H368Q370 318 370 306T370 280Q370 254 362 226T334 175T282 136T202 121Q188 121 178 122T158 124Q153 121 146 117T132 105T119 89T114 69Q114 52 131 40T184 27Q210 27 240 28T303 30Q324 30 348 27T394 13T429 -21T443 -80Q443 -121 423 -155T368 -215T288 -255T194 -269Q148 -269 116 -258T65 -230T37 -193T28 -153Q28 -129 39 -116Q52 -102 71 -84T107 -49Q114 -42 118 -36T115 -25Q86 -17 64 5T42 54Q42 60 57 71Q70 79 83 91T110 117Q114 122 117 127T120 136Q107 143 94 153T70 179T52 213T45 257Q45 289 58 316T93 364T145 396T208 408Q237 408 262 402T304 388Q316 383 324 380T338 375T351 373T365 372H446ZM237 -32Q213 -32 188 -34T151 -43Q133 -54 118 -76T103 -127Q103 -168 136 -197T237 -226Q270 -226 297 -218T344 -194T374 -160T385 -119Q385 -73 355 -53T271 -32H237ZM217 150Q258 150 278 179T299 254Q299 279 294 302T277 342T250 369T210 379Q174 379 150 349T126 267Q126 240 133 219T153 182T182 159T217 150ZM220 482Q168 482 140 514T116 613Q120 616 127 616T138 613Q147 573 171 556T220 539Q244 539 268 556T303 613Q306 616 313 616T325 613Q328 546 300 514T220 482Z"  />
<glyph unicode="&#x122;" horiz-adv-x="747" d="M648 102Q648 72 653 54T672 31Q678 25 671 19Q662 19 649 17T622 10Q582 -1 533 -8T443 -16Q353 -16 275 10T138 95Q93 140 70 198T46 322Q46 386 67 447T136 559Q187 612 263 644T453 676Q496 676 531 670T580 661Q594 658 613 654T642 652Q642 627 646 590T657 507Q655 501 645 500T630 504Q619 544 600 571T555 615T496 639T425 646Q352 646 300 622T213 558T163 466T146 358Q146 286 164 224T220 115T314 42T446 15Q493 15 520 23T556 45Q560 50 563 64T566 102V142Q566 173 565 191T557 219T537 232T501 239L457 244Q451 247 451 257T457 269Q479 267 517 267T600 266Q656 266 706 269Q711 266 711 258T707 244L691 242Q675 240 667 234T654 218T649 192T648 158V102ZM410 -58Q421 -58 433 -63T454 -78T470 -104T477 -141Q477 -168 468 -188T444 -225T409 -251T367 -269Q361 -266 360 -254T362 -238Q371 -235 382 -229T402 -215T418 -195T425 -168Q425 -156 420 -148T407 -135T393 -126T383 -121Q368 -113 368 -96Q368 -82 379 -70T410 -58Z"  />
<glyph unicode="&#x123;" horiz-adv-x="446" d="M446 372Q450 370 451 364T453 350T449 338T440 331H368Q370 318 370 306T370 280Q370 254 362 226T334 175T282 136T202 121Q188 121 178 122T158 124Q153 121 146 117T132 105T119 89T114 69Q114 52 131 40T184 27Q210 27 240 28T303 30Q324 30 348 27T394 13T429 -21T443 -80Q443 -121 423 -155T368 -215T288 -255T194 -269Q148 -269 116 -258T65 -230T37 -193T28 -153Q28 -129 39 -116Q52 -102 71 -84T107 -49Q114 -42 118 -36T115 -25Q86 -17 64 5T42 54Q42 60 57 71Q70 79 83 91T110 117Q114 122 117 127T120 136Q107 143 94 153T70 179T52 213T45 257Q45 289 58 316T93 364T145 396T208 408Q237 408 262 402T304 388Q316 383 324 380T338 375T351 373T365 372H446ZM237 -32Q213 -32 188 -34T151 -43Q133 -54 118 -76T103 -127Q103 -168 136 -197T237 -226Q270 -226 297 -218T344 -194T374 -160T385 -119Q385 -73 355 -53T271 -32H237ZM217 150Q258 150 278 179T299 254Q299 279 294 302T277 342T250 369T210 379Q174 379 150 349T126 267Q126 240 133 219T153 182T182 159T217 150ZM228 496Q202 496 182 514T161 564Q161 590 170 609T194 643T229 667T271 683Q278 681 279 672T276 659Q267 656 257 651T238 638T223 620T217 599Q217 588 222 581T233 568T246 560T256 556Q270 547 270 533Q270 518 260 507T228 496Z"  />
<glyph unicode="&#x12A;" horiz-adv-x="338" d="M128 508Q128 548 127 572T120 609T102 628T67 636L42 638Q37 641 38 651T44 663Q82 661 110 661T170 660Q200 660 228 660T294 663Q299 661 300 651T296 638L271 636Q249 634 237 629T218 610T211 572T210 508V152Q210 112 211 89T218 52T236 33T271 25L296 22Q301 19 300 9T294 -3Q256 -1 228 -1T170 0Q138 0 110 0T44 -3Q39 -1 38 8T42 22L67 25Q89 28 101 33T120 51T127 88T128 152V508ZM67 722Q59 732 59 750T67 779H277Q285 769 285 751T277 722H67Z"  />
<glyph unicode="&#x12B;" horiz-adv-x="257" d="M98 287Q98 302 98 311T95 326T87 337T71 349L62 355Q59 358 59 364T63 373Q72 376 85 382T114 395T143 409T166 422Q174 422 176 416Q174 390 173 357T172 292V112Q172 85 173 69T177 43T188 31T210 25L231 22Q236 18 235 9T229 -3Q206 -1 184 -1T135 0Q83 0 41 -3Q36 -1 35 8T39 22L60 25Q74 27 81 30T93 43T97 68T98 112V287ZM29 514Q21 525 21 544T29 575H233Q240 564 240 545T233 514H29Z"  />
<glyph unicode="&#x12E;" horiz-adv-x="338" d="M128 508Q128 548 127 572T120 609T102 628T67 636L42 638Q37 641 38 651T44 663Q82 661 110 661T170 660Q200 660 228 660T294 663Q299 661 300 651T296 638L271 636Q249 634 237 629T218 610T211 572T210 508V152Q210 112 211 89T218 52T236 33T271 25L296 22Q301 19 300 9T294 -3Q271 -1 245 -1T211 0H208Q181 -26 170 -50T159 -94Q159 -131 178 -144T226 -158Q235 -158 248 -155T272 -147Q280 -152 280 -164Q261 -187 233 -199T175 -211Q135 -211 110 -187T85 -125Q85 -96 106 -65T173 -1Q162 -1 146 -1T112 -1T76 -1T44 -3Q39 -1 38 8T42 22L67 25Q89 28 101 33T120 51T127 88T128 152V508Z"  />
<glyph unicode="&#x12F;" horiz-adv-x="257" d="M131 624Q154 624 167 609T181 572Q181 545 165 533T128 520Q105 520 91 535T77 570Q77 595 92 609T131 624ZM98 287Q98 302 98 311T95 326T87 337T71 349L62 355Q59 358 59 364T63 373Q72 376 85 382T114 395T143 409T166 422Q174 422 176 416Q174 390 173 357T172 292V112Q172 85 173 69T177 43T188 31T210 25L231 22Q236 18 235 9T229 -3Q206 -1 191 -1T157 0Q136 -27 128 -50T120 -92Q120 -127 138 -140T185 -154Q194 -154 207 -152T230 -144Q238 -149 238 -161Q219 -184 193 -196T139 -209Q99 -209 77 -185T54 -123Q54 -94 74 -63T127 -1Q107 -1 82 -1T41 -3Q36 -1 35 8T39 22L60 25Q74 27 81 30T93 43T97 68T98 112V287Z"  />
<glyph unicode="&#x130;" horiz-adv-x="338" d="M128 508Q128 548 127 572T120 609T102 628T67 636L42 638Q37 641 38 651T44 663Q82 661 110 661T170 660Q200 660 228 660T294 663Q299 661 300 651T296 638L271 636Q249 634 237 629T218 610T211 572T210 508V152Q210 112 211 89T218 52T236 33T271 25L296 22Q301 19 300 9T294 -3Q256 -1 228 -1T170 0Q138 0 110 0T44 -3Q39 -1 38 8T42 22L67 25Q89 28 101 33T120 51T127 88T128 152V508ZM170 707Q147 707 132 720T116 760Q115 783 130 798T170 814Q193 814 208 798T223 763Q223 738 208 723T170 707Z"  />
<glyph unicode="&#x131;" horiz-adv-x="257" d="M98 287Q98 302 98 311T95 326T87 337T71 349L62 355Q59 358 59 364T63 373Q72 376 85 382T114 395T143 409T166 422Q174 422 176 416Q174 390 173 357T172 292V112Q172 85 173 69T177 43T188 31T210 25L231 22Q236 18 235 9T229 -3Q206 -1 184 -1T135 0Q83 0 41 -3Q36 -1 35 8T39 22L60 25Q74 27 81 30T93 43T97 68T98 112V287Z"  />
<glyph unicode="&#x136;" horiz-adv-x="675" d="M128 510Q128 549 127 573T120 610T102 629T68 636L43 638Q38 641 39 651T45 663Q82 661 109 661T171 660Q200 660 227 660T287 663Q292 661 293 651T289 638L270 636Q248 634 236 629T218 610T211 573T210 510V395Q210 381 212 369T223 357Q230 357 238 360T251 368Q262 377 278 392T302 416L410 523Q417 530 428 541T452 566T474 590T488 606Q495 616 495 622Q495 628 478 632L451 638Q446 643 446 651T453 663Q479 661 508 661T563 660Q617 660 662 663Q667 659 668 651T664 638Q644 636 618 629T571 610Q550 598 512 566T431 494L341 409Q330 398 324 391T318 378Q318 370 337 347Q409 265 468 197T587 66Q605 48 623 38T667 25L694 22Q699 18 698 9T692 -3Q653 0 580 0Q549 0 521 0T458 -3Q453 -1 451 8T454 22L477 26Q488 28 494 30T501 36Q501 41 497 46T487 59Q473 77 453 99T404 153L324 243Q303 267 289 283T264 309T245 323T227 327Q216 327 213 316T210 279V150Q210 111 211 87T218 50T235 32T268 25L295 22Q300 19 299 9T293 -3Q256 -1 228 -1T171 0Q140 0 113 0T55 -3Q50 -1 49 8T53 22L73 25Q93 28 104 33T120 51T127 87T128 150V510ZM343 -58Q355 -58 367 -63T391 -78T409 -104T416 -141Q416 -194 382 -225T299 -269Q292 -266 289 -254T290 -238Q300 -235 311 -229T331 -215T347 -195T354 -168Q354 -156 349 -148T337 -135T323 -126T313 -121Q296 -113 296 -96Q296 -82 308 -70T343 -58Z"  />
<glyph unicode="&#x137;" horiz-adv-x="482" d="M88 564Q88 586 88 599T84 621T75 634T57 647L47 653Q43 655 43 663T47 673Q66 679 97 690T155 715Q162 715 165 709Q164 686 163 652T162 585V242Q162 232 164 230T180 227Q197 227 212 236T248 266L289 310Q310 333 317 342T324 356Q324 360 320 362T302 366L278 369Q271 371 271 381T278 394H301Q334 394 376 395T460 402Q465 400 466 391T462 377L430 371Q415 368 401 360T367 336Q338 313 314 289T276 252Q267 244 266 239T269 228Q282 211 296 194T336 148Q365 115 390 88T430 46Q441 36 454 31T482 24L496 22Q501 18 501 9T494 -3Q472 -1 448 -1T399 0Q338 0 295 -3Q289 0 289 9T293 22L311 25Q336 28 336 35Q336 40 333 46T319 63L212 187Q199 201 181 201Q167 201 165 196T162 167V112Q162 85 163 69T167 43T178 31T200 25L224 22Q229 18 228 9T222 -3Q197 -1 174 -1T125 0Q98 0 75 0T29 -3Q24 -1 23 8T28 22L50 25Q64 27 71 30T83 43T87 68T88 112V564ZM228 -58Q240 -58 253 -63T278 -78T296 -104T304 -141Q304 -168 294 -188T268 -225T229 -251T181 -269Q174 -266 173 -254T175 -238Q185 -235 196 -229T217 -215T233 -195T240 -168Q240 -156 235 -148T222 -135T208 -126T198 -121Q182 -113 182 -96Q182 -82 193 -70T228 -58Z"  />
<glyph unicode="&#x139;" horiz-adv-x="553" d="M128 510Q128 549 127 573T119 610T100 629T63 636L38 638Q33 641 34 651T40 663Q82 661 111 661T170 660Q199 660 227 660T293 663Q298 661 299 651T295 638L271 636Q249 634 237 629T218 611T211 573T210 510V162Q210 115 213 92T231 54Q235 50 241 46T260 39T291 33T340 31Q372 31 392 32T426 34T448 38T462 44Q477 53 495 79T528 143Q533 147 543 145T553 137Q553 133 549 115T538 73T524 29T511 -3Q473 -2 406 -1T262 0H170Q154 0 140 0T110 0T78 -1T40 -3Q35 -1 34 8T38 22L68 25Q90 27 102 32T120 50T127 87T128 150V510ZM152 706Q147 708 144 715T142 730L283 845Q302 858 310 858Q315 858 323 853T338 835Q346 821 346 811T345 794Q342 790 336 787T319 778L152 706Z"  />
<glyph unicode="&#x13A;" horiz-adv-x="247" d="M162 112Q162 85 163 69T167 43T178 31T200 25L224 22Q229 18 228 9T222 -3Q197 -1 174 -1T125 0Q98 0 75 0T29 -3Q24 -1 23 8T27 22L50 25Q64 27 71 30T83 43T87 68T88 112V564Q88 586 88 599T84 621T75 634T57 647L47 653Q43 655 43 663T47 673Q66 679 97 690T155 715Q162 715 165 709Q164 686 163 652T162 585V112ZM77 726Q72 728 69 734T68 749L201 857Q217 870 227 870Q232 870 239 865T253 848Q260 834 260 824T259 809Q255 803 235 794L77 726Z"  />
<glyph unicode="&#x13B;" horiz-adv-x="553" d="M128 510Q128 549 127 573T119 610T100 629T63 636L38 638Q33 641 34 651T40 663Q82 661 111 661T170 660Q199 660 227 660T293 663Q298 661 299 651T295 638L271 636Q249 634 237 629T218 611T211 573T210 510V162Q210 115 213 92T231 54Q235 50 241 46T260 39T291 33T340 31Q372 31 392 32T426 34T448 38T462 44Q477 53 495 79T528 143Q533 147 543 145T553 137Q553 133 549 115T538 73T524 29T511 -3Q473 -2 406 -1T262 0H170Q154 0 140 0T110 0T78 -1T40 -3Q35 -1 34 8T38 22L68 25Q90 27 102 32T120 50T127 87T128 150V510ZM294 -58Q306 -58 318 -63T342 -78T360 -104T367 -141Q367 -168 357 -188T331 -225T292 -251T246 -269Q239 -266 238 -254T241 -238Q251 -235 263 -229T285 -215T303 -195T310 -168Q310 -156 304 -148T290 -135T275 -126T264 -121Q247 -113 247 -96Q247 -82 259 -70T294 -58Z"  />
<glyph unicode="&#x13C;" horiz-adv-x="247" d="M162 112Q162 85 163 69T167 43T178 31T200 25L224 22Q229 18 228 9T222 -3Q197 -1 174 -1T125 0Q98 0 75 0T29 -3Q24 -1 23 8T27 22L50 25Q64 27 71 30T83 43T87 68T88 112V564Q88 586 88 599T84 621T75 634T57 647L47 653Q43 655 43 663T47 673Q66 679 97 690T155 715Q162 715 165 709Q164 686 163 652T162 585V112ZM111 -53Q123 -53 136 -58T162 -73T181 -99T189 -136Q189 -163 179 -183T151 -220T111 -246T64 -264Q57 -261 56 -249T58 -233Q68 -230 79 -224T100 -210T116 -190T123 -163Q123 -151 118 -143T105 -130T91 -121T81 -116Q65 -108 65 -91Q65 -77 76 -65T111 -53Z"  />
<glyph unicode="&#x13D;" horiz-adv-x="553" d="M128 510Q128 549 127 573T119 610T100 629T63 636L38 638Q33 641 34 651T40 663Q82 661 111 661T170 660Q199 660 227 660T293 663Q298 661 299 651T295 638L271 636Q249 634 237 629T218 611T211 573T210 510V162Q210 115 213 92T231 54Q235 50 241 46T260 39T291 33T340 31Q372 31 392 32T426 35T448 40T463 46Q477 54 495 79T528 143Q533 147 543 145T553 137Q553 133 549 115T538 73T524 29T511 -3Q473 -2 406 -1T262 0H170Q154 0 140 0T110 0T78 -1T40 -3Q35 -1 34 8T38 22L68 25Q90 27 102 32T120 50T127 87T128 150V510ZM399 680Q431 680 452 656T474 599Q474 548 442 519T362 477Q357 481 355 488T356 503Q378 514 396 533T415 574Q415 596 402 607T380 619Q370 620 363 625T355 644Q355 655 363 667T399 680Z"  />
<glyph unicode="&#x13E;" horiz-adv-x="247" d="M162 112Q162 85 163 69T167 43T178 31T200 25L224 22Q229 18 228 9T222 -3Q197 -1 174 -1T125 0Q98 0 75 0T29 -3Q24 -1 23 8T27 22L50 25Q64 27 71 30T83 43T87 68T88 112V564Q88 586 88 599T84 621T75 634T57 647L47 653Q43 655 43 663T47 673Q66 679 97 690T155 715Q162 715 165 709Q164 686 163 652T162 585V112ZM282 715Q289 715 296 706T304 663Q304 637 297 612T280 565T255 524T228 496Q219 493 214 499T212 513Q222 530 233 557T245 609Q245 615 240 627T230 646Q227 651 224 657T221 669Q221 674 226 681T240 696T260 709T282 715Z"  />
<glyph unicode="&#x141;" horiz-adv-x="559" d="M134 276L44 232Q34 234 31 244T30 265L134 313V510Q134 549 133 573T125 610T106 629T69 636L44 638Q39 641 40 651T46 663Q88 661 117 661T176 660Q205 660 233 660T299 663Q304 661 305 651T301 638L277 636Q255 634 243 629T224 611T217 573T216 510V354L375 431Q384 427 387 418T388 399L216 313V162Q216 115 219 92T237 54Q241 50 247 46T266 39T297 33T346 31Q378 31 398 32T432 34T454 38T468 44Q483 53 501 79T534 143Q539 147 549 145T559 137Q559 133 555 115T544 73T530 29T517 -3Q479 -2 412 -1T268 0H176Q160 0 146 0T116 0T84 -1T46 -3Q41 -1 40 8T44 22L74 25Q96 27 108 32T126 50T133 87T134 150V276Z"  />
<glyph unicode="&#x142;" horiz-adv-x="261" d="M170 369V112Q170 85 171 69T175 43T186 31T208 25L232 22Q237 18 236 9T230 -3Q205 -1 182 -1T133 0Q106 0 83 0T37 -3Q32 -1 31 8T35 22L58 25Q72 27 79 30T91 43T95 68T96 112V327L32 290Q24 292 20 301T17 320L96 368V564Q96 586 96 599T92 621T83 634T65 647L55 653Q51 655 51 663T55 673Q74 679 105 690T163 715Q170 715 173 709Q172 686 171 652T170 585V410L232 448Q241 446 246 436T250 418L170 369Z"  />
<glyph unicode="&#x143;" horiz-adv-x="783" d="M666 170Q666 159 666 134T666 81T667 29T669 -5Q665 -16 650 -16Q645 -10 637 0T614 28T577 72T522 135L290 399Q280 411 264 430T230 470T197 508T174 534H172Q169 525 168 509T167 469V251Q167 233 167 203T169 142T175 83T185 44Q190 36 203 32T236 25L267 22Q272 16 271 9T265 -3Q231 -1 204 -1T148 0Q116 0 93 0T44 -3Q39 1 38 9T42 22L69 25Q106 30 113 45Q118 58 121 85T125 143T126 203T126 251V540Q126 561 123 578T104 612Q93 623 77 628T42 636L25 638Q20 643 20 651T27 663Q59 661 92 661T140 660Q166 660 186 663Q193 644 216 613T267 548T319 486T357 443L454 334Q506 276 545 233T619 153H621Q624 157 624 168T625 195V409Q625 427 625 457T622 518T616 577T605 616Q600 623 587 627T543 636L526 638Q521 643 521 652T528 663Q563 661 590 661T646 660Q678 660 700 660T749 663Q755 659 755 651T751 638L737 636Q688 628 681 615Q675 601 672 574T667 516T666 456T666 409V170ZM351 706Q346 708 343 715T341 730L482 845Q501 858 509 858Q514 858 522 853T537 835Q545 821 545 811T543 794Q538 786 518 778L351 706Z"  />
<glyph unicode="&#x144;" horiz-adv-x="525" d="M98 287Q98 302 98 311T95 326T87 337T71 349L62 355Q59 358 59 364T63 373Q72 376 85 382T114 395T142 409T163 422Q171 422 174 415Q172 398 172 387T172 368Q172 357 183 357Q215 377 250 392T323 408Q354 408 376 398T412 371T433 332T440 284V112Q440 85 441 69T445 43T456 31T478 25L500 22Q505 18 504 9T498 -3Q475 -1 453 -1T404 0Q351 0 311 -3Q306 -1 305 8T309 22L328 25Q342 27 349 31T361 44T365 69T366 112V261Q366 304 345 332T272 360Q243 360 221 350T187 325Q177 312 175 300T172 265V112Q172 85 173 69T177 44T188 31T210 25L228 22Q233 18 232 9T226 -3Q185 0 135 0Q83 0 41 -3Q36 -1 35 8T39 22L60 25Q74 27 81 30T93 43T97 68T98 112V287ZM258 461Q253 460 248 463T241 472L327 635Q332 643 337 651T351 659Q364 659 382 644Q390 638 394 631T399 618Q399 607 383 591L258 461Z"  />
<glyph unicode="&#x145;" horiz-adv-x="783" d="M666 170Q666 159 666 134T666 81T667 29T669 -5Q665 -16 650 -16Q645 -10 637 0T614 28T577 72T522 135L290 399Q280 411 264 430T230 470T197 508T174 534H172Q169 525 168 509T167 469V251Q167 233 167 203T169 142T175 83T185 44Q190 36 203 32T236 25L267 22Q272 16 271 9T265 -3Q231 -1 204 -1T148 0Q116 0 93 0T44 -3Q39 1 38 9T42 22L69 25Q106 30 113 45Q118 58 121 85T125 143T126 203T126 251V540Q126 561 123 578T104 612Q93 623 77 628T42 636L25 638Q20 643 20 651T27 663Q59 661 92 661T140 660Q166 660 186 663Q193 644 216 613T267 548T319 486T357 443L454 334Q506 276 545 233T619 153H621Q624 157 624 168T625 195V409Q625 427 625 457T622 518T616 577T605 616Q600 623 587 627T543 636L526 638Q521 643 521 652T528 663Q563 661 590 661T646 660Q678 660 700 660T749 663Q755 659 755 651T751 638L737 636Q688 628 681 615Q675 601 672 574T667 516T666 456T666 409V170ZM385 -58Q397 -58 410 -63T434 -78T452 -105T460 -143Q460 -195 426 -225T341 -269Q334 -266 331 -254T332 -238Q342 -235 354 -229T376 -215T394 -195T401 -168Q401 -156 395 -148T381 -135T366 -126T355 -121Q338 -113 338 -96Q338 -82 350 -70T385 -58Z"  />
<glyph unicode="&#x146;" horiz-adv-x="525" d="M98 287Q98 302 98 311T95 326T87 337T71 349L62 355Q59 358 59 364T63 373Q72 376 85 382T114 395T142 409T163 422Q171 422 174 415Q172 398 172 387T172 368Q172 357 183 357Q215 377 250 392T323 408Q354 408 376 398T412 371T433 332T440 284V112Q440 85 441 69T445 43T456 31T478 25L500 22Q505 18 504 9T498 -3Q475 -1 453 -1T404 0Q351 0 311 -3Q306 -1 305 8T309 22L328 25Q342 27 349 31T361 44T365 69T366 112V261Q366 304 345 332T272 360Q243 360 221 350T187 325Q177 312 175 300T172 265V112Q172 85 173 69T177 44T188 31T210 25L228 22Q233 18 232 9T226 -3Q185 0 135 0Q83 0 41 -3Q36 -1 35 8T39 22L60 25Q74 27 81 30T93 43T97 68T98 112V287ZM251 -58Q262 -58 274 -63T295 -78T311 -104T318 -141Q318 -168 309 -188T285 -225T250 -251T208 -269Q202 -266 201 -254T203 -238Q212 -235 223 -229T243 -215T259 -195T266 -168Q266 -156 261 -148T248 -135T234 -126T224 -121Q209 -113 209 -96Q209 -82 220 -70T251 -58Z"  />
<glyph unicode="&#x147;" horiz-adv-x="783" d="M666 170Q666 159 666 134T666 81T667 29T669 -5Q665 -16 650 -16Q645 -10 637 0T614 28T577 72T522 135L290 399Q280 411 264 430T230 470T197 508T174 534H172Q169 525 168 509T167 469V251Q167 233 167 203T169 142T175 83T185 44Q190 36 203 32T236 25L267 22Q272 16 271 9T265 -3Q231 -1 204 -1T148 0Q116 0 93 0T44 -3Q39 1 38 9T42 22L69 25Q106 30 113 45Q118 58 121 85T125 143T126 203T126 251V540Q126 561 123 578T104 612Q93 623 77 628T42 636L25 638Q20 643 20 651T27 663Q59 661 92 661T140 660Q166 660 186 663Q193 644 216 613T267 548T319 486T357 443L454 334Q506 276 545 233T619 153H621Q624 157 624 168T625 195V409Q625 427 625 457T622 518T616 577T605 616Q600 623 587 627T543 636L526 638Q521 643 521 652T528 663Q563 661 590 661T646 660Q678 660 700 660T749 663Q755 659 755 651T751 638L737 636Q688 628 681 615Q675 601 672 574T667 516T666 456T666 409V170ZM248 826Q248 833 252 839T263 846L379 787Q387 782 392 782T407 787L524 846Q529 845 532 839T535 826L413 713Q393 695 372 713L248 826Z"  />
<glyph unicode="&#x148;" horiz-adv-x="525" d="M98 287Q98 302 98 311T95 326T87 337T71 349L62 355Q59 358 59 364T63 373Q72 376 85 382T114 395T142 409T163 422Q171 422 174 415Q172 398 172 387T172 368Q172 357 183 357Q215 377 250 392T323 408Q354 408 376 398T412 371T433 332T440 284V112Q440 85 441 69T445 43T456 31T478 25L500 22Q505 18 504 9T498 -3Q475 -1 453 -1T404 0Q351 0 311 -3Q306 -1 305 8T309 22L328 25Q342 27 349 31T361 44T365 69T366 112V261Q366 304 345 332T272 360Q243 360 221 350T187 325Q177 312 175 300T172 265V112Q172 85 173 69T177 44T188 31T210 25L228 22Q233 18 232 9T226 -3Q185 0 135 0Q83 0 41 -3Q36 -1 35 8T39 22L60 25Q74 27 81 30T93 43T97 68T98 112V287ZM253 564Q262 553 265 553T280 564L355 657Q360 658 366 655T373 644L283 475Q275 461 267 461T250 475L158 644Q159 652 166 654T178 657L253 564Z"  />
<glyph unicode="&#x14C;" horiz-adv-x="795" d="M402 -16Q319 -16 253 11T141 86T71 194T46 323Q46 398 72 462T146 574T259 649T402 676Q489 676 554 647T662 571T727 461T749 333Q749 257 722 193T648 83T538 10T402 -16ZM415 15Q460 15 502 32T577 84T629 174T649 302Q649 364 635 425T589 535T507 614T385 645Q346 645 304 631T227 582T169 493T146 355Q146 299 160 239T207 130T290 48T415 15ZM287 737Q279 747 279 765T287 794H518Q527 784 527 766T518 737H287Z"  />
<glyph unicode="&#x14D;" horiz-adv-x="486" d="M248 408Q290 408 327 393T391 351T435 285T451 201Q451 154 436 115T393 47T326 2T240 -14Q197 -14 160 0T95 42T51 107T35 192Q35 239 51 279T97 347T165 392T248 408ZM365 185Q365 217 358 251T336 313T297 360T236 378Q186 378 154 333T121 205Q121 171 129 137T152 76T192 33T250 16Q283 16 305 31T340 71T359 126T365 185ZM139 504Q131 515 131 534T139 565H353Q360 554 360 535T353 504H139Z"  />
<glyph unicode="&#x150;" horiz-adv-x="795" d="M402 -16Q319 -16 253 11T141 86T71 194T46 323Q46 398 72 462T146 574T259 649T402 676Q489 676 554 647T662 571T727 461T749 333Q749 257 722 193T648 83T538 10T402 -16ZM415 15Q460 15 502 32T577 84T629 174T649 302Q649 364 635 425T589 535T507 614T385 645Q346 645 304 631T227 582T169 493T146 355Q146 299 160 239T207 130T290 48T415 15ZM532 861Q537 861 545 857T561 847Q575 837 578 827T576 812Q573 807 567 802T553 789L466 706Q458 708 452 712T447 725L503 839Q510 852 515 856T532 861ZM374 861Q379 861 388 856T404 846Q424 829 417 814Q414 808 408 801T395 789L308 706Q300 708 294 712T289 725L345 839Q352 852 357 856T374 861Z"  />
<glyph unicode="&#x151;" horiz-adv-x="486" d="M248 408Q290 408 327 393T391 351T435 285T451 201Q451 154 436 115T393 47T326 2T240 -14Q197 -14 160 0T95 42T51 107T35 192Q35 239 51 279T97 347T165 392T248 408ZM365 185Q365 217 358 251T336 313T297 360T236 378Q186 378 154 333T121 205Q121 171 129 137T152 76T192 33T250 16Q283 16 305 31T340 71T359 126T365 185ZM166 460Q161 459 155 462T149 471L204 634Q208 642 212 648T221 656Q227 658 234 655T253 645Q268 635 269 625Q271 612 258 594L166 460ZM298 460Q293 459 287 462T281 471L336 634Q340 642 344 648T353 657Q359 658 366 655T385 645Q399 639 401 626Q402 620 399 611T390 594L298 460Z"  />
<glyph unicode="&#x152;" horiz-adv-x="1012" d="M788 660Q836 660 874 660T923 663Q925 657 927 642T931 607T934 568T938 531Q935 526 927 525T913 528Q907 546 902 561T889 589T869 610T837 624Q821 628 798 628T740 629H668Q657 629 651 628T643 623T640 611T639 589V388Q639 368 644 365T671 361H729Q794 361 814 366Q823 369 828 375T838 402L847 442Q851 447 860 447T872 441Q872 424 870 397T868 341Q868 313 870 287T872 244Q869 239 860 239T847 243L837 283Q834 296 828 306T806 321Q796 324 777 325T729 326H671Q649 326 644 323T639 299V158Q639 117 642 92T658 54Q662 49 669 45T689 38T724 33T779 31Q808 31 828 31T863 34T888 38T906 46Q920 54 938 79T977 143Q982 147 990 145T1002 136Q999 122 994 103T982 63T969 25T957 -3Q822 0 689 0H628Q574 0 527 -3T431 -6Q344 -6 273 17T151 84T74 189T46 325Q46 398 74 460T153 567T278 637T440 663Q485 663 529 662T619 660H788ZM557 548Q557 585 550 600T531 620Q511 627 489 629T435 632Q354 632 299 608T210 542T161 445T146 329Q146 303 150 271T167 205T200 139T254 81T332 41T440 25Q466 25 489 29T527 40Q546 51 551 69T557 123V548Z"  />
<glyph unicode="&#x153;" horiz-adv-x="729" d="M121 204Q121 172 129 139T153 78T192 34T248 16Q282 16 304 31T340 72T359 126T365 185Q365 216 358 250T336 313T296 359T235 378Q210 378 189 366T153 330T130 275T121 204ZM462 256Q444 256 440 249T435 218Q435 184 445 152T477 95T528 55T599 40Q634 40 653 50T694 89Q700 91 706 88T712 79Q689 27 647 7T556 -14Q507 -14 466 8T401 68Q374 26 331 6T239 -14Q195 -14 158 0T93 42T51 107T35 192Q35 239 51 279T96 347T164 392T248 408Q296 408 337 387T405 322Q431 363 474 385T563 408Q598 408 625 398T672 371T701 333T711 289Q711 283 711 276T708 266Q706 261 689 259T627 256H462ZM540 286Q586 286 605 288T629 295Q631 297 633 301T635 315Q635 324 631 335T618 355T595 371T558 378Q537 378 518 371T483 351T459 324T449 294Q449 291 453 289T477 286H540Z"  />
<glyph unicode="&#x154;" horiz-adv-x="645" d="M128 509Q128 545 127 567T122 601T108 619T84 626L52 630Q47 634 47 643T53 655Q95 659 148 661T276 663Q323 663 365 658T443 633Q479 614 502 580T526 493Q526 457 514 430T482 382T442 347T401 326Q397 321 399 315T406 302Q436 254 461 214T511 142T558 84T607 36Q620 25 638 18T676 8Q680 6 680 2T677 -6Q662 -11 633 -11Q601 -11 575 -6T524 14T477 52T426 115Q416 129 404 148T379 187T353 228T328 266Q317 283 302 290T257 298Q240 298 231 298T217 295T211 289T210 276V150Q210 111 211 88T218 51T236 33T270 25L291 22Q296 18 295 9T289 -3Q255 -1 228 -1T170 0Q138 0 109 0T45 -3Q40 -1 39 8T43 22L68 25Q90 28 102 33T120 51T127 87T128 150V509ZM210 366Q210 337 213 333Q215 331 229 330T282 328Q309 328 336 332T385 354Q405 370 420 398T435 478Q435 508 426 535T397 584T347 619T275 632Q252 632 239 631T220 627T212 617T210 600V366ZM265 706Q260 708 257 715T255 730L396 845Q415 858 423 858Q428 858 436 853T451 835Q459 821 459 811T458 794Q455 790 449 787T432 778L265 706Z"  />
<glyph unicode="&#x155;" horiz-adv-x="332" d="M98 287Q98 302 98 311T95 326T87 337T71 349L62 355Q59 358 59 364T63 373Q72 376 85 382T112 395T141 409T164 422Q172 420 172 415V357Q172 349 175 348Q201 370 229 389T285 408Q304 408 317 397T330 368Q330 343 315 333T287 322Q279 322 275 324T265 329Q241 345 221 345Q209 345 200 339T185 325Q177 314 175 294T172 248V112Q172 85 173 69T178 43T190 30T212 25L248 22Q253 18 252 9T246 -3Q211 -1 186 -1T135 0Q82 0 43 -3Q38 -1 37 8T41 22L60 25Q74 27 81 31T93 44T97 69T98 112V287ZM160 466Q155 465 150 468T143 477L229 640Q234 648 239 656T253 664Q266 664 284 649Q292 643 296 636T301 623Q301 612 285 596L160 466Z"  />
<glyph unicode="&#x156;" horiz-adv-x="645" d="M128 509Q128 545 127 567T122 601T108 619T84 626L52 630Q47 634 47 643T53 655Q95 659 148 661T276 663Q323 663 365 658T443 633Q479 614 502 580T526 493Q526 457 514 430T482 382T442 347T401 326Q397 321 399 315T406 302Q436 254 461 214T511 142T558 84T607 36Q620 25 638 18T676 8Q680 6 680 2T677 -6Q662 -11 633 -11Q601 -11 575 -6T524 14T477 52T426 115Q416 129 404 148T379 187T353 228T328 266Q317 283 302 290T257 298Q240 298 231 298T217 295T211 289T210 276V150Q210 111 211 88T218 51T236 33T270 25L291 22Q296 18 295 9T289 -3Q255 -1 228 -1T170 0Q138 0 109 0T45 -3Q40 -1 39 8T43 22L68 25Q90 28 102 33T120 51T127 87T128 150V509ZM210 366Q210 337 213 333Q215 331 229 330T282 328Q309 328 336 332T385 354Q405 370 420 398T435 478Q435 508 426 535T397 584T347 619T275 632Q252 632 239 631T220 627T212 617T210 600V366ZM336 -38Q348 -38 361 -43T385 -58T403 -84T410 -121Q410 -148 400 -168T374 -205T335 -231T289 -249Q282 -246 281 -234T283 -218Q293 -215 305 -209T328 -195T346 -175T353 -148Q353 -136 347 -128T333 -115T317 -106T306 -101Q290 -93 290 -76Q290 -62 301 -50T336 -38Z"  />
<glyph unicode="&#x157;" horiz-adv-x="332" d="M98 287Q98 302 98 311T95 326T87 337T71 349L62 355Q59 358 59 364T63 373Q72 376 85 382T112 395T141 409T164 422Q172 420 172 415V357Q172 349 175 348Q201 370 229 389T285 408Q304 408 317 397T330 368Q330 343 315 333T287 322Q279 322 275 324T265 329Q241 345 221 345Q209 345 200 339T185 325Q177 314 175 294T172 248V112Q172 85 173 69T178 43T190 30T212 25L248 22Q253 18 252 9T246 -3Q211 -1 186 -1T135 0Q82 0 43 -3Q38 -1 37 8T41 22L60 25Q74 27 81 31T93 44T97 69T98 112V287ZM129 -58Q140 -58 152 -63T175 -78T193 -104T200 -141Q200 -194 167 -225T86 -269Q80 -266 79 -254T81 -238Q90 -235 100 -229T119 -215T134 -195T140 -168Q140 -156 135 -148T124 -135T111 -126T102 -121Q87 -113 87 -96Q87 -82 98 -70T129 -58Z"  />
<glyph unicode="&#x158;" horiz-adv-x="645" d="M128 509Q128 545 127 567T122 601T108 619T84 626L52 630Q47 634 47 643T53 655Q95 659 148 661T276 663Q323 663 365 658T443 633Q479 614 502 580T526 493Q526 457 514 430T482 382T442 347T401 326Q397 321 399 315T406 302Q436 254 461 214T511 142T558 84T607 36Q620 25 638 18T676 8Q680 6 680 2T677 -6Q662 -11 633 -11Q601 -11 575 -6T524 14T477 52T426 115Q416 129 404 148T379 187T353 228T328 266Q317 283 302 290T257 298Q240 298 231 298T217 295T211 289T210 276V150Q210 111 211 88T218 51T236 33T270 25L291 22Q296 18 295 9T289 -3Q255 -1 228 -1T170 0Q138 0 109 0T45 -3Q40 -1 39 8T43 22L68 25Q90 28 102 33T120 51T127 87T128 150V509ZM210 366Q210 337 213 333Q215 331 229 330T282 328Q309 328 336 332T385 354Q405 370 420 398T435 478Q435 508 426 535T397 584T347 619T275 632Q252 632 239 631T220 627T212 617T210 600V366ZM144 826Q144 833 148 839T159 846L273 789Q283 783 288 783T305 789L420 846Q425 845 428 839T431 826L309 713Q289 695 268 713L144 826Z"  />
<glyph unicode="&#x159;" horiz-adv-x="332" d="M98 287Q98 302 98 311T95 326T87 337T71 349L62 355Q59 358 59 364T63 373Q72 376 85 382T112 395T141 409T164 422Q172 420 172 415V357Q172 349 175 348Q201 370 229 389T285 408Q304 408 317 397T330 368Q330 343 315 333T287 322Q279 322 275 324T265 329Q241 345 221 345Q209 345 200 339T185 325Q177 314 175 294T172 248V112Q172 85 173 69T178 43T190 30T212 25L248 22Q253 18 252 9T246 -3Q211 -1 186 -1T135 0Q82 0 43 -3Q38 -1 37 8T41 22L60 25Q74 27 81 31T93 44T97 69T98 112V287ZM168 579Q176 569 181 569T195 579L270 672Q275 673 281 670T288 659L198 482Q190 467 182 467T165 482L73 659Q74 667 81 669T93 672L168 579Z"  />
<glyph unicode="&#x15A;" horiz-adv-x="489" d="M437 169Q437 128 422 94T379 36T312 -2T224 -16Q192 -16 167 -12T122 -2T89 10T68 21Q63 29 59 45T51 81T45 122T41 161Q45 166 53 167T65 164Q71 145 82 120T113 71T163 31T237 15Q268 15 291 24T331 50T354 86T362 130Q362 146 360 163T349 199T324 234T280 270L185 332Q166 344 147 361T113 399T87 447T77 504Q77 540 90 571T130 625T194 662T281 676Q304 676 329 672T374 663Q384 660 393 659T409 657Q412 648 415 634T421 603T425 569T427 535Q424 530 415 529T402 532Q397 550 389 570T365 606T326 634T266 645Q229 645 206 634T170 607T152 571T147 534Q147 512 155 494T175 460T203 432T232 411L312 361Q336 346 358 328T398 286T426 234T437 169ZM220 706Q215 708 212 715T210 730L351 845Q370 858 378 858Q383 858 391 853T406 835Q414 821 414 811T413 794Q410 790 404 787T387 778L220 706Z"  />
<glyph unicode="&#x15B;" horiz-adv-x="323" d="M186 408Q218 408 242 402T274 390Q281 373 285 351T290 309Q287 304 279 303T266 306Q253 339 231 359T178 379Q149 379 132 362T114 318Q114 303 121 291T139 269T164 251T191 235Q211 224 229 212T262 183T284 147T293 100Q293 71 281 50T249 15T203 -7T149 -14Q79 -14 42 16Q39 23 37 35T33 61T30 90T30 117Q34 122 41 122T53 118Q59 97 68 79T91 46T121 24T159 15Q186 15 206 31T226 79Q226 96 219 109T201 134T177 154T149 171Q105 196 78 224T50 294Q50 321 60 342T89 378T132 400T186 408ZM159 459Q154 458 149 461T142 470L228 633Q233 641 238 649T252 657Q265 657 283 642Q291 636 295 629T300 616Q300 605 284 589L159 459Z"  />
<glyph unicode="&#x15E;" horiz-adv-x="489" d="M230 -15Q228 -16 224 -16Q192 -16 167 -12T122 -2T89 10T68 21Q63 29 59 45T51 81T45 122T41 161Q45 166 53 167T65 164Q71 145 82 120T113 71T163 31T237 15Q268 15 291 24T331 50T354 86T362 130Q362 146 360 163T349 199T324 234T280 270L185 332Q166 344 147 361T113 399T87 447T77 504Q77 540 90 571T130 625T194 662T281 676Q304 676 329 672T374 663Q384 660 393 659T409 657Q412 648 415 634T421 603T425 569T427 535Q424 530 415 529T402 532Q397 550 389 570T365 606T326 634T266 645Q229 645 206 634T170 607T152 571T147 534Q147 512 155 494T175 460T203 432T232 411L312 361Q336 346 358 328T398 286T426 234T437 169Q437 96 392 47T266 -12L237 -58Q230 -70 242 -77Q263 -92 275 -109T288 -146Q288 -164 280 -179T258 -205T227 -222T192 -228Q166 -228 152 -219T138 -195Q138 -187 144 -179T161 -171Q168 -171 174 -175T187 -184T199 -194T210 -198Q218 -198 226 -192T235 -169Q235 -151 219 -134T177 -107V-102L230 -15Z"  />
<glyph unicode="&#x15F;" horiz-adv-x="323" d="M152 -14H149Q79 -14 42 16Q39 23 37 35T33 61T30 90T30 117Q34 122 41 122T53 118Q59 97 68 79T91 46T121 24T159 15Q186 15 206 31T226 79Q226 96 219 109T201 134T177 154T149 171Q105 196 78 224T50 294Q50 321 60 342T89 378T132 400T186 408Q218 408 242 402T274 390Q281 373 285 351T290 309Q287 304 279 303T266 306Q253 339 231 359T178 379Q149 379 132 362T114 318Q114 303 121 291T139 269T164 251T191 235Q211 224 229 212T262 183T284 147T293 100Q293 76 285 58T261 25T227 3T185 -10L163 -45Q156 -57 171 -66Q189 -78 200 -93T212 -129Q212 -146 204 -160T183 -184T154 -201T120 -207Q95 -207 82 -199T69 -176Q69 -168 74 -161T91 -153Q97 -153 103 -157T116 -166T127 -175T137 -179Q145 -179 153 -173T161 -151Q161 -134 145 -118T106 -92V-87L152 -14Z"  />
<glyph unicode="&#x160;" horiz-adv-x="489" d="M437 169Q437 128 422 94T379 36T312 -2T224 -16Q192 -16 167 -12T122 -2T89 10T68 21Q63 29 59 45T51 81T45 122T41 161Q45 166 53 167T65 164Q71 145 82 120T113 71T163 31T237 15Q268 15 291 24T331 50T354 86T362 130Q362 146 360 163T349 199T324 234T280 270L185 332Q166 344 147 361T113 399T87 447T77 504Q77 540 90 571T130 625T194 662T281 676Q304 676 329 672T374 663Q384 660 393 659T409 657Q412 648 415 634T421 603T425 569T427 535Q424 530 415 529T402 532Q397 550 389 570T365 606T326 634T266 645Q229 645 206 634T170 607T152 571T147 534Q147 512 155 494T175 460T203 432T232 411L312 361Q336 346 358 328T398 286T426 234T437 169ZM115 834Q115 841 119 847T129 854L243 796Q254 791 259 791T275 796L391 854Q396 853 399 847T402 834L280 721Q260 702 238 721L115 834Z"  />
<glyph unicode="&#x161;" horiz-adv-x="323" d="M186 408Q218 408 242 402T274 390Q281 373 285 351T290 309Q287 304 279 303T266 306Q253 339 231 359T178 379Q149 379 132 362T114 318Q114 303 121 291T139 269T164 251T191 235Q211 224 229 212T262 183T284 147T293 100Q293 71 281 50T249 15T203 -7T149 -14Q79 -14 42 16Q39 23 37 35T33 61T30 90T30 117Q34 122 41 122T53 118Q59 97 68 79T91 46T121 24T159 15Q186 15 206 31T226 79Q226 96 219 109T201 134T177 154T149 171Q105 196 78 224T50 294Q50 321 60 342T89 378T132 400T186 408ZM163 575Q171 565 176 565T190 575L265 668Q270 669 276 666T283 655L193 478Q185 463 177 463T160 478L68 655Q69 663 76 665T88 668L163 575Z"  />
<glyph unicode="&#x162;" horiz-adv-x="660" d="M368 150Q368 111 369 87T376 50T394 32T428 25L460 22Q465 19 464 9T458 -3Q425 -1 401 -1T355 0L319 -58Q312 -69 327 -80Q346 -93 358 -109T370 -146Q370 -164 362 -179T340 -205T309 -222T274 -228Q248 -228 234 -219T220 -195Q220 -187 226 -179T243 -171Q250 -171 256 -175T269 -184T281 -194T292 -198Q300 -198 308 -192T317 -169Q317 -151 301 -134T259 -107V-102L322 0Q293 0 264 0T188 -3Q183 -1 183 8T188 22L224 25Q245 27 257 32T276 50T284 87T286 150V597Q286 620 282 624T256 629H201Q185 629 167 629T133 626T102 618T78 604Q60 587 51 571T33 535Q27 530 19 533T7 542Q13 559 18 578T29 618T38 657T45 691Q47 693 54 693T64 691Q69 667 91 664T149 660H554Q574 660 586 660T607 664T621 672T632 688Q636 690 642 689T650 685Q646 670 643 649T637 605T635 564T635 533Q632 527 623 527T609 531Q608 540 606 551T601 572T594 591T584 604Q550 629 468 629H397Q386 629 380 629T372 625T369 614T368 595V150Z"  />
<glyph unicode="&#x163;" horiz-adv-x="307" d="M180 352Q167 352 165 348T162 328V141Q162 119 164 99T173 64T195 39T235 30Q249 30 262 35Q269 37 277 43T287 49Q293 49 296 43T297 32Q284 18 261 4T205 -13L180 -55Q173 -67 188 -76Q206 -88 217 -103T229 -139Q229 -156 221 -170T200 -194T171 -211T137 -217Q112 -217 99 -209T86 -186Q86 -178 91 -171T108 -163Q114 -163 120 -167T133 -176T144 -185T154 -189Q162 -189 170 -183T178 -161Q178 -144 162 -128T123 -102V-97L175 -13Q148 -11 131 -2T105 21T92 54T88 94V323Q88 343 85 347T67 352H39Q34 355 34 361T36 373Q58 380 75 388T100 404Q110 413 122 430T142 463Q146 465 153 464T163 458V413Q163 399 165 397T181 394H292Q301 387 301 372T293 352H180Z"  />
<glyph unicode="&#x164;" horiz-adv-x="660" d="M368 150Q368 111 369 87T376 50T394 32T428 25L460 22Q465 19 464 9T458 -3Q415 -1 386 -1T327 0Q297 0 267 0T188 -3Q183 -1 183 8T188 22L224 25Q245 27 257 32T276 50T284 87T286 150V597Q286 620 282 624T256 629H201Q185 629 167 629T133 626T102 618T78 604Q60 587 51 571T33 535Q27 530 19 533T7 542Q13 559 18 578T29 618T38 657T45 691Q47 693 54 693T64 691Q69 667 91 664T149 660H554Q574 660 586 660T607 664T621 672T632 688Q636 690 642 689T650 685Q646 670 643 649T637 605T635 564T635 533Q632 527 623 527T609 531Q608 540 606 551T601 572T594 591T584 604Q550 629 468 629H397Q386 629 380 629T372 625T369 614T368 595V150ZM188 826Q188 833 192 839T202 846L315 788Q326 783 331 783T348 789L464 846Q469 845 472 839T475 826L353 713Q333 694 311 713L188 826Z"  />
<glyph unicode="&#x165;" horiz-adv-x="307" d="M180 352Q167 352 165 348T162 328V141Q162 119 164 99T173 64T195 39T235 30Q249 30 262 35Q269 37 277 43T287 49Q293 49 296 43T297 32Q283 16 257 1T192 -14Q160 -14 140 -6T108 17T92 51T88 94V323Q88 343 85 347T67 352H39Q34 355 34 361T36 373Q58 380 75 388T100 404Q110 413 122 430T142 463Q146 465 153 464T163 458V413Q163 399 165 397T181 394H292Q301 387 301 372T293 352H180ZM293 715Q300 715 307 706T315 663Q315 637 308 612T291 565T266 524T239 496Q230 493 225 499T223 513Q233 530 244 557T256 609Q256 615 251 627T241 646Q238 651 235 657T232 669Q232 674 237 681T251 696T271 709T293 715Z"  />
<glyph unicode="&#x16A;" horiz-adv-x="746" d="M605 409Q605 432 605 463T602 524T596 580T586 616Q576 634 536 637L511 639Q506 644 507 652T513 663Q570 660 627 660Q659 660 682 660T732 663Q738 659 738 652T734 639L710 637Q670 634 660 613Q655 601 652 576T648 520T646 460T646 409V296Q646 263 643 230T632 166T611 107T576 57Q544 22 493 3T385 -16Q333 -16 284 -5T198 39Q158 72 139 128T120 275V511Q120 550 119 574T112 611T94 630T60 637L35 639Q30 642 31 651T37 663Q75 661 103 661T161 660Q192 660 219 660T284 663Q289 661 290 652T286 639L262 637Q240 635 228 630T210 612T203 574T202 511V295Q202 235 212 186T246 101T309 47T405 28Q459 28 497 48T559 104T594 188T605 294V409ZM291 722Q283 732 283 750T291 779H501Q509 769 509 751T501 722H291Z"  />
<glyph unicode="&#x16B;" horiz-adv-x="512" d="M159 147Q159 121 163 100T177 64T205 41T252 32Q272 32 294 40T333 62Q343 71 348 84T353 120V284Q353 308 352 322T346 343T335 354T316 363L303 368Q298 371 298 379T304 390Q319 390 336 391T369 395T399 401T421 408Q429 406 430 401Q427 372 427 314V146Q427 86 432 62T458 37Q474 37 497 42Q502 38 502 27T496 13Q481 10 464 7T429 -1T395 -11T365 -24Q356 -24 353 -17V24Q353 38 344 38Q333 31 318 22T286 5T248 -8T206 -14Q140 -14 113 18T85 111V278Q85 302 85 316T81 339T72 353T55 363L43 368Q38 372 39 380T45 390Q80 391 107 396T152 408Q161 407 162 401Q160 388 160 370T159 314V147ZM138 514Q130 525 130 542T138 571H352Q359 560 359 543T352 514H138Z"  />
<glyph unicode="&#x16E;" horiz-adv-x="746" d="M605 409Q605 432 605 463T602 524T596 580T586 616Q576 634 536 637L511 639Q506 644 507 652T513 663Q570 660 627 660Q659 660 682 660T732 663Q738 659 738 652T734 639L710 637Q670 634 660 613Q655 601 652 576T648 520T646 460T646 409V296Q646 263 643 230T632 166T611 107T576 57Q544 22 493 3T385 -16Q333 -16 284 -5T198 39Q158 72 139 128T120 275V511Q120 550 119 574T112 611T94 630T60 637L35 639Q30 642 31 651T37 663Q75 661 103 661T161 660Q192 660 219 660T284 663Q289 661 290 652T286 639L262 637Q240 635 228 630T210 612T203 574T202 511V295Q202 235 212 186T246 101T309 47T405 28Q459 28 497 48T559 104T594 188T605 294V409ZM403 868Q441 868 464 844T488 787Q488 755 464 731T403 706Q384 706 369 712T342 730T324 756T318 787Q318 819 341 843T403 868ZM358 787Q358 764 371 749T403 734Q423 734 435 749T448 787Q448 810 436 824T403 839Q384 839 371 825T358 787Z"  />
<glyph unicode="&#x16F;" horiz-adv-x="512" d="M159 147Q159 121 163 100T177 64T205 41T252 32Q272 32 294 40T333 62Q343 71 348 84T353 120V284Q353 308 352 322T346 343T335 354T316 363L303 368Q298 371 298 379T304 390Q319 390 336 391T369 395T399 401T421 408Q429 406 430 401Q427 372 427 314V146Q427 86 432 62T458 37Q474 37 497 42Q502 38 502 27T496 13Q481 10 464 7T429 -1T395 -11T365 -24Q356 -24 353 -17V24Q353 38 344 38Q333 31 318 22T286 5T248 -8T206 -14Q140 -14 113 18T85 111V278Q85 302 85 316T81 339T72 353T55 363L43 368Q38 372 39 380T45 390Q80 391 107 396T152 408Q161 407 162 401Q160 388 160 370T159 314V147ZM253 635Q291 635 314 611T338 554Q338 522 314 498T253 473Q234 473 219 479T192 497T174 523T168 554Q168 586 191 610T253 635ZM208 554Q208 531 221 516T253 501Q273 501 285 516T298 554Q298 577 286 591T253 606Q234 606 221 592T208 554Z"  />
<glyph unicode="&#x170;" horiz-adv-x="746" d="M605 409Q605 432 605 463T602 524T596 580T586 616Q576 634 536 637L511 639Q506 644 507 652T513 663Q570 660 627 660Q659 660 682 660T732 663Q738 659 738 652T734 639L710 637Q670 634 660 613Q655 601 652 576T648 520T646 460T646 409V296Q646 263 643 230T632 166T611 107T576 57Q544 22 493 3T385 -16Q333 -16 284 -5T198 39Q158 72 139 128T120 275V511Q120 550 119 574T112 611T94 630T60 637L35 639Q30 642 31 651T37 663Q75 661 103 661T161 660Q192 660 219 660T284 663Q289 661 290 652T286 639L262 637Q240 635 228 630T210 612T203 574T202 511V295Q202 235 212 186T246 101T309 47T405 28Q459 28 497 48T559 104T594 188T605 294V409ZM519 861Q524 861 532 857T548 847Q562 837 565 827T563 812Q560 807 554 802T540 789L453 706Q445 708 439 712T434 725L490 839Q497 852 502 856T519 861ZM366 861Q371 861 380 856T396 846Q416 829 409 814Q406 808 400 801T387 789L300 706Q292 708 286 712T281 725L337 839Q344 852 349 856T366 861Z"  />
<glyph unicode="&#x171;" horiz-adv-x="512" d="M159 147Q159 121 163 100T177 64T205 41T252 32Q272 32 294 40T333 62Q343 71 348 84T353 120V284Q353 308 352 322T346 343T335 354T316 363L303 368Q298 371 298 379T304 390Q319 390 336 391T369 395T399 401T421 408Q429 406 430 401Q427 372 427 314V146Q427 86 432 62T458 37Q474 37 497 42Q502 38 502 27T496 13Q481 10 464 7T429 -1T395 -11T365 -24Q356 -24 353 -17V24Q353 38 344 38Q333 31 318 22T286 5T248 -8T206 -14Q140 -14 113 18T85 111V278Q85 302 85 316T81 339T72 353T55 363L43 368Q38 372 39 380T45 390Q80 391 107 396T152 408Q161 407 162 401Q160 388 160 370T159 314V147ZM182 465Q177 464 171 467T165 476L220 639Q224 647 228 653T237 661Q243 663 250 660T269 650Q284 640 285 630Q287 617 274 599L182 465ZM314 465Q309 464 303 467T297 476L352 639Q356 647 360 653T369 662Q375 663 382 660T401 650Q415 644 417 631Q418 625 415 616T406 599L314 465Z"  />
<glyph unicode="&#x172;" horiz-adv-x="746" d="M202 295Q202 235 212 186T246 101T309 47T405 28Q459 28 497 48T559 104T594 188T605 294V409Q605 432 605 463T602 524T596 580T586 616Q576 634 536 637L511 639Q506 644 507 652T513 663Q570 660 627 660Q659 660 682 660T732 663Q738 659 738 652T734 639L710 637Q670 634 660 613Q655 601 652 576T648 520T646 460T646 409V296Q646 263 643 230T632 166T611 107T576 57Q551 30 527 19T483 0Q441 -31 418 -62T395 -119Q395 -139 406 -154T444 -170Q479 -170 501 -159Q510 -162 510 -174Q492 -198 465 -211T408 -225Q368 -225 347 -202T325 -148Q325 -113 352 -79T436 -11Q428 -13 414 -14T385 -16Q333 -16 284 -5T198 39Q158 72 139 128T120 275V511Q120 550 119 574T112 611T94 630T60 637L35 639Q30 642 31 651T37 663Q75 661 103 661T161 660Q192 660 219 660T284 663Q289 661 290 652T286 639L262 637Q240 635 228 630T210 612T203 574T202 511V295Z"  />
<glyph unicode="&#x173;" horiz-adv-x="512" d="M85 278Q85 302 85 316T81 339T72 353T55 363L43 368Q38 372 39 380T45 390Q80 391 107 396T152 408Q161 407 162 401Q160 388 160 370T159 314V147Q159 121 163 100T177 64T205 41T252 32Q272 32 294 40T333 62Q343 71 348 84T353 120V284Q353 308 352 322T346 343T335 354T316 363L303 368Q298 371 298 379T304 390Q319 390 336 391T369 395T399 401T421 408Q429 406 430 401Q427 372 427 314V146Q427 86 432 62T458 37Q474 37 497 42Q502 38 502 27T496 13Q494 13 493 12Q456 -21 441 -54T425 -113Q425 -134 436 -148T467 -162Q500 -162 519 -148Q528 -151 528 -163Q510 -187 485 -198T437 -209Q398 -209 377 -187T355 -135Q355 -104 377 -72T455 5Q435 0 410 -6T365 -24Q356 -24 353 -17V24Q353 38 344 38Q333 31 318 22T286 5T248 -8T206 -14Q140 -14 113 18T85 111V278Z"  />
<glyph unicode="&#x178;" horiz-adv-x="574" d="M336 152Q336 112 338 88T346 50T364 31T396 25L434 22Q439 17 438 8T432 -3Q409 -2 391 -2T356 -1T326 0T296 0Q264 0 235 0T165 -3Q160 -1 159 8T163 22L194 25Q216 27 228 32T246 50T253 88T254 152V203Q254 224 253 238T249 264T240 291T222 327L104 557Q91 582 82 596T63 617T45 628T25 633L-3 638Q-8 643 -7 651T-1 663Q23 661 51 661T115 660Q184 660 222 663Q229 661 229 652T225 638L212 636Q186 632 178 628T170 618Q170 614 174 603T183 580T194 556T201 541Q229 485 257 428T314 319Q337 359 361 401T408 488Q418 507 429 528T451 569T467 601T473 620Q473 625 461 629T431 636L413 638Q408 643 408 651T415 663Q442 661 465 661T511 660Q534 660 556 660T604 663Q610 659 610 651T606 638L578 633Q558 630 542 617T511 583T481 535T446 475L383 366Q366 337 357 319T343 285T337 251T336 204V152ZM219 710Q170 710 170 761Q168 783 182 800T219 817Q242 817 256 800T270 763Q270 741 256 726T219 710ZM405 710Q382 710 368 722T353 761Q353 783 367 800T405 817Q428 817 440 800T453 763Q453 741 441 726T405 710Z"  />
<glyph unicode="&#x179;" horiz-adv-x="641" d="M352 452Q391 508 414 539T449 594Q454 603 457 609T461 621Q461 625 453 627T425 629H276Q216 629 181 623T127 596Q111 579 100 560T83 528Q76 525 69 527T58 535Q67 561 78 602T99 685Q107 691 116 685Q117 676 121 671T136 664T166 661T215 660H479Q533 660 559 660T594 663Q600 661 600 654Q590 645 571 621T528 567T480 502T436 440L271 202Q267 196 251 173T218 124T186 76T172 47Q172 39 179 37T200 33Q220 31 257 31T348 31Q372 31 398 31T450 34T497 41T533 54Q555 66 572 91T603 146Q610 148 618 147T628 139Q625 122 620 101T608 60T596 23T583 -3Q541 -1 498 -1T401 0H144Q104 0 77 -1T32 -3Q27 -1 27 9Q35 16 48 32T77 67T108 107T136 145L352 452ZM296 706Q291 708 288 715T286 730L427 845Q446 858 454 858Q459 858 467 853T484 836Q494 821 495 811T494 794Q491 790 485 787T468 778L296 706Z"  />
<glyph unicode="&#x17A;" horiz-adv-x="377" d="M136 0Q95 0 68 0T31 -3Q25 0 25 7Q32 16 44 33T69 70T96 112T121 154L227 334Q239 355 236 359T218 364H149Q126 364 109 361T80 349Q67 339 59 324T44 291Q40 286 32 287T21 295Q22 305 25 321T33 354T43 387T54 412Q60 416 66 412Q67 406 70 402T81 397T102 395T137 394H279Q299 394 314 394T340 397Q346 394 345 387Q314 344 271 273L150 70Q134 43 137 37T169 30H203Q218 30 234 30T266 34T296 43T321 60Q329 69 337 84T353 118Q358 121 365 120T375 112Q368 75 358 43T338 -3Q313 -1 287 -1T226 0H136ZM175 456Q170 455 165 458T158 467L244 630Q249 638 254 646T268 654Q281 654 299 639Q307 633 311 626T316 613Q316 602 300 586L175 456Z"  />
<glyph unicode="&#x17B;" horiz-adv-x="641" d="M352 452Q391 508 414 539T449 594Q454 603 457 609T461 621Q461 625 453 627T425 629H276Q216 629 181 623T127 596Q111 579 100 560T83 528Q76 525 69 527T58 535Q67 561 78 602T99 685Q107 691 116 685Q117 676 121 671T136 664T166 661T215 660H479Q533 660 559 660T594 663Q600 661 600 654Q590 645 571 621T528 567T480 502T436 440L271 202Q267 196 251 173T218 124T186 76T172 47Q172 39 179 37T200 33Q220 31 257 31T348 31Q372 31 398 31T450 34T497 41T533 54Q555 66 572 91T603 146Q610 148 618 147T628 139Q625 122 620 101T608 60T596 23T583 -3Q541 -1 498 -1T401 0H144Q104 0 77 -1T32 -3Q27 -1 27 9Q35 16 48 32T77 67T108 107T136 145L352 452ZM332 707Q309 707 294 720T278 760Q277 783 292 798T332 814Q355 814 370 798T385 763Q385 738 370 723T332 707Z"  />
<glyph unicode="&#x17C;" horiz-adv-x="377" d="M136 0Q95 0 68 0T31 -3Q25 0 25 7Q32 16 44 33T69 70T96 112T121 154L227 334Q239 355 236 359T218 364H149Q126 364 109 361T80 349Q67 339 59 324T44 291Q40 286 32 287T21 295Q22 305 25 321T33 354T43 387T54 412Q60 416 66 412Q67 406 70 402T81 397T102 395T137 394H279Q299 394 314 394T340 397Q346 394 345 387Q314 344 271 273L150 70Q134 43 137 37T169 30H203Q218 30 234 30T266 34T296 43T321 60Q329 69 337 84T353 118Q358 121 365 120T375 112Q368 75 358 43T338 -3Q313 -1 287 -1T226 0H136ZM199 604Q222 604 234 589T247 552Q247 526 232 514T196 502Q173 502 160 516T146 551Q146 576 161 590T199 604Z"  />
<glyph unicode="&#x17D;" horiz-adv-x="641" d="M352 452Q391 508 414 539T449 594Q454 603 457 609T461 621Q461 625 453 627T425 629H276Q216 629 181 623T127 596Q111 579 100 560T83 528Q76 525 69 527T58 535Q67 561 78 602T99 685Q107 691 116 685Q117 676 121 671T136 664T166 661T215 660H479Q533 660 559 660T594 663Q600 661 600 654Q590 645 571 621T528 567T480 502T436 440L271 202Q267 196 251 173T218 124T186 76T172 47Q172 39 179 37T200 33Q220 31 257 31T348 31Q372 31 398 31T450 34T497 41T533 54Q555 66 572 91T603 146Q610 148 618 147T628 139Q625 122 620 101T608 60T596 23T583 -3Q541 -1 498 -1T401 0H144Q104 0 77 -1T32 -3Q27 -1 27 9Q35 16 48 32T77 67T108 107T136 145L352 452ZM197 826Q197 833 201 839T212 846L326 784Q336 779 341 779T358 784L473 846Q478 845 481 839T484 826L362 713Q342 695 321 713L197 826Z"  />
<glyph unicode="&#x17E;" horiz-adv-x="377" d="M136 0Q95 0 68 0T31 -3Q25 0 25 7Q32 16 44 33T69 70T96 112T121 154L227 334Q239 355 236 359T218 364H149Q126 364 109 361T80 349Q67 339 59 324T44 291Q40 286 32 287T21 295Q22 305 25 321T33 354T43 387T54 412Q60 416 66 412Q67 406 70 402T81 397T102 395T137 394H279Q299 394 314 394T340 397Q346 394 345 387Q314 344 271 273L150 70Q134 43 137 37T169 30H203Q218 30 234 30T266 34T296 43T321 60Q329 69 337 84T353 118Q358 121 365 120T375 112Q368 75 358 43T338 -3Q313 -1 287 -1T226 0H136ZM183 567Q191 557 196 557T210 567L285 660Q290 661 296 658T303 647L213 470Q205 455 197 455T180 470L88 647Q89 655 96 657T108 660L183 567Z"  />
<glyph unicode="&#x192;" horiz-adv-x="500" d="M209 427Q217 469 226 502T250 565Q260 585 276 608T313 651T361 684T416 697Q454 697 470 680T487 646Q487 635 483 627T472 612T460 603T451 600Q439 600 427 618Q418 632 406 643T376 655Q359 655 346 636T322 586T303 513T287 427H400Q406 422 407 411T400 394H279Q271 354 265 316T251 237Q238 158 225 104T198 13T169 -46T139 -82Q122 -98 99 -110T44 -122Q12 -122 -4 -103T-21 -58Q-21 -42 -15 -34T-4 -26Q2 -26 9 -31T21 -41Q35 -54 53 -65T86 -76Q93 -76 100 -71T116 -51T131 -7T147 67Q151 93 157 129T170 207T186 297T202 394H117Q112 398 112 410T117 427H209Z"  />
<glyph unicode="&#x218;" horiz-adv-x="489" d="M437 169Q437 128 422 94T379 36T312 -2T224 -16Q192 -16 167 -12T122 -2T89 10T68 21Q63 29 59 45T51 81T45 122T41 161Q45 166 53 167T65 164Q71 145 82 120T113 71T163 31T237 15Q268 15 291 24T331 50T354 86T362 130Q362 146 360 163T349 199T324 234T280 270L185 332Q166 344 147 361T113 399T87 447T77 504Q77 540 90 571T130 625T194 662T281 676Q304 676 329 672T374 663Q384 660 393 659T409 657Q412 648 415 634T421 603T425 569T427 535Q424 530 415 529T402 532Q397 550 389 570T365 606T326 634T266 645Q229 645 206 634T170 607T152 571T147 534Q147 512 155 494T175 460T203 432T232 411L312 361Q336 346 358 328T398 286T426 234T437 169ZM232 -58Q244 -58 256 -63T280 -78T298 -104T305 -141Q305 -168 296 -188T270 -225T232 -251T189 -269Q182 -266 179 -254T179 -238Q189 -235 201 -229T223 -215T241 -195T248 -168Q248 -156 242 -148T228 -135T213 -126T202 -121Q185 -113 185 -96Q185 -82 197 -70T232 -58Z"  />
<glyph unicode="&#x219;" horiz-adv-x="323" d="M186 408Q218 408 242 402T274 390Q281 373 285 351T290 309Q287 304 279 303T266 306Q253 339 231 359T178 379Q149 379 132 362T114 318Q114 303 121 291T139 269T164 251T191 235Q211 224 229 212T262 183T284 147T293 100Q293 71 281 50T249 15T203 -7T149 -14Q79 -14 42 16Q39 23 37 35T33 61T30 90T30 117Q34 122 41 122T53 118Q59 97 68 79T91 46T121 24T159 15Q186 15 206 31T226 79Q226 96 219 109T201 134T177 154T149 171Q105 196 78 224T50 294Q50 321 60 342T89 378T132 400T186 408ZM151 -58Q162 -58 174 -63T197 -79T215 -106T222 -146Q222 -171 213 -190T187 -225T151 -251T108 -269Q102 -266 101 -254T103 -238Q112 -235 122 -229T141 -215T156 -195T162 -168Q162 -156 157 -148T146 -135T133 -126T124 -121Q109 -113 109 -96Q109 -82 120 -70T151 -58Z"  />
<glyph unicode="&#x21A;" horiz-adv-x="660" d="M368 150Q368 111 369 87T376 50T394 32T428 25L460 22Q465 19 464 9T458 -3Q415 -1 386 -1T327 0Q297 0 267 0T188 -3Q183 -1 183 8T188 22L224 25Q245 27 257 32T276 50T284 87T286 150V597Q286 620 282 624T256 629H201Q185 629 167 629T133 626T102 618T78 604Q60 587 51 571T33 535Q27 530 19 533T7 542Q13 559 18 578T29 618T38 657T45 691Q47 693 54 693T64 691Q69 667 91 664T149 660H554Q574 660 586 660T607 664T621 672T632 688Q636 690 642 689T650 685Q646 670 643 649T637 605T635 564T635 533Q632 527 623 527T609 531Q608 540 606 551T601 572T594 591T584 604Q550 629 468 629H397Q386 629 380 629T372 625T369 614T368 595V150ZM317 -58Q329 -58 341 -63T365 -78T383 -104T390 -141Q390 -168 380 -188T354 -225T315 -251T269 -269Q262 -266 261 -254T264 -238Q274 -235 286 -229T308 -215T326 -195T333 -168Q333 -156 327 -148T313 -135T298 -126T287 -121Q270 -113 270 -96Q270 -82 282 -70T317 -58Z"  />
<glyph unicode="&#x21B;" horiz-adv-x="307" d="M180 352Q167 352 165 348T162 328V141Q162 119 164 99T173 64T195 39T235 30Q249 30 262 35Q269 37 277 43T287 49Q293 49 296 43T297 32Q283 16 257 1T192 -14Q160 -14 140 -6T108 17T92 51T88 94V323Q88 343 85 347T67 352H39Q34 355 34 361T36 373Q58 380 75 388T100 404Q110 413 122 430T142 463Q146 465 153 464T163 458V413Q163 399 165 397T181 394H292Q301 387 301 372T293 352H180ZM162 -58Q173 -58 185 -63T208 -79T226 -106T233 -146Q233 -171 224 -190T198 -225T162 -251T119 -269Q113 -266 112 -254T114 -238Q123 -235 133 -229T152 -215T167 -195T173 -168Q173 -156 168 -148T157 -135T144 -126T135 -121Q120 -113 120 -96Q120 -82 131 -70T162 -58Z"  />
<glyph unicode="&#x2C6;" horiz-adv-x="360" d="M193 557Q184 568 180 568T166 557L92 465Q87 463 80 466T72 474L162 651Q179 684 197 651L288 474Q287 469 279 466T266 465L193 557Z"  />
<glyph unicode="&#x2C7;" horiz-adv-x="360" d="M168 577Q176 567 181 567T195 577L270 670Q275 671 281 668T288 657L198 480Q190 465 182 465T165 480L73 657Q74 665 81 667T93 670L168 577Z"  />
<glyph unicode="&#x2C9;" horiz-adv-x="360" d="M79 524Q71 535 71 552T79 581H283Q290 570 290 553T283 524H79Z"  />
<glyph unicode="&#x2D8;" horiz-adv-x="360" d="M180 501Q128 501 100 533T76 632Q80 635 87 635T98 632Q107 592 131 575T180 558Q204 558 228 575T263 632Q266 635 273 635T285 632Q288 565 260 533T180 501Z"  />
<glyph unicode="&#x2D9;" horiz-adv-x="360" d="M184 612Q207 612 219 597T232 560Q232 534 217 522T181 510Q158 510 145 524T131 559Q131 584 146 598T184 612Z"  />
<glyph unicode="&#x2DA;" horiz-adv-x="360" d="M180 641Q218 641 241 617T265 560Q265 528 241 504T180 479Q161 479 146 485T119 503T101 529T95 560Q95 592 118 616T180 641ZM135 560Q135 537 148 522T180 507Q200 507 212 522T225 560Q225 583 213 597T180 612Q161 612 148 598T135 560Z"  />
<glyph unicode="&#x2DB;" horiz-adv-x="360" d="M243 5Q223 -13 211 -30T191 -61T182 -88T179 -111Q179 -118 181 -127T188 -143T202 -156T225 -162Q234 -162 245 -160T274 -147Q282 -152 282 -164Q263 -187 239 -198T191 -209Q153 -209 131 -189T109 -136Q109 -106 133 -72T220 5H243Z"  />
<glyph unicode="&#x2DC;" horiz-adv-x="360" d="M206 583Q221 583 232 584T251 589T266 601T283 622Q288 624 293 623T300 616Q295 596 284 575T262 543Q251 533 241 530T213 527H160Q126 527 109 515T77 475Q73 472 68 473T60 479Q61 485 64 496T73 519T85 543T97 560Q109 573 121 578T152 583H206Z"  />
<glyph unicode="&#x2DD;" horiz-adv-x="360" d="M112 470Q107 469 101 472T95 481L150 644Q154 652 158 658T167 666Q173 668 180 665T199 655Q214 645 215 635Q217 622 204 604L112 470ZM244 470Q239 469 233 472T227 481L282 644Q286 652 290 658T299 667Q305 668 312 665T331 655Q345 649 347 636Q348 630 345 621T336 604L244 470Z"  />
<glyph unicode="&#x3C0;" horiz-adv-x="500" d="M202 339Q194 276 187 233T175 160T164 111T156 77Q133 -14 90 -14Q75 -14 65 -6T55 19Q55 28 64 38T82 60Q89 68 99 85T120 134T143 215T162 339Q116 339 87 324T36 263Q34 255 28 254T22 267Q22 290 31 318T64 365Q84 382 107 388T162 394H364Q413 394 436 395T470 404Q481 409 476 394Q468 368 456 351Q449 341 428 339T362 337Q353 308 346 256T338 143Q338 95 349 72T390 48Q413 48 431 61T469 100Q472 105 476 102T478 90Q458 36 424 11T353 -14Q326 -14 311 -1T287 31T277 71T276 108Q278 154 293 215T328 339H202Z"  />
<glyph unicode="&#x2010;" horiz-adv-x="320" d="M273 247Q288 237 288 215Q288 200 280 190L47 168Q39 175 36 183T32 200Q32 215 40 225L273 247Z"  />
<glyph unicode="&#x2012;" horiz-adv-x="500" d="M468 340V291H32V340H468Z"  />
<glyph unicode="&#x2013;" horiz-adv-x="500" d="M500 230V181H0V230H500Z"  />
<glyph unicode="&#x2014;" horiz-adv-x="1000" d="M1000 230V181H0V230H1000Z"  />
<glyph unicode="&#x2018;" horiz-adv-x="235" d="M132 473Q117 473 103 480T79 501T62 532T55 569Q55 595 64 616T90 655T127 685T172 705Q178 702 180 696T179 684Q151 671 127 650T103 598Q103 584 108 574T120 556T137 546T153 542Q164 541 172 535T180 514Q180 508 178 501T171 488T156 478T132 473Z"  />
<glyph unicode="&#x2019;" horiz-adv-x="235" d="M103 700Q118 700 132 693T156 672T173 641T180 604Q180 578 171 556T145 517T108 488T63 468Q57 471 55 477T56 489Q84 502 108 523T132 575Q132 589 127 599T115 617T98 627T82 631Q71 632 63 638T55 659Q55 665 57 672T64 685T79 695T103 700Z"  />
<glyph unicode="&#x201A;" horiz-adv-x="215" d="M93 100Q108 100 122 93T146 72T163 41T170 4Q169 -48 135 -83T53 -132Q47 -129 45 -123T46 -111Q74 -98 98 -77T122 -25Q122 -11 117 -1T105 17T88 27T72 31Q61 32 53 38T45 59Q45 65 47 72T54 85T69 95T93 100Z"  />
<glyph unicode="&#x201C;" horiz-adv-x="404" d="M301 473Q286 473 272 480T248 501T231 532T224 569Q224 595 233 616T259 655T296 685T341 705Q347 702 349 696T348 684Q320 671 296 650T272 598Q272 584 277 574T289 556T306 546T322 542Q333 541 341 535T349 514Q349 508 347 501T340 488T325 478T301 473ZM132 473Q117 473 103 480T79 501T62 532T55 569Q55 595 64 616T90 655T127 685T172 705Q178 702 180 696T179 684Q151 671 127 650T103 598Q103 584 108 574T120 556T137 546T153 542Q164 541 172 535T180 514Q180 508 178 501T171 488T156 478T132 473Z"  />
<glyph unicode="&#x201D;" horiz-adv-x="404" d="M272 700Q287 700 301 693T325 672T342 641T349 604Q349 578 340 556T314 517T277 488T232 468Q226 471 224 477T225 489Q253 502 277 523T301 575Q301 589 296 599T284 617T267 627T251 631Q240 632 232 638T224 659Q224 665 226 672T233 685T248 695T272 700ZM103 700Q118 700 132 693T156 672T173 641T180 604Q180 578 171 556T145 517T108 488T63 468Q57 471 55 477T56 489Q84 502 108 523T132 575Q132 589 127 599T115 617T98 627T82 631Q71 632 63 638T55 659Q55 665 57 672T64 685T79 695T103 700Z"  />
<glyph unicode="&#x201E;" horiz-adv-x="384" d="M262 100Q277 100 291 93T315 72T332 41T339 4Q338 -48 304 -83T222 -132Q216 -129 214 -123T215 -111Q243 -98 267 -77T291 -25Q291 -11 286 -1T274 17T257 27T241 31Q230 32 222 38T214 59Q214 65 216 72T223 85T238 95T262 100ZM93 100Q108 100 122 93T146 72T163 41T170 4Q169 -48 135 -83T53 -132Q47 -129 45 -123T46 -111Q74 -98 98 -77T122 -25Q122 -11 117 -1T105 17T88 27T72 31Q61 32 53 38T45 59Q45 65 47 72T54 85T69 95T93 100Z"  />
<glyph unicode="&#x2020;" horiz-adv-x="480" d="M224 -127V10Q224 53 222 88T214 154T203 210T189 262Q212 290 218 329T225 437Q202 437 183 432T149 422T121 411T97 406Q73 406 62 418T50 450Q50 468 61 480T97 493Q108 493 121 489T149 478T183 468T225 463Q225 505 220 531T210 576T199 605T194 628Q194 643 204 659T240 676Q266 676 276 660T286 628Q286 617 281 606T271 576T260 532T255 463Q278 463 297 467T331 478T359 488T384 493Q407 493 418 481T430 450Q430 431 419 419T384 406Q372 406 360 411T332 421T297 432T255 437Q255 369 261 330T291 262Q283 237 277 211T266 154T259 89T256 10V-127H224Z"  />
<glyph unicode="&#x2021;" horiz-adv-x="480" d="M240 676Q265 676 275 660T285 630Q285 619 281 608T270 579T260 535T255 467Q277 467 295 471T331 481Q346 486 359 491T385 497Q408 497 418 485T429 454Q429 436 419 424T385 412Q373 412 360 416T331 426T297 436T255 441Q255 382 261 346T291 287Q268 266 262 229T255 122Q277 122 295 126T331 136Q346 141 359 146T385 152Q408 152 418 140T429 109Q429 91 419 79T385 67Q373 67 360 71T331 81T297 91T255 96Q255 55 259 27T270 -20T280 -53T285 -77Q285 -91 275 -107T240 -124Q215 -124 205 -108T195 -77Q195 -66 199 -53T210 -21T220 27T225 96Q202 96 184 92T150 82T121 72T95 67Q72 67 62 79T51 109Q51 127 61 139T95 152Q107 152 120 147T149 136Q166 131 184 127T225 122Q225 191 219 228T189 287Q212 310 218 346T225 441Q202 441 184 437T150 427T121 417T95 412Q72 412 62 424T51 454Q51 472 61 484T95 497Q107 497 120 492T149 481Q166 476 184 472T225 467Q225 508 221 534T210 578T200 607T195 630Q195 644 205 660T240 676Z"  />
<glyph unicode="&#x2022;" horiz-adv-x="388" d="M194 475Q223 475 248 464T292 435T322 391T333 336Q333 307 322 282T293 238T249 209T194 198Q165 198 140 208T96 237T66 281T55 336Q55 365 66 390T95 434T139 464T194 475Z"  />
<glyph unicode="&#x2024;" horiz-adv-x="500" d="M250 100Q276 100 291 83T306 41Q306 17 291 2T250 -14Q228 -14 211 0T194 41Q194 67 210 83T250 100Z"  />
<glyph unicode="&#x2025;" horiz-adv-x="500" d="M125 100Q151 100 166 83T181 41Q181 17 166 2T125 -14Q103 -14 86 0T69 41Q69 67 85 83T125 100ZM375 100Q401 100 416 83T431 41Q431 17 416 2T375 -14Q353 -14 336 0T319 41Q319 67 335 83T375 100Z"  />
<glyph unicode="&#x2026;" horiz-adv-x="1000" d="M500 -14Q478 -14 461 0T444 41Q444 67 460 83T500 100Q526 100 541 83T556 41Q556 17 541 2T500 -14ZM833 -14Q811 -14 794 0T777 41Q777 67 793 83T833 100Q859 100 874 83T889 41Q889 17 874 2T833 -14ZM167 -14Q145 -14 128 0T111 41Q111 67 127 83T167 100Q193 100 208 83T223 41Q223 17 208 2T167 -14Z"  />
<glyph unicode="&#x2030;" horiz-adv-x="1144" d="M759 170Q759 142 751 110T724 50T679 4T613 -14Q575 -14 548 4T502 49T476 109T467 170Q467 199 475 231T502 291T547 337T613 355Q651 355 678 337T724 292T750 232T759 170ZM690 170Q690 189 688 215T678 267T655 309T614 327Q588 327 573 310T550 268T539 216T536 170Q536 151 538 124T549 73T573 31T614 14Q639 14 654 31T677 73T687 125T690 170ZM337 455Q337 427 329 395T302 335T257 289T191 271Q153 271 126 289T80 334T54 394T45 455Q45 484 53 516T80 576T125 622T191 640Q229 640 256 622T302 577T328 517T337 455ZM268 455Q268 474 266 500T256 552T233 594T192 612Q166 612 151 595T128 553T117 501T114 455Q114 436 116 409T127 358T151 316T192 299Q217 299 232 316T255 358T265 410T268 455ZM1099 170Q1099 142 1091 110T1064 50T1019 4T953 -14Q915 -14 888 4T842 49T816 109T807 170Q807 199 815 231T842 291T887 337T953 355Q991 355 1018 337T1064 292T1090 232T1099 170ZM1030 170Q1030 189 1028 215T1018 267T995 309T954 327Q928 327 913 310T890 268T879 216T876 170Q876 151 878 124T889 73T913 31T954 14Q979 14 994 31T1017 73T1027 125T1030 170ZM209 -40Q197 -40 188 -34T179 -18L583 652Q591 653 600 649T616 635L209 -40Z"  />
<glyph unicode="&#x2039;" horiz-adv-x="233" d="M118 218Q113 206 118 194L188 52Q184 42 171 39Q142 77 113 114T52 190Q39 206 52 221Q84 259 113 296T171 371Q184 369 188 358L118 218Z"  />
<glyph unicode="&#x203A;" horiz-adv-x="233" d="M45 358Q49 369 62 371Q91 333 120 296T181 221Q194 206 181 190Q149 152 120 115T62 39Q49 42 45 52L115 194Q120 206 115 218L45 358Z"  />
<glyph unicode="&#x2044;" horiz-adv-x="100" d="M-183 -14Q-72 154 36 320T253 654Q262 654 270 649T284 631Q172 462 63 296T-156 -40Q-169 -40 -175 -33T-183 -14Z"  />
<glyph unicode="&#x2070;" horiz-adv-x="360" d="M181 708Q220 708 248 690T294 643T320 579T329 508Q329 472 321 436T294 372T248 326T181 308Q142 308 114 325T68 371T41 436T32 508Q32 543 40 578T67 643T114 690T181 708ZM181 682Q154 682 139 662T117 613T109 555T107 506Q107 487 109 458T118 401T140 354T181 334Q206 334 221 353T243 400T252 457T254 506Q254 525 252 555T242 613T220 661T181 682Z"  />
<glyph unicode="&#x2074;" horiz-adv-x="360" d="M36 431Q27 431 27 441Q27 449 36 461L249 735Q254 742 258 744T270 747Q279 747 285 746T292 742Q292 740 290 736L84 472Q76 463 82 462T102 460H192Q204 460 207 462T210 476V585Q210 593 216 597Q223 601 237 604T263 608Q271 608 272 603T274 589V474Q274 465 276 463T289 460H326Q332 456 332 446T326 431H293Q279 431 277 429T274 415V401Q274 380 274 368T278 349T290 340T313 336L331 334Q334 329 334 322T329 313Q313 314 294 314T242 315Q214 315 189 315T153 313Q148 315 148 322T151 334L169 336Q184 338 192 340T205 350T209 369T210 401V413Q210 424 208 427T191 431H36Z"  />
<glyph unicode="&#x2075;" horiz-adv-x="360" d="M139 641Q122 639 118 636T111 626L102 605Q100 600 102 596T116 590L126 589Q159 586 191 578T249 555T291 516T307 455Q307 414 285 382T226 326T147 291T61 278Q54 281 53 291T58 308Q98 308 133 318T194 345T234 386T249 437Q249 467 233 487T190 519T132 536T70 541Q54 541 64 568L101 674Q104 682 106 685T117 690L288 711Q295 709 295 706Q291 695 286 683T269 657L139 641Z"  />
<glyph unicode="&#x2076;" horiz-adv-x="360" d="M189 334Q219 334 239 354T259 419Q259 460 238 489T182 518Q171 518 164 517T150 514Q146 516 145 520T146 530Q163 540 180 546T219 553Q244 553 264 544T298 519T321 482T329 439Q329 410 318 386T286 345T239 318T180 308Q143 308 115 320T69 353T41 401T31 458Q31 479 35 502T50 550T79 599T124 647Q148 667 176 682T230 707T281 723T322 731Q328 729 329 722T326 712Q295 702 259 687T187 641Q105 571 105 460Q105 434 111 411T128 371T154 344T189 334Z"  />
<glyph unicode="&#x2077;" horiz-adv-x="360" d="M115 650Q100 650 90 650T71 646T57 637T45 618Q39 615 34 617T26 625Q34 647 40 666T51 703Q67 702 81 702T123 701H238Q266 701 294 701T331 703Q335 702 335 696Q319 676 304 653T271 596L99 285Q91 283 81 287T71 299L239 602Q243 610 248 618T255 634T254 645T238 650H115Z"  />
<glyph unicode="&#x2078;" horiz-adv-x="360" d="M179 308Q153 308 129 313T85 331T55 362T43 408Q43 446 70 472T132 509V511Q103 523 81 546T59 603Q59 627 69 646T96 679T136 700T186 708Q237 708 272 684T307 612Q307 595 300 582T282 559T258 540T233 526Q267 509 292 483T318 412Q318 362 279 335T179 308ZM160 497Q128 485 116 461T103 411Q103 396 109 383T125 358T150 341T183 334Q218 334 238 353T259 402Q259 437 231 460T160 497ZM206 539Q226 550 238 567T251 614Q251 640 232 661T183 682Q152 682 134 663T116 617Q116 602 123 591T143 569T172 552T206 539Z"  />
<glyph unicode="&#x2079;" horiz-adv-x="360" d="M152 351Q194 377 223 426T253 556Q253 575 249 597T235 638T209 669T170 682Q143 682 121 661T99 604Q99 587 104 571T119 541T143 520T177 511Q188 511 195 511T210 513Q213 511 213 506T212 498Q201 489 184 482T145 474Q99 474 67 502T34 578Q34 606 45 630T77 671T125 698T184 708Q250 708 289 663T327 543Q325 489 301 441T219 349Q202 336 181 326T138 309T93 296T52 288Q46 290 45 297T47 308Q111 325 152 351Z"  />
<glyph unicode="&#x207D;" horiz-adv-x="220" d="M107 496Q107 412 135 352T211 254Q214 247 210 242T201 236Q122 273 82 342T41 496Q41 581 81 650T201 756Q206 755 210 750T211 738Q163 700 135 640T107 496Z"  />
<glyph unicode="&#x207E;" horiz-adv-x="220" d="M179 496Q179 411 139 342T19 236Q14 237 10 242T9 254Q57 292 85 352T113 496Q113 580 85 640T9 738Q6 745 10 750T19 756Q98 719 138 650T179 496Z"  />
<glyph unicode="&#x207F;" horiz-adv-x="424" d="M80 516Q80 537 78 544T61 558L47 565Q43 568 43 573T46 582Q63 587 89 595T137 614Q142 614 144 608V579Q144 571 153 571Q177 585 203 596T258 608Q309 608 329 581T349 511V399Q349 364 354 352T382 336L403 333Q408 330 408 323T402 313Q380 314 361 314T318 315Q292 315 274 315T242 313Q237 315 237 322T241 333L252 336Q274 342 279 353T285 399V497Q285 529 269 548T216 568Q198 568 181 561T156 544Q148 534 146 525T144 503V399Q144 381 145 371T149 353T159 343T177 336L188 333Q193 330 193 323T187 313Q173 314 155 314T113 315Q87 315 67 315T27 313Q22 315 22 322T26 333L47 336Q70 339 75 351T80 399V516Z"  />
<glyph unicode="&#x2080;" horiz-adv-x="360" d="M181 229Q220 229 248 211T294 164T320 100T329 29Q329 -7 321 -43T294 -107T248 -153T181 -171Q142 -171 114 -154T68 -108T41 -43T32 29Q32 64 40 99T67 164T114 211T181 229ZM181 203Q154 203 139 183T117 134T109 76T107 27Q107 8 109 -21T118 -78T140 -125T181 -145Q206 -145 221 -126T243 -79T252 -22T254 27Q254 46 252 76T242 134T220 182T181 203Z"  />
<glyph unicode="&#x2081;" horiz-adv-x="360" d="M153 115Q153 143 149 156T122 172L91 175Q86 178 86 184T90 194Q132 201 162 211T212 229Q219 229 219 224Q217 208 217 189T217 151V-78Q217 -97 218 -108T223 -127T235 -137T259 -143L276 -145Q280 -148 280 -156T275 -166Q252 -165 229 -165T183 -164Q162 -164 139 -164T95 -166Q90 -164 90 -156T94 -145L111 -143Q126 -141 134 -138T147 -127T152 -109T153 -78V115Z"  />
<glyph unicode="&#x2082;" horiz-adv-x="360" d="M219 -116Q237 -116 251 -115T276 -111T296 -100T314 -80Q327 -75 333 -87Q321 -113 313 -135T294 -166Q285 -166 271 -166T240 -165T209 -164T181 -164H109Q80 -164 63 -164T34 -166Q32 -164 31 -163T29 -159Q29 -153 31 -150Q55 -135 77 -117T135 -62Q151 -46 167 -27T196 13T218 57T227 104Q227 143 207 165T152 188Q124 188 102 171T62 125Q56 121 50 124T43 134Q63 181 99 205T182 229Q237 229 268 200T300 126Q300 110 297 95T284 63T261 28T224 -12L168 -68Q149 -87 142 -95T134 -108Q134 -113 138 -114T148 -116H219Z"  />
<glyph unicode="&#x2083;" horiz-adv-x="360" d="M254 -52Q254 -36 250 -20T235 9T209 29T171 37Q147 37 129 28T99 8Q91 12 87 18T86 35Q95 39 109 45T138 57T167 71T192 86Q204 94 213 108T223 142Q223 168 207 181T170 195Q146 195 124 180T85 137Q72 136 68 148Q87 186 121 207T197 229Q241 229 267 208T293 158Q293 136 279 117T220 78Q216 73 219 71T228 68Q247 68 265 62T296 43T318 13T326 -27Q326 -61 309 -92T257 -150Q217 -179 178 -191T113 -203Q101 -203 88 -201T65 -195T49 -183T42 -164Q42 -150 51 -141T75 -132Q86 -132 94 -141T108 -158Q119 -176 140 -176Q155 -176 174 -168T212 -145T242 -106T254 -52Z"  />
<glyph unicode="&#x2084;" horiz-adv-x="360" d="M36 -48Q27 -48 27 -38Q27 -30 36 -18L249 256Q254 263 258 265T270 268Q279 268 285 267T292 263Q292 261 290 257L84 -7Q76 -16 82 -17T102 -19H192Q204 -19 207 -17T210 -3V106Q210 114 216 118Q223 122 237 125T263 129Q271 129 272 124T274 110V-5Q274 -14 276 -16T289 -19H326Q332 -23 332 -33T326 -48H293Q279 -48 277 -50T274 -64V-78Q274 -99 274 -111T278 -130T290 -139T313 -143L331 -145Q334 -150 334 -157T329 -166Q313 -165 294 -165T242 -164Q214 -164 189 -164T153 -166Q148 -164 148 -157T151 -145L169 -143Q184 -141 192 -139T205 -129T209 -110T210 -78V-66Q210 -55 208 -52T191 -48H36Z"  />
<glyph unicode="&#x2085;" horiz-adv-x="360" d="M139 162Q122 160 118 157T111 147L102 126Q100 121 102 117T116 111L126 110Q159 107 191 99T249 76T291 37T307 -24Q307 -65 285 -97T226 -153T147 -188T61 -201Q54 -198 53 -188T58 -171Q98 -171 133 -161T194 -134T234 -93T249 -42Q249 -12 233 8T190 40T132 57T70 62Q54 62 64 89L101 195Q104 203 106 206T117 211L288 232Q295 230 295 227Q291 216 286 204T269 178L139 162Z"  />
<glyph unicode="&#x2086;" horiz-adv-x="360" d="M189 -145Q219 -145 239 -125T259 -60Q259 -19 238 10T182 39Q171 39 164 38T150 35Q146 37 145 41T146 51Q163 61 180 67T219 74Q244 74 264 65T298 40T321 3T329 -40Q329 -69 318 -93T286 -134T239 -161T180 -171Q143 -171 115 -159T69 -126T41 -78T31 -21Q31 0 35 23T50 71T79 120T124 168Q148 188 176 203T230 228T281 244T322 252Q328 250 329 243T326 233Q295 223 259 208T187 162Q105 92 105 -19Q105 -45 111 -68T128 -108T154 -135T189 -145Z"  />
<glyph unicode="&#x2087;" horiz-adv-x="360" d="M115 171Q100 171 90 171T71 167T57 158T45 139Q39 136 34 138T26 146Q34 168 40 187T51 224Q67 223 81 223T123 222H238Q266 222 294 222T331 224Q335 223 335 217Q319 197 304 174T271 117L99 -194Q91 -196 81 -192T71 -180L239 123Q243 131 248 139T255 155T254 166T238 171H115Z"  />
</font>
</defs>
</svg>
